*
*
G04 PADS VX.1.2 Build Number: 698008 generated Gerber (RS-274-X) file*
G04 PC Version=2.1*
*
%IN "PI-ZREO-HAT.pcb"*%
*
%MOIN*%
*
%FSLAX35Y35*%
*
*
*
*
G04 PC Standard Apertures*
*
*
G04 Thermal Relief Aperture macro.*
%AMTER*
1,1,$1,0,0*
1,0,$1-$2,0,0*
21,0,$3,$4,0,0,45*
21,0,$3,$4,0,0,135*
%
*
*
G04 Annular Aperture macro.*
%AMANN*
1,1,$1,0,0*
1,0,$2,0,0*
%
*
*
G04 Odd Aperture macro.*
%AMODD*
1,1,$1,0,0*
1,0,$1-0.005,0,0*
%
*
*
G04 PC Custom Aperture Macros*
*
*
*
*
*
*
G04 PC Aperture Table*
*
%ADD011C,0.01*%
%ADD043C,0.001*%
*
*
*
*
G04 PC Circuitry*
G04 Layer Name PI-ZREO-HAT.pcb - circuitry*
%LPD*%
*
*
G04 PC Custom Flashes*
G04 Layer Name PI-ZREO-HAT.pcb - flashes*
%LPD*%
*
*
G04 PC Circuitry*
G04 Layer Name PI-ZREO-HAT.pcb - circuitry*
%LPD*%
*
G54D11*
G01X1887218Y1736587D02*
X1893218D01*
X1890218Y1733587D02*
Y1739587D01*
X1891718Y1741369D02*
Y1738087D01*
Y1741369D02*
X1892513D01*
X1892854Y1741212*
X1893081Y1740900*
X1893195Y1740587*
X1893309Y1740119*
Y1739337*
X1893195Y1738869*
X1893081Y1738556*
X1892854Y1738244*
X1892513Y1738087*
X1891718*
X1888792Y1736587D02*
X1894792D01*
X1891792Y1733587D02*
Y1739587D01*
X1893292Y1741369D02*
Y1738087D01*
Y1741369D02*
X1894088D01*
X1894429Y1741212*
X1894656Y1740900*
X1894770Y1740587*
X1894883Y1740119*
Y1739337*
X1894770Y1738869*
X1894656Y1738556*
X1894429Y1738244*
X1894088Y1738087*
X1893292*
X1890218Y1737965D02*
G75*
G03Y1735209I-0J-1378D01*
G01X1891792*
G03Y1737965I0J1378*
G01X1890218*
X1887218Y1764730D02*
X1893218D01*
X1890218Y1761730D02*
Y1767730D01*
X1891718Y1769512D02*
Y1766230D01*
Y1769512D02*
X1892513D01*
X1892854Y1769355*
X1893081Y1769043*
X1893195Y1768730*
X1893309Y1768262*
Y1767480*
X1893195Y1767012*
X1893081Y1766699*
X1892854Y1766387*
X1892513Y1766230*
X1891718*
X1888792Y1764730D02*
X1894792D01*
X1891792Y1761730D02*
Y1767730D01*
X1893292Y1769512D02*
Y1766230D01*
Y1769512D02*
X1894088D01*
X1894429Y1769355*
X1894656Y1769043*
X1894770Y1768730*
X1894883Y1768262*
Y1767480*
X1894770Y1767012*
X1894656Y1766699*
X1894429Y1766387*
X1894088Y1766230*
X1893292*
X1890218Y1766108D02*
G03Y1763352I-0J-1378D01*
G01X1891792*
G03Y1766108I0J1378*
G01X1890218*
X1987449Y1800058D02*
X1993449D01*
X1990449Y1797058D02*
Y1803058D01*
X1991949Y1804839D02*
Y1801558D01*
Y1804839D02*
X1992971D01*
X1993312Y1804683*
X1993426Y1804526*
X1993540Y1804214*
Y1803901*
X1993426Y1803589*
X1993312Y1803433*
X1992971Y1803276*
X1991949D02*
X1992971D01*
X1993312Y1803120*
X1993426Y1802964*
X1993540Y1802651*
Y1802183*
X1993426Y1801870*
X1993312Y1801714*
X1992971Y1801558*
X1991949*
X1987449Y1810058D02*
X1993449D01*
X1990449Y1807058D02*
Y1813058D01*
X1991949Y1814839D02*
Y1811558D01*
Y1814839D02*
X1992971D01*
X1993312Y1814683*
X1993426Y1814526*
X1993540Y1814214*
Y1813901*
X1993426Y1813589*
X1993312Y1813433*
X1992971Y1813276*
X1991949D02*
X1992971D01*
X1993312Y1813120*
X1993426Y1812964*
X1993540Y1812651*
Y1812183*
X1993426Y1811870*
X1993312Y1811714*
X1992971Y1811558*
X1991949*
X1983685Y1847058D02*
X1989685D01*
X1986685Y1844058D02*
Y1850058D01*
X1988185Y1851839D02*
Y1848558D01*
Y1851839D02*
X1989208D01*
X1989549Y1851683*
X1989662Y1851526*
X1989776Y1851214*
Y1850901*
X1989662Y1850589*
X1989549Y1850433*
X1989208Y1850276*
X1988185D02*
X1989208D01*
X1989549Y1850120*
X1989662Y1849964*
X1989776Y1849651*
Y1849183*
X1989662Y1848870*
X1989549Y1848714*
X1989208Y1848558*
X1988185*
X1993527Y1847058D02*
X1999527D01*
X1996527Y1844058D02*
Y1850058D01*
X1998027Y1851839D02*
Y1848558D01*
Y1851839D02*
X1999050D01*
X1999391Y1851683*
X1999505Y1851526*
X1999618Y1851214*
Y1850901*
X1999505Y1850589*
X1999391Y1850433*
X1999050Y1850276*
X1998027D02*
X1999050D01*
X1999391Y1850120*
X1999505Y1849964*
X1999618Y1849651*
Y1849183*
X1999505Y1848870*
X1999391Y1848714*
X1999050Y1848558*
X1998027*
X2003370Y1847058D02*
X2009370D01*
X2006370Y1844058D02*
Y1850058D01*
X2007870Y1851839D02*
Y1848558D01*
Y1851839D02*
X2008893D01*
X2009234Y1851683*
X2009347Y1851526*
X2009461Y1851214*
Y1850901*
X2009347Y1850589*
X2009234Y1850433*
X2008893Y1850276*
X2007870D02*
X2008893D01*
X2009234Y1850120*
X2009347Y1849964*
X2009461Y1849651*
Y1849183*
X2009347Y1848870*
X2009234Y1848714*
X2008893Y1848558*
X2007870*
X2013212Y1847058D02*
X2019212D01*
X2016212Y1844058D02*
Y1850058D01*
X2017712Y1851839D02*
Y1848558D01*
Y1851839D02*
X2018735D01*
X2019076Y1851683*
X2019190Y1851526*
X2019303Y1851214*
Y1850901*
X2019190Y1850589*
X2019076Y1850433*
X2018735Y1850276*
X2017712D02*
X2018735D01*
X2019076Y1850120*
X2019190Y1849964*
X2019303Y1849651*
Y1849183*
X2019190Y1848870*
X2019076Y1848714*
X2018735Y1848558*
X2017712*
X2020000Y1749442D02*
X2026000D01*
X2023000Y1746442D02*
Y1752442D01*
X2026205Y1753442D02*
X2026091Y1753755D01*
X2025864Y1754067*
X2025636Y1754224*
X2025182*
X2024955Y1754067*
X2024727Y1753755*
X2024614Y1753442*
X2024500Y1752974*
Y1752192*
X2024614Y1751724*
X2024727Y1751411*
X2024955Y1751099*
X2025182Y1750942*
X2025636*
X2025864Y1751099*
X2026091Y1751411*
X2026205Y1751724*
X2010000Y1759442D02*
X2016000D01*
X2013000Y1756442D02*
Y1762442D01*
X2016205Y1763442D02*
X2016091Y1763755D01*
X2015864Y1764067*
X2015636Y1764224*
X2015182*
X2014955Y1764067*
X2014727Y1763755*
X2014614Y1763442*
X2014500Y1762974*
Y1762192*
X2014614Y1761724*
X2014727Y1761411*
X2014955Y1761099*
X2015182Y1760942*
X2015636*
X2015864Y1761099*
X2016091Y1761411*
X2016205Y1761724*
X2030000Y1759442D02*
X2036000D01*
X2033000Y1756442D02*
Y1762442D01*
X2036205Y1763442D02*
X2036091Y1763755D01*
X2035864Y1764067*
X2035636Y1764224*
X2035182*
X2034955Y1764067*
X2034727Y1763755*
X2034614Y1763442*
X2034500Y1762974*
Y1762192*
X2034614Y1761724*
X2034727Y1761411*
X2034955Y1761099*
X2035182Y1760942*
X2035636*
X2035864Y1761099*
X2036091Y1761411*
X2036205Y1761724*
X2010000Y1739442D02*
X2016000D01*
X2013000Y1736442D02*
Y1742442D01*
X2016205Y1743442D02*
X2016091Y1743755D01*
X2015864Y1744067*
X2015636Y1744224*
X2015182*
X2014955Y1744067*
X2014727Y1743755*
X2014614Y1743442*
X2014500Y1742974*
Y1742192*
X2014614Y1741724*
X2014727Y1741411*
X2014955Y1741099*
X2015182Y1740942*
X2015636*
X2015864Y1741099*
X2016091Y1741411*
X2016205Y1741724*
X2030000Y1739442D02*
X2036000D01*
X2033000Y1736442D02*
Y1742442D01*
X2036205Y1743442D02*
X2036091Y1743755D01*
X2035864Y1744067*
X2035636Y1744224*
X2035182*
X2034955Y1744067*
X2034727Y1743755*
X2034614Y1743442*
X2034500Y1742974*
Y1742192*
X2034614Y1741724*
X2034727Y1741411*
X2034955Y1741099*
X2035182Y1740942*
X2035636*
X2035864Y1741099*
X2036091Y1741411*
X2036205Y1741724*
X1999449Y1800058D02*
X2005449D01*
X2002449Y1797058D02*
Y1803058D01*
X2003949Y1804839D02*
Y1801558D01*
Y1804839D02*
X2004971D01*
X2005312Y1804683*
X2005426Y1804526*
X2005540Y1804214*
Y1803901*
X2005426Y1803589*
X2005312Y1803433*
X2004971Y1803276*
X2003949D02*
X2004971D01*
X2005312Y1803120*
X2005426Y1802964*
X2005540Y1802651*
Y1802183*
X2005426Y1801870*
X2005312Y1801714*
X2004971Y1801558*
X2003949*
X1999449Y1810058D02*
X2005449D01*
X2002449Y1807058D02*
Y1813058D01*
X2003949Y1814839D02*
Y1811558D01*
Y1814839D02*
X2004971D01*
X2005312Y1814683*
X2005426Y1814526*
X2005540Y1814214*
Y1813901*
X2005426Y1813589*
X2005312Y1813433*
X2004971Y1813276*
X2003949D02*
X2004971D01*
X2005312Y1813120*
X2005426Y1812964*
X2005540Y1812651*
Y1812183*
X2005426Y1811870*
X2005312Y1811714*
X2004971Y1811558*
X2003949*
X1999449Y1820058D02*
X2005449D01*
X2002449Y1817058D02*
Y1823058D01*
X2003949Y1824839D02*
Y1821558D01*
Y1824839D02*
X2004971D01*
X2005312Y1824683*
X2005426Y1824526*
X2005540Y1824214*
Y1823901*
X2005426Y1823589*
X2005312Y1823433*
X2004971Y1823276*
X2003949D02*
X2004971D01*
X2005312Y1823120*
X2005426Y1822964*
X2005540Y1822651*
Y1822183*
X2005426Y1821870*
X2005312Y1821714*
X2004971Y1821558*
X2003949*
X1999449Y1830058D02*
X2005449D01*
X2002449Y1827058D02*
Y1833058D01*
X2003949Y1834839D02*
Y1831558D01*
Y1834839D02*
X2004971D01*
X2005312Y1834683*
X2005426Y1834526*
X2005540Y1834214*
Y1833901*
X2005426Y1833589*
X2005312Y1833433*
X2004971Y1833276*
X2003949D02*
X2004971D01*
X2005312Y1833120*
X2005426Y1832964*
X2005540Y1832651*
Y1832183*
X2005426Y1831870*
X2005312Y1831714*
X2004971Y1831558*
X2003949*
X1898733Y1760189D02*
X1904733D01*
X1901733Y1757189D02*
Y1763189D01*
X1903233Y1764971D02*
Y1761689D01*
Y1764971D02*
X1904710D01*
X1903233Y1763408D02*
X1904142D01*
X1903233Y1761689D02*
X1904710D01*
X1898733Y1741095D02*
X1904733D01*
X1901733Y1738095D02*
Y1744095D01*
X1903233Y1745876D02*
Y1742595D01*
Y1745876D02*
X1904710D01*
X1903233Y1744314D02*
X1904142D01*
X1903233Y1742595D02*
X1904710D01*
X1943449Y1847058D02*
X1949449D01*
X1946449Y1844058D02*
Y1850058D01*
X1947949Y1851839D02*
Y1848558D01*
Y1851839D02*
X1948971D01*
X1949312Y1851683*
X1949426Y1851526*
X1949540Y1851214*
Y1850901*
X1949426Y1850589*
X1949312Y1850433*
X1948971Y1850276*
X1947949D02*
X1948971D01*
X1949312Y1850120*
X1949426Y1849964*
X1949540Y1849651*
Y1849183*
X1949426Y1848870*
X1949312Y1848714*
X1948971Y1848558*
X1947949*
X1953449Y1847058D02*
X1959449D01*
X1956449Y1844058D02*
Y1850058D01*
X1957949Y1851839D02*
Y1848558D01*
Y1851839D02*
X1958971D01*
X1959312Y1851683*
X1959426Y1851526*
X1959540Y1851214*
Y1850901*
X1959426Y1850589*
X1959312Y1850433*
X1958971Y1850276*
X1957949D02*
X1958971D01*
X1959312Y1850120*
X1959426Y1849964*
X1959540Y1849651*
Y1849183*
X1959426Y1848870*
X1959312Y1848714*
X1958971Y1848558*
X1957949*
X1963449Y1847058D02*
X1969449D01*
X1966449Y1844058D02*
Y1850058D01*
X1967949Y1851839D02*
Y1848558D01*
Y1851839D02*
X1968971D01*
X1969312Y1851683*
X1969426Y1851526*
X1969540Y1851214*
Y1850901*
X1969426Y1850589*
X1969312Y1850433*
X1968971Y1850276*
X1967949D02*
X1968971D01*
X1969312Y1850120*
X1969426Y1849964*
X1969540Y1849651*
Y1849183*
X1969426Y1848870*
X1969312Y1848714*
X1968971Y1848558*
X1967949*
X1973449Y1847058D02*
X1979449D01*
X1976449Y1844058D02*
Y1850058D01*
X1977949Y1851839D02*
Y1848558D01*
Y1851839D02*
X1978971D01*
X1979312Y1851683*
X1979426Y1851526*
X1979540Y1851214*
Y1850901*
X1979426Y1850589*
X1979312Y1850433*
X1978971Y1850276*
X1977949D02*
X1978971D01*
X1979312Y1850120*
X1979426Y1849964*
X1979540Y1849651*
Y1849183*
X1979426Y1848870*
X1979312Y1848714*
X1978971Y1848558*
X1977949*
X1943449Y1727377D02*
X1949449D01*
X1946449Y1724377D02*
Y1730377D01*
X1947949Y1732159D02*
Y1728877D01*
Y1732159D02*
X1948971D01*
X1949312Y1732002*
X1949426Y1731846*
X1949540Y1731534*
Y1731221*
X1949426Y1730909*
X1949312Y1730752*
X1948971Y1730596*
X1947949D02*
X1948971D01*
X1949312Y1730440*
X1949426Y1730284*
X1949540Y1729971*
Y1729502*
X1949426Y1729190*
X1949312Y1729034*
X1948971Y1728877*
X1947949*
X1953449Y1727377D02*
X1959449D01*
X1956449Y1724377D02*
Y1730377D01*
X1957949Y1732159D02*
Y1728877D01*
Y1732159D02*
X1958971D01*
X1959312Y1732002*
X1959426Y1731846*
X1959540Y1731534*
Y1731221*
X1959426Y1730909*
X1959312Y1730752*
X1958971Y1730596*
X1957949D02*
X1958971D01*
X1959312Y1730440*
X1959426Y1730284*
X1959540Y1729971*
Y1729502*
X1959426Y1729190*
X1959312Y1729034*
X1958971Y1728877*
X1957949*
X1963449Y1727377D02*
X1969449D01*
X1966449Y1724377D02*
Y1730377D01*
X1967949Y1732159D02*
Y1728877D01*
Y1732159D02*
X1968971D01*
X1969312Y1732002*
X1969426Y1731846*
X1969540Y1731534*
Y1731221*
X1969426Y1730909*
X1969312Y1730752*
X1968971Y1730596*
X1967949D02*
X1968971D01*
X1969312Y1730440*
X1969426Y1730284*
X1969540Y1729971*
Y1729502*
X1969426Y1729190*
X1969312Y1729034*
X1968971Y1728877*
X1967949*
X1973449Y1727377D02*
X1979449D01*
X1976449Y1724377D02*
Y1730377D01*
X1977949Y1732159D02*
Y1728877D01*
Y1732159D02*
X1978971D01*
X1979312Y1732002*
X1979426Y1731846*
X1979540Y1731534*
Y1731221*
X1979426Y1730909*
X1979312Y1730752*
X1978971Y1730596*
X1977949D02*
X1978971D01*
X1979312Y1730440*
X1979426Y1730284*
X1979540Y1729971*
Y1729502*
X1979426Y1729190*
X1979312Y1729034*
X1978971Y1728877*
X1977949*
X1983449Y1727377D02*
X1989449D01*
X1986449Y1724377D02*
Y1730377D01*
X1987949Y1732159D02*
Y1728877D01*
Y1732159D02*
X1988971D01*
X1989312Y1732002*
X1989426Y1731846*
X1989540Y1731534*
Y1731221*
X1989426Y1730909*
X1989312Y1730752*
X1988971Y1730596*
X1987949D02*
X1988971D01*
X1989312Y1730440*
X1989426Y1730284*
X1989540Y1729971*
Y1729502*
X1989426Y1729190*
X1989312Y1729034*
X1988971Y1728877*
X1987949*
X1993449Y1727377D02*
X1999449D01*
X1996449Y1724377D02*
Y1730377D01*
X1997949Y1732159D02*
Y1728877D01*
Y1732159D02*
X1998971D01*
X1999312Y1732002*
X1999426Y1731846*
X1999540Y1731534*
Y1731221*
X1999426Y1730909*
X1999312Y1730752*
X1998971Y1730596*
X1997949D02*
X1998971D01*
X1999312Y1730440*
X1999426Y1730284*
X1999540Y1729971*
Y1729502*
X1999426Y1729190*
X1999312Y1729034*
X1998971Y1728877*
X1997949*
X2003449Y1727377D02*
X2009449D01*
X2006449Y1724377D02*
Y1730377D01*
X2007949Y1732159D02*
Y1728877D01*
Y1732159D02*
X2008971D01*
X2009312Y1732002*
X2009426Y1731846*
X2009540Y1731534*
Y1731221*
X2009426Y1730909*
X2009312Y1730752*
X2008971Y1730596*
X2007949D02*
X2008971D01*
X2009312Y1730440*
X2009426Y1730284*
X2009540Y1729971*
Y1729502*
X2009426Y1729190*
X2009312Y1729034*
X2008971Y1728877*
X2007949*
X2013449Y1727377D02*
X2019449D01*
X2016449Y1724377D02*
Y1730377D01*
X2017949Y1732159D02*
Y1728877D01*
Y1732159D02*
X2018971D01*
X2019312Y1732002*
X2019426Y1731846*
X2019540Y1731534*
Y1731221*
X2019426Y1730909*
X2019312Y1730752*
X2018971Y1730596*
X2017949D02*
X2018971D01*
X2019312Y1730440*
X2019426Y1730284*
X2019540Y1729971*
Y1729502*
X2019426Y1729190*
X2019312Y1729034*
X2018971Y1728877*
X2017949*
X1903449Y1717377D02*
X1909449D01*
X1906449Y1714377D02*
Y1720377D01*
X1907949Y1722159D02*
Y1718877D01*
Y1722159D02*
X1908971D01*
X1909312Y1722002*
X1909426Y1721846*
X1909540Y1721534*
Y1721221*
X1909426Y1720909*
X1909312Y1720752*
X1908971Y1720596*
X1907949D02*
X1908971D01*
X1909312Y1720440*
X1909426Y1720284*
X1909540Y1719971*
Y1719502*
X1909426Y1719190*
X1909312Y1719034*
X1908971Y1718877*
X1907949*
X1913449Y1717377D02*
X1919449D01*
X1916449Y1714377D02*
Y1720377D01*
X1917949Y1722159D02*
Y1718877D01*
Y1722159D02*
X1918971D01*
X1919312Y1722002*
X1919426Y1721846*
X1919540Y1721534*
Y1721221*
X1919426Y1720909*
X1919312Y1720752*
X1918971Y1720596*
X1917949D02*
X1918971D01*
X1919312Y1720440*
X1919426Y1720284*
X1919540Y1719971*
Y1719502*
X1919426Y1719190*
X1919312Y1719034*
X1918971Y1718877*
X1917949*
X1923449Y1717377D02*
X1929449D01*
X1926449Y1714377D02*
Y1720377D01*
X1927949Y1722159D02*
Y1718877D01*
Y1722159D02*
X1928971D01*
X1929312Y1722002*
X1929426Y1721846*
X1929540Y1721534*
Y1721221*
X1929426Y1720909*
X1929312Y1720752*
X1928971Y1720596*
X1927949D02*
X1928971D01*
X1929312Y1720440*
X1929426Y1720284*
X1929540Y1719971*
Y1719502*
X1929426Y1719190*
X1929312Y1719034*
X1928971Y1718877*
X1927949*
X1933449Y1717377D02*
X1939449D01*
X1936449Y1714377D02*
Y1720377D01*
X1937949Y1722159D02*
Y1718877D01*
Y1722159D02*
X1938971D01*
X1939312Y1722002*
X1939426Y1721846*
X1939540Y1721534*
Y1721221*
X1939426Y1720909*
X1939312Y1720752*
X1938971Y1720596*
X1937949D02*
X1938971D01*
X1939312Y1720440*
X1939426Y1720284*
X1939540Y1719971*
Y1719502*
X1939426Y1719190*
X1939312Y1719034*
X1938971Y1718877*
X1937949*
X1943449Y1717377D02*
X1949449D01*
X1946449Y1714377D02*
Y1720377D01*
X1947949Y1722159D02*
Y1718877D01*
Y1722159D02*
X1948971D01*
X1949312Y1722002*
X1949426Y1721846*
X1949540Y1721534*
Y1721221*
X1949426Y1720909*
X1949312Y1720752*
X1948971Y1720596*
X1947949D02*
X1948971D01*
X1949312Y1720440*
X1949426Y1720284*
X1949540Y1719971*
Y1719502*
X1949426Y1719190*
X1949312Y1719034*
X1948971Y1718877*
X1947949*
X1953449Y1717377D02*
X1959449D01*
X1956449Y1714377D02*
Y1720377D01*
X1957949Y1722159D02*
Y1718877D01*
Y1722159D02*
X1958971D01*
X1959312Y1722002*
X1959426Y1721846*
X1959540Y1721534*
Y1721221*
X1959426Y1720909*
X1959312Y1720752*
X1958971Y1720596*
X1957949D02*
X1958971D01*
X1959312Y1720440*
X1959426Y1720284*
X1959540Y1719971*
Y1719502*
X1959426Y1719190*
X1959312Y1719034*
X1958971Y1718877*
X1957949*
X1963449Y1717377D02*
X1969449D01*
X1966449Y1714377D02*
Y1720377D01*
X1967949Y1722159D02*
Y1718877D01*
Y1722159D02*
X1968971D01*
X1969312Y1722002*
X1969426Y1721846*
X1969540Y1721534*
Y1721221*
X1969426Y1720909*
X1969312Y1720752*
X1968971Y1720596*
X1967949D02*
X1968971D01*
X1969312Y1720440*
X1969426Y1720284*
X1969540Y1719971*
Y1719502*
X1969426Y1719190*
X1969312Y1719034*
X1968971Y1718877*
X1967949*
X1973449Y1717377D02*
X1979449D01*
X1976449Y1714377D02*
Y1720377D01*
X1977949Y1722159D02*
Y1718877D01*
Y1722159D02*
X1978971D01*
X1979312Y1722002*
X1979426Y1721846*
X1979540Y1721534*
Y1721221*
X1979426Y1720909*
X1979312Y1720752*
X1978971Y1720596*
X1977949D02*
X1978971D01*
X1979312Y1720440*
X1979426Y1720284*
X1979540Y1719971*
Y1719502*
X1979426Y1719190*
X1979312Y1719034*
X1978971Y1718877*
X1977949*
X1983449Y1717377D02*
X1989449D01*
X1986449Y1714377D02*
Y1720377D01*
X1987949Y1722159D02*
Y1718877D01*
Y1722159D02*
X1988971D01*
X1989312Y1722002*
X1989426Y1721846*
X1989540Y1721534*
Y1721221*
X1989426Y1720909*
X1989312Y1720752*
X1988971Y1720596*
X1987949D02*
X1988971D01*
X1989312Y1720440*
X1989426Y1720284*
X1989540Y1719971*
Y1719502*
X1989426Y1719190*
X1989312Y1719034*
X1988971Y1718877*
X1987949*
X2013449Y1717377D02*
X2019449D01*
X2016449Y1714377D02*
Y1720377D01*
X2017949Y1722159D02*
Y1718877D01*
Y1722159D02*
X2018971D01*
X2019312Y1722002*
X2019426Y1721846*
X2019540Y1721534*
Y1721221*
X2019426Y1720909*
X2019312Y1720752*
X2018971Y1720596*
X2017949D02*
X2018971D01*
X2019312Y1720440*
X2019426Y1720284*
X2019540Y1719971*
Y1719502*
X2019426Y1719190*
X2019312Y1719034*
X2018971Y1718877*
X2017949*
X2003449Y1717377D02*
X2009449D01*
X2006449Y1714377D02*
Y1720377D01*
X2007949Y1722159D02*
Y1718877D01*
Y1722159D02*
X2008971D01*
X2009312Y1722002*
X2009426Y1721846*
X2009540Y1721534*
Y1721221*
X2009426Y1720909*
X2009312Y1720752*
X2008971Y1720596*
X2007949D02*
X2008971D01*
X2009312Y1720440*
X2009426Y1720284*
X2009540Y1719971*
Y1719502*
X2009426Y1719190*
X2009312Y1719034*
X2008971Y1718877*
X2007949*
X1993449Y1717377D02*
X1999449D01*
X1996449Y1714377D02*
Y1720377D01*
X1997949Y1722159D02*
Y1718877D01*
Y1722159D02*
X1998971D01*
X1999312Y1722002*
X1999426Y1721846*
X1999540Y1721534*
Y1721221*
X1999426Y1720909*
X1999312Y1720752*
X1998971Y1720596*
X1997949D02*
X1998971D01*
X1999312Y1720440*
X1999426Y1720284*
X1999540Y1719971*
Y1719502*
X1999426Y1719190*
X1999312Y1719034*
X1998971Y1718877*
X1997949*
X1903449Y1855058D02*
X1909449D01*
X1906449Y1852058D02*
Y1858058D01*
X1907949Y1859839D02*
Y1856558D01*
Y1859839D02*
X1909426D01*
X1907949Y1858276D02*
X1908858D01*
X1903449Y1865058D02*
X1909449D01*
X1906449Y1862058D02*
Y1868058D01*
X1907949Y1869839D02*
Y1866558D01*
Y1869839D02*
X1909426D01*
X1907949Y1868276D02*
X1908858D01*
X1913449Y1855058D02*
X1919449D01*
X1916449Y1852058D02*
Y1858058D01*
X1917949Y1859839D02*
Y1856558D01*
Y1859839D02*
X1919426D01*
X1917949Y1858276D02*
X1918858D01*
X1913449Y1865058D02*
X1919449D01*
X1916449Y1862058D02*
Y1868058D01*
X1917949Y1869839D02*
Y1866558D01*
Y1869839D02*
X1919426D01*
X1917949Y1868276D02*
X1918858D01*
X1923449Y1855058D02*
X1929449D01*
X1926449Y1852058D02*
Y1858058D01*
X1927949Y1859839D02*
Y1856558D01*
Y1859839D02*
X1929426D01*
X1927949Y1858276D02*
X1928858D01*
X1923449Y1865058D02*
X1929449D01*
X1926449Y1862058D02*
Y1868058D01*
X1927949Y1869839D02*
Y1866558D01*
Y1869839D02*
X1929426D01*
X1927949Y1868276D02*
X1928858D01*
X1933449Y1855058D02*
X1939449D01*
X1936449Y1852058D02*
Y1858058D01*
X1937949Y1859839D02*
Y1856558D01*
Y1859839D02*
X1939426D01*
X1937949Y1858276D02*
X1938858D01*
X1933449Y1865058D02*
X1939449D01*
X1936449Y1862058D02*
Y1868058D01*
X1937949Y1869839D02*
Y1866558D01*
Y1869839D02*
X1939426D01*
X1937949Y1868276D02*
X1938858D01*
X1943449Y1855058D02*
X1949449D01*
X1946449Y1852058D02*
Y1858058D01*
X1947949Y1859839D02*
Y1856558D01*
Y1859839D02*
X1949426D01*
X1947949Y1858276D02*
X1948858D01*
X1943449Y1865058D02*
X1949449D01*
X1946449Y1862058D02*
Y1868058D01*
X1947949Y1869839D02*
Y1866558D01*
Y1869839D02*
X1949426D01*
X1947949Y1868276D02*
X1948858D01*
X1953449Y1855058D02*
X1959449D01*
X1956449Y1852058D02*
Y1858058D01*
X1957949Y1859839D02*
Y1856558D01*
Y1859839D02*
X1959426D01*
X1957949Y1858276D02*
X1958858D01*
X1953449Y1865058D02*
X1959449D01*
X1956449Y1862058D02*
Y1868058D01*
X1957949Y1869839D02*
Y1866558D01*
Y1869839D02*
X1959426D01*
X1957949Y1868276D02*
X1958858D01*
X1963449Y1855058D02*
X1969449D01*
X1966449Y1852058D02*
Y1858058D01*
X1967949Y1859839D02*
Y1856558D01*
Y1859839D02*
X1969426D01*
X1967949Y1858276D02*
X1968858D01*
X1963449Y1865058D02*
X1969449D01*
X1966449Y1862058D02*
Y1868058D01*
X1967949Y1869839D02*
Y1866558D01*
Y1869839D02*
X1969426D01*
X1967949Y1868276D02*
X1968858D01*
X1973449Y1855058D02*
X1979449D01*
X1976449Y1852058D02*
Y1858058D01*
X1977949Y1859839D02*
Y1856558D01*
Y1859839D02*
X1979426D01*
X1977949Y1858276D02*
X1978858D01*
X1973449Y1865058D02*
X1979449D01*
X1976449Y1862058D02*
Y1868058D01*
X1977949Y1869839D02*
Y1866558D01*
Y1869839D02*
X1979426D01*
X1977949Y1868276D02*
X1978858D01*
X1983449Y1855058D02*
X1989449D01*
X1986449Y1852058D02*
Y1858058D01*
X1987949Y1859839D02*
Y1856558D01*
Y1859839D02*
X1989426D01*
X1987949Y1858276D02*
X1988858D01*
X1983449Y1865058D02*
X1989449D01*
X1986449Y1862058D02*
Y1868058D01*
X1987949Y1869839D02*
Y1866558D01*
Y1869839D02*
X1989426D01*
X1987949Y1868276D02*
X1988858D01*
X1993449Y1855058D02*
X1999449D01*
X1996449Y1852058D02*
Y1858058D01*
X1997949Y1859839D02*
Y1856558D01*
Y1859839D02*
X1999426D01*
X1997949Y1858276D02*
X1998858D01*
X1993449Y1865058D02*
X1999449D01*
X1996449Y1862058D02*
Y1868058D01*
X1997949Y1869839D02*
Y1866558D01*
Y1869839D02*
X1999426D01*
X1997949Y1868276D02*
X1998858D01*
X2003449Y1855058D02*
X2009449D01*
X2006449Y1852058D02*
Y1858058D01*
X2007949Y1859839D02*
Y1856558D01*
Y1859839D02*
X2009426D01*
X2007949Y1858276D02*
X2008858D01*
X2003449Y1865058D02*
X2009449D01*
X2006449Y1862058D02*
Y1868058D01*
X2007949Y1869839D02*
Y1866558D01*
Y1869839D02*
X2009426D01*
X2007949Y1868276D02*
X2008858D01*
X2013449Y1855058D02*
X2019449D01*
X2016449Y1852058D02*
Y1858058D01*
X2017949Y1859839D02*
Y1856558D01*
Y1859839D02*
X2019426D01*
X2017949Y1858276D02*
X2018858D01*
X2013449Y1865058D02*
X2019449D01*
X2016449Y1862058D02*
Y1868058D01*
X2017949Y1869839D02*
Y1866558D01*
Y1869839D02*
X2019426D01*
X2017949Y1868276D02*
X2018858D01*
X1903800Y1729142D02*
X1909800D01*
X1906800Y1726142D02*
Y1732142D01*
X1910005Y1733142D02*
X1909891Y1733455D01*
X1909664Y1733767*
X1909436Y1733924*
X1908982*
X1908755Y1733767*
X1908527Y1733455*
X1908414Y1733142*
X1908300Y1732674*
Y1731892*
X1908414Y1731424*
X1908527Y1731111*
X1908755Y1730799*
X1908982Y1730642*
X1909436*
X1909664Y1730799*
X1909891Y1731111*
X1910005Y1731424*
Y1731892*
X1909436D02*
X1910005D01*
X1909800Y1737142D02*
X1915800D01*
X1912800Y1734142D02*
Y1740142D01*
X1916005Y1741142D02*
X1915891Y1741455D01*
X1915664Y1741767*
X1915436Y1741924*
X1914982*
X1914755Y1741767*
X1914527Y1741455*
X1914414Y1741142*
X1914300Y1740674*
Y1739892*
X1914414Y1739424*
X1914527Y1739111*
X1914755Y1738799*
X1914982Y1738642*
X1915436*
X1915664Y1738799*
X1915891Y1739111*
X1916005Y1739424*
Y1739892*
X1915436D02*
X1916005D01*
X1946100Y1740542D02*
X1952100D01*
X1949100Y1737542D02*
Y1743542D01*
X1952305Y1744542D02*
X1952191Y1744855D01*
X1951964Y1745167*
X1951736Y1745324*
X1951282*
X1951055Y1745167*
X1950827Y1744855*
X1950714Y1744542*
X1950600Y1744074*
Y1743292*
X1950714Y1742824*
X1950827Y1742511*
X1951055Y1742199*
X1951282Y1742042*
X1951736*
X1951964Y1742199*
X1952191Y1742511*
X1952305Y1742824*
Y1743292*
X1951736D02*
X1952305D01*
X1941100Y1740542D02*
X1947100D01*
X1944100Y1737542D02*
Y1743542D01*
X1947305Y1744542D02*
X1947191Y1744855D01*
X1946964Y1745167*
X1946736Y1745324*
X1946282*
X1946055Y1745167*
X1945827Y1744855*
X1945714Y1744542*
X1945600Y1744074*
Y1743292*
X1945714Y1742824*
X1945827Y1742511*
X1946055Y1742199*
X1946282Y1742042*
X1946736*
X1946964Y1742199*
X1947191Y1742511*
X1947305Y1742824*
Y1743292*
X1946736D02*
X1947305D01*
X1956100Y1740542D02*
X1962100D01*
X1959100Y1737542D02*
Y1743542D01*
X1962305Y1744542D02*
X1962191Y1744855D01*
X1961964Y1745167*
X1961736Y1745324*
X1961282*
X1961055Y1745167*
X1960827Y1744855*
X1960714Y1744542*
X1960600Y1744074*
Y1743292*
X1960714Y1742824*
X1960827Y1742511*
X1961055Y1742199*
X1961282Y1742042*
X1961736*
X1961964Y1742199*
X1962191Y1742511*
X1962305Y1742824*
Y1743292*
X1961736D02*
X1962305D01*
X1951100Y1740542D02*
X1957100D01*
X1954100Y1737542D02*
Y1743542D01*
X1957305Y1744542D02*
X1957191Y1744855D01*
X1956964Y1745167*
X1956736Y1745324*
X1956282*
X1956055Y1745167*
X1955827Y1744855*
X1955714Y1744542*
X1955600Y1744074*
Y1743292*
X1955714Y1742824*
X1955827Y1742511*
X1956055Y1742199*
X1956282Y1742042*
X1956736*
X1956964Y1742199*
X1957191Y1742511*
X1957305Y1742824*
Y1743292*
X1956736D02*
X1957305D01*
X1990357Y1740642D02*
X1996357D01*
X1993357Y1737642D02*
Y1743642D01*
X1994857Y1745424D02*
Y1742142D01*
X1996448Y1745424D02*
Y1742142D01*
X1994857Y1743861D02*
X1996448D01*
X2020000Y1737442D02*
X2026000D01*
X2023000Y1734442D02*
Y1740442D01*
X2026205Y1741442D02*
X2026091Y1741755D01*
X2025864Y1742067*
X2025636Y1742224*
X2025182*
X2024955Y1742067*
X2024727Y1741755*
X2024614Y1741442*
X2024500Y1740974*
Y1740192*
X2024614Y1739724*
X2024727Y1739411*
X2024955Y1739099*
X2025182Y1738942*
X2025636*
X2025864Y1739099*
X2026091Y1739411*
X2026205Y1739724*
Y1740192*
X2025636D02*
X2026205D01*
X1997400Y1739642D02*
X2003400D01*
X2000400Y1736642D02*
Y1742642D01*
X2003605Y1743642D02*
X2003491Y1743955D01*
X2003264Y1744267*
X2003036Y1744424*
X2002582*
X2002355Y1744267*
X2002127Y1743955*
X2002014Y1743642*
X2001900Y1743174*
Y1742392*
X2002014Y1741924*
X2002127Y1741611*
X2002355Y1741299*
X2002582Y1741142*
X2003036*
X2003264Y1741299*
X2003491Y1741611*
X2003605Y1741924*
Y1742392*
X2003036D02*
X2003605D01*
X1909800Y1771690D02*
X1915800D01*
X1912800Y1768690D02*
Y1774690D01*
X1916005Y1775690D02*
X1915891Y1776002D01*
X1915664Y1776315*
X1915436Y1776471*
X1914982*
X1914755Y1776315*
X1914527Y1776002*
X1914414Y1775690*
X1914300Y1775221*
Y1774440*
X1914414Y1773971*
X1914527Y1773658*
X1914755Y1773346*
X1914982Y1773190*
X1915436*
X1915664Y1773346*
X1915891Y1773658*
X1916005Y1773971*
Y1774440*
X1915436D02*
X1916005D01*
X1901600Y1801942D02*
X1907600D01*
X1904600Y1798942D02*
Y1804942D01*
X1907805Y1805942D02*
X1907691Y1806255D01*
X1907464Y1806567*
X1907236Y1806724*
X1906782*
X1906555Y1806567*
X1906327Y1806255*
X1906214Y1805942*
X1906100Y1805474*
Y1804692*
X1906214Y1804224*
X1906327Y1803911*
X1906555Y1803599*
X1906782Y1803442*
X1907236*
X1907464Y1803599*
X1907691Y1803911*
X1907805Y1804224*
Y1804692*
X1907236D02*
X1907805D01*
X1903949Y1758558D02*
X1909949D01*
X1906949Y1755558D02*
Y1761558D01*
X1908449Y1763339D02*
Y1760058D01*
X1910040Y1763339D02*
Y1760058D01*
X1908449Y1761776D02*
X1910040D01*
X1919600Y1819595D02*
X1925600D01*
X1922600Y1816595D02*
Y1822595D01*
X1925805Y1823595D02*
X1925691Y1823908D01*
X1925464Y1824220*
X1925236Y1824376*
X1924782*
X1924555Y1824220*
X1924327Y1823908*
X1924214Y1823595*
X1924100Y1823126*
Y1822345*
X1924214Y1821876*
X1924327Y1821564*
X1924555Y1821251*
X1924782Y1821095*
X1925236*
X1925464Y1821251*
X1925691Y1821564*
X1925805Y1821876*
Y1822345*
X1925236D02*
X1925805D01*
X1959916Y1801910D02*
X1965916D01*
X1962916Y1798910D02*
Y1804910D01*
X1966120Y1805910D02*
X1966007Y1806223D01*
X1965779Y1806535*
X1965552Y1806691*
X1965098*
X1964870Y1806535*
X1964643Y1806223*
X1964529Y1805910*
X1964416Y1805441*
Y1804660*
X1964529Y1804191*
X1964643Y1803879*
X1964870Y1803566*
X1965098Y1803410*
X1965552*
X1965779Y1803566*
X1966007Y1803879*
X1966120Y1804191*
Y1804660*
X1965552D02*
X1966120D01*
X1965916Y1809910D02*
X1971916D01*
X1968916Y1806910D02*
Y1812910D01*
X1972120Y1813910D02*
X1972007Y1814223D01*
X1971779Y1814535*
X1971552Y1814691*
X1971098*
X1970870Y1814535*
X1970643Y1814223*
X1970529Y1813910*
X1970416Y1813441*
Y1812660*
X1970529Y1812191*
X1970643Y1811879*
X1970870Y1811566*
X1971098Y1811410*
X1971552*
X1971779Y1811566*
X1972007Y1811879*
X1972120Y1812191*
Y1812660*
X1971552D02*
X1972120D01*
X1966416Y1823110D02*
X1972416D01*
X1969416Y1820110D02*
Y1826110D01*
X1972620Y1827110D02*
X1972507Y1827423D01*
X1972279Y1827735*
X1972052Y1827891*
X1971598*
X1971370Y1827735*
X1971143Y1827423*
X1971029Y1827110*
X1970916Y1826641*
Y1825860*
X1971029Y1825391*
X1971143Y1825079*
X1971370Y1824766*
X1971598Y1824610*
X1972052*
X1972279Y1824766*
X1972507Y1825079*
X1972620Y1825391*
Y1825860*
X1972052D02*
X1972620D01*
X1948300Y1794142D02*
X1954300D01*
X1951300Y1791142D02*
Y1797142D01*
X1954505Y1798142D02*
X1954391Y1798455D01*
X1954164Y1798767*
X1953936Y1798924*
X1953482*
X1953255Y1798767*
X1953027Y1798455*
X1952914Y1798142*
X1952800Y1797674*
Y1796892*
X1952914Y1796424*
X1953027Y1796111*
X1953255Y1795799*
X1953482Y1795642*
X1953936*
X1954164Y1795799*
X1954391Y1796111*
X1954505Y1796424*
Y1796892*
X1953936D02*
X1954505D01*
X1931573Y1803910D02*
X1937573D01*
X1934573Y1800910D02*
Y1806910D01*
X1937778Y1807910D02*
X1937664Y1808223D01*
X1937437Y1808535*
X1937210Y1808691*
X1936755*
X1936528Y1808535*
X1936300Y1808223*
X1936187Y1807910*
X1936073Y1807441*
Y1806660*
X1936187Y1806191*
X1936300Y1805879*
X1936528Y1805566*
X1936755Y1805410*
X1937210*
X1937437Y1805566*
X1937664Y1805879*
X1937778Y1806191*
Y1806660*
X1937210D02*
X1937778D01*
X1926100Y1798042D02*
X1932100D01*
X1929100Y1795042D02*
Y1801042D01*
X1932305Y1802042D02*
X1932191Y1802355D01*
X1931964Y1802667*
X1931736Y1802824*
X1931282*
X1931055Y1802667*
X1930827Y1802355*
X1930714Y1802042*
X1930600Y1801574*
Y1800792*
X1930714Y1800324*
X1930827Y1800011*
X1931055Y1799699*
X1931282Y1799542*
X1931736*
X1931964Y1799699*
X1932191Y1800011*
X1932305Y1800324*
Y1800792*
X1931736D02*
X1932305D01*
X1951949Y1823058D02*
X1957949D01*
X1954949Y1820058D02*
Y1826058D01*
X1958153Y1827058D02*
X1958040Y1827370D01*
X1957812Y1827683*
X1957585Y1827839*
X1957131*
X1956903Y1827683*
X1956676Y1827370*
X1956562Y1827058*
X1956449Y1826589*
Y1825808*
X1956562Y1825339*
X1956676Y1825026*
X1956903Y1824714*
X1957131Y1824558*
X1957585*
X1957812Y1824714*
X1958040Y1825026*
X1958153Y1825339*
Y1825808*
X1957585D02*
X1958153D01*
X1933600Y1824042D02*
X1939600D01*
X1936600Y1821042D02*
Y1827042D01*
X1939805Y1828042D02*
X1939691Y1828355D01*
X1939464Y1828667*
X1939236Y1828824*
X1938782*
X1938555Y1828667*
X1938327Y1828355*
X1938214Y1828042*
X1938100Y1827574*
Y1826792*
X1938214Y1826324*
X1938327Y1826011*
X1938555Y1825699*
X1938782Y1825542*
X1939236*
X1939464Y1825699*
X1939691Y1826011*
X1939805Y1826324*
Y1826792*
X1939236D02*
X1939805D01*
X1948416Y1810910D02*
X1954416D01*
X1951416Y1807910D02*
Y1813910D01*
X1954620Y1814910D02*
X1954507Y1815223D01*
X1954279Y1815535*
X1954052Y1815691*
X1953598*
X1953370Y1815535*
X1953143Y1815223*
X1953029Y1814910*
X1952916Y1814441*
Y1813660*
X1953029Y1813191*
X1953143Y1812879*
X1953370Y1812566*
X1953598Y1812410*
X1954052*
X1954279Y1812566*
X1954507Y1812879*
X1954620Y1813191*
Y1813660*
X1954052D02*
X1954620D01*
X1941100Y1815542D02*
X1947100D01*
X1944100Y1812542D02*
Y1818542D01*
X1947305Y1819542D02*
X1947191Y1819855D01*
X1946964Y1820167*
X1946736Y1820324*
X1946282*
X1946055Y1820167*
X1945827Y1819855*
X1945714Y1819542*
X1945600Y1819074*
Y1818292*
X1945714Y1817824*
X1945827Y1817511*
X1946055Y1817199*
X1946282Y1817042*
X1946736*
X1946964Y1817199*
X1947191Y1817511*
X1947305Y1817824*
Y1818292*
X1946736D02*
X1947305D01*
X1938600Y1824042D02*
X1944600D01*
X1941600Y1821042D02*
Y1827042D01*
X1944805Y1828042D02*
X1944691Y1828355D01*
X1944464Y1828667*
X1944236Y1828824*
X1943782*
X1943555Y1828667*
X1943327Y1828355*
X1943214Y1828042*
X1943100Y1827574*
Y1826792*
X1943214Y1826324*
X1943327Y1826011*
X1943555Y1825699*
X1943782Y1825542*
X1944236*
X1944464Y1825699*
X1944691Y1826011*
X1944805Y1826324*
Y1826792*
X1944236D02*
X1944805D01*
X1952916Y1813910D02*
X1958916D01*
X1955916Y1810910D02*
Y1816910D01*
X1959120Y1817910D02*
X1959007Y1818223D01*
X1958779Y1818535*
X1958552Y1818691*
X1958098*
X1957870Y1818535*
X1957643Y1818223*
X1957529Y1817910*
X1957416Y1817441*
Y1816660*
X1957529Y1816191*
X1957643Y1815879*
X1957870Y1815566*
X1958098Y1815410*
X1958552*
X1958779Y1815566*
X1959007Y1815879*
X1959120Y1816191*
Y1816660*
X1958552D02*
X1959120D01*
X1921100Y1750542D02*
X1927100D01*
X1924100Y1747542D02*
Y1753542D01*
X1927305Y1754542D02*
X1927191Y1754855D01*
X1926964Y1755167*
X1926736Y1755324*
X1926282*
X1926055Y1755167*
X1925827Y1754855*
X1925714Y1754542*
X1925600Y1754074*
Y1753292*
X1925714Y1752824*
X1925827Y1752511*
X1926055Y1752199*
X1926282Y1752042*
X1926736*
X1926964Y1752199*
X1927191Y1752511*
X1927305Y1752824*
Y1753292*
X1926736D02*
X1927305D01*
X1931100Y1788042D02*
X1937100D01*
X1934100Y1785042D02*
Y1791042D01*
X1937305Y1792042D02*
X1937191Y1792355D01*
X1936964Y1792667*
X1936736Y1792824*
X1936282*
X1936055Y1792667*
X1935827Y1792355*
X1935714Y1792042*
X1935600Y1791574*
Y1790792*
X1935714Y1790324*
X1935827Y1790011*
X1936055Y1789699*
X1936282Y1789542*
X1936736*
X1936964Y1789699*
X1937191Y1790011*
X1937305Y1790324*
Y1790792*
X1936736D02*
X1937305D01*
X1961400Y1779642D02*
X1967400D01*
X1964400Y1776642D02*
Y1782642D01*
X1967605Y1783642D02*
X1967491Y1783955D01*
X1967264Y1784267*
X1967036Y1784424*
X1966582*
X1966355Y1784267*
X1966127Y1783955*
X1966014Y1783642*
X1965900Y1783174*
Y1782392*
X1966014Y1781924*
X1966127Y1781611*
X1966355Y1781299*
X1966582Y1781142*
X1967036*
X1967264Y1781299*
X1967491Y1781611*
X1967605Y1781924*
Y1782392*
X1967036D02*
X1967605D01*
X1956400Y1779642D02*
X1962400D01*
X1959400Y1776642D02*
Y1782642D01*
X1962605Y1783642D02*
X1962491Y1783955D01*
X1962264Y1784267*
X1962036Y1784424*
X1961582*
X1961355Y1784267*
X1961127Y1783955*
X1961014Y1783642*
X1960900Y1783174*
Y1782392*
X1961014Y1781924*
X1961127Y1781611*
X1961355Y1781299*
X1961582Y1781142*
X1962036*
X1962264Y1781299*
X1962491Y1781611*
X1962605Y1781924*
Y1782392*
X1962036D02*
X1962605D01*
X1951400Y1779642D02*
X1957400D01*
X1954400Y1776642D02*
Y1782642D01*
X1957605Y1783642D02*
X1957491Y1783955D01*
X1957264Y1784267*
X1957036Y1784424*
X1956582*
X1956355Y1784267*
X1956127Y1783955*
X1956014Y1783642*
X1955900Y1783174*
Y1782392*
X1956014Y1781924*
X1956127Y1781611*
X1956355Y1781299*
X1956582Y1781142*
X1957036*
X1957264Y1781299*
X1957491Y1781611*
X1957605Y1781924*
Y1782392*
X1957036D02*
X1957605D01*
X1951400Y1769642D02*
X1957400D01*
X1954400Y1766642D02*
Y1772642D01*
X1957605Y1773642D02*
X1957491Y1773955D01*
X1957264Y1774267*
X1957036Y1774424*
X1956582*
X1956355Y1774267*
X1956127Y1773955*
X1956014Y1773642*
X1955900Y1773174*
Y1772392*
X1956014Y1771924*
X1956127Y1771611*
X1956355Y1771299*
X1956582Y1771142*
X1957036*
X1957264Y1771299*
X1957491Y1771611*
X1957605Y1771924*
Y1772392*
X1957036D02*
X1957605D01*
X1951400Y1774642D02*
X1957400D01*
X1954400Y1771642D02*
Y1777642D01*
X1957605Y1778642D02*
X1957491Y1778955D01*
X1957264Y1779267*
X1957036Y1779424*
X1956582*
X1956355Y1779267*
X1956127Y1778955*
X1956014Y1778642*
X1955900Y1778174*
Y1777392*
X1956014Y1776924*
X1956127Y1776611*
X1956355Y1776299*
X1956582Y1776142*
X1957036*
X1957264Y1776299*
X1957491Y1776611*
X1957605Y1776924*
Y1777392*
X1957036D02*
X1957605D01*
X1961400Y1774642D02*
X1967400D01*
X1964400Y1771642D02*
Y1777642D01*
X1967605Y1778642D02*
X1967491Y1778955D01*
X1967264Y1779267*
X1967036Y1779424*
X1966582*
X1966355Y1779267*
X1966127Y1778955*
X1966014Y1778642*
X1965900Y1778174*
Y1777392*
X1966014Y1776924*
X1966127Y1776611*
X1966355Y1776299*
X1966582Y1776142*
X1967036*
X1967264Y1776299*
X1967491Y1776611*
X1967605Y1776924*
Y1777392*
X1967036D02*
X1967605D01*
X1961400Y1769642D02*
X1967400D01*
X1964400Y1766642D02*
Y1772642D01*
X1967605Y1773642D02*
X1967491Y1773955D01*
X1967264Y1774267*
X1967036Y1774424*
X1966582*
X1966355Y1774267*
X1966127Y1773955*
X1966014Y1773642*
X1965900Y1773174*
Y1772392*
X1966014Y1771924*
X1966127Y1771611*
X1966355Y1771299*
X1966582Y1771142*
X1967036*
X1967264Y1771299*
X1967491Y1771611*
X1967605Y1771924*
Y1772392*
X1967036D02*
X1967605D01*
X1956400Y1769642D02*
X1962400D01*
X1959400Y1766642D02*
Y1772642D01*
X1962605Y1773642D02*
X1962491Y1773955D01*
X1962264Y1774267*
X1962036Y1774424*
X1961582*
X1961355Y1774267*
X1961127Y1773955*
X1961014Y1773642*
X1960900Y1773174*
Y1772392*
X1961014Y1771924*
X1961127Y1771611*
X1961355Y1771299*
X1961582Y1771142*
X1962036*
X1962264Y1771299*
X1962491Y1771611*
X1962605Y1771924*
Y1772392*
X1962036D02*
X1962605D01*
X1941100Y1748042D02*
X1947100D01*
X1944100Y1745042D02*
Y1751042D01*
X1947305Y1752042D02*
X1947191Y1752355D01*
X1946964Y1752667*
X1946736Y1752824*
X1946282*
X1946055Y1752667*
X1945827Y1752355*
X1945714Y1752042*
X1945600Y1751574*
Y1750792*
X1945714Y1750324*
X1945827Y1750011*
X1946055Y1749699*
X1946282Y1749542*
X1946736*
X1946964Y1749699*
X1947191Y1750011*
X1947305Y1750324*
Y1750792*
X1946736D02*
X1947305D01*
X1941100Y1753042D02*
X1947100D01*
X1944100Y1750042D02*
Y1756042D01*
X1947305Y1757042D02*
X1947191Y1757355D01*
X1946964Y1757667*
X1946736Y1757824*
X1946282*
X1946055Y1757667*
X1945827Y1757355*
X1945714Y1757042*
X1945600Y1756574*
Y1755792*
X1945714Y1755324*
X1945827Y1755011*
X1946055Y1754699*
X1946282Y1754542*
X1946736*
X1946964Y1754699*
X1947191Y1755011*
X1947305Y1755324*
Y1755792*
X1946736D02*
X1947305D01*
X1965916Y1804910D02*
X1971916D01*
X1968916Y1801910D02*
Y1807910D01*
X1972120Y1808910D02*
X1972007Y1809223D01*
X1971779Y1809535*
X1971552Y1809691*
X1971098*
X1970870Y1809535*
X1970643Y1809223*
X1970529Y1808910*
X1970416Y1808441*
Y1807660*
X1970529Y1807191*
X1970643Y1806879*
X1970870Y1806566*
X1971098Y1806410*
X1971552*
X1971779Y1806566*
X1972007Y1806879*
X1972120Y1807191*
Y1807660*
X1971552D02*
X1972120D01*
X1937600Y1776142D02*
X1943600D01*
X1940600Y1773142D02*
Y1779142D01*
X1943805Y1780142D02*
X1943691Y1780455D01*
X1943464Y1780767*
X1943236Y1780924*
X1942782*
X1942555Y1780767*
X1942327Y1780455*
X1942214Y1780142*
X1942100Y1779674*
Y1778892*
X1942214Y1778424*
X1942327Y1778111*
X1942555Y1777799*
X1942782Y1777642*
X1943236*
X1943464Y1777799*
X1943691Y1778111*
X1943805Y1778424*
Y1778892*
X1943236D02*
X1943805D01*
X1974400Y1747642D02*
X1980400D01*
X1977400Y1744642D02*
Y1750642D01*
X1980605Y1751642D02*
X1980491Y1751955D01*
X1980264Y1752267*
X1980036Y1752424*
X1979582*
X1979355Y1752267*
X1979127Y1751955*
X1979014Y1751642*
X1978900Y1751174*
Y1750392*
X1979014Y1749924*
X1979127Y1749611*
X1979355Y1749299*
X1979582Y1749142*
X1980036*
X1980264Y1749299*
X1980491Y1749611*
X1980605Y1749924*
Y1750392*
X1980036D02*
X1980605D01*
X1983200Y1795242D02*
X1989200D01*
X1986200Y1792242D02*
Y1798242D01*
X1989405Y1799242D02*
X1989291Y1799555D01*
X1989064Y1799867*
X1988836Y1800024*
X1988382*
X1988155Y1799867*
X1987927Y1799555*
X1987814Y1799242*
X1987700Y1798774*
Y1797992*
X1987814Y1797524*
X1987927Y1797211*
X1988155Y1796899*
X1988382Y1796742*
X1988836*
X1989064Y1796899*
X1989291Y1797211*
X1989405Y1797524*
Y1797992*
X1988836D02*
X1989405D01*
X1926100Y1788042D02*
X1932100D01*
X1929100Y1785042D02*
Y1791042D01*
X1932305Y1792042D02*
X1932191Y1792355D01*
X1931964Y1792667*
X1931736Y1792824*
X1931282*
X1931055Y1792667*
X1930827Y1792355*
X1930714Y1792042*
X1930600Y1791574*
Y1790792*
X1930714Y1790324*
X1930827Y1790011*
X1931055Y1789699*
X1931282Y1789542*
X1931736*
X1931964Y1789699*
X1932191Y1790011*
X1932305Y1790324*
Y1790792*
X1931736D02*
X1932305D01*
X1941100Y1810542D02*
X1947100D01*
X1944100Y1807542D02*
Y1813542D01*
X1947305Y1814542D02*
X1947191Y1814855D01*
X1946964Y1815167*
X1946736Y1815324*
X1946282*
X1946055Y1815167*
X1945827Y1814855*
X1945714Y1814542*
X1945600Y1814074*
Y1813292*
X1945714Y1812824*
X1945827Y1812511*
X1946055Y1812199*
X1946282Y1812042*
X1946736*
X1946964Y1812199*
X1947191Y1812511*
X1947305Y1812824*
Y1813292*
X1946736D02*
X1947305D01*
X1978400Y1747642D02*
X1984400D01*
X1981400Y1744642D02*
Y1750642D01*
X1984605Y1751642D02*
X1984491Y1751955D01*
X1984264Y1752267*
X1984036Y1752424*
X1983582*
X1983355Y1752267*
X1983127Y1751955*
X1983014Y1751642*
X1982900Y1751174*
Y1750392*
X1983014Y1749924*
X1983127Y1749611*
X1983355Y1749299*
X1983582Y1749142*
X1984036*
X1984264Y1749299*
X1984491Y1749611*
X1984605Y1749924*
Y1750392*
X1984036D02*
X1984605D01*
X1976900Y1760642D02*
X1982900D01*
X1979900Y1757642D02*
Y1763642D01*
X1983105Y1764642D02*
X1982991Y1764955D01*
X1982764Y1765267*
X1982536Y1765424*
X1982082*
X1981855Y1765267*
X1981627Y1764955*
X1981514Y1764642*
X1981400Y1764174*
Y1763392*
X1981514Y1762924*
X1981627Y1762611*
X1981855Y1762299*
X1982082Y1762142*
X1982536*
X1982764Y1762299*
X1982991Y1762611*
X1983105Y1762924*
Y1763392*
X1982536D02*
X1983105D01*
X1978400Y1750642D02*
X1984400D01*
X1981400Y1747642D02*
Y1753642D01*
X1984605Y1754642D02*
X1984491Y1754955D01*
X1984264Y1755267*
X1984036Y1755424*
X1983582*
X1983355Y1755267*
X1983127Y1754955*
X1983014Y1754642*
X1982900Y1754174*
Y1753392*
X1983014Y1752924*
X1983127Y1752611*
X1983355Y1752299*
X1983582Y1752142*
X1984036*
X1984264Y1752299*
X1984491Y1752611*
X1984605Y1752924*
Y1753392*
X1984036D02*
X1984605D01*
X1974400Y1750642D02*
X1980400D01*
X1977400Y1747642D02*
Y1753642D01*
X1980605Y1754642D02*
X1980491Y1754955D01*
X1980264Y1755267*
X1980036Y1755424*
X1979582*
X1979355Y1755267*
X1979127Y1754955*
X1979014Y1754642*
X1978900Y1754174*
Y1753392*
X1979014Y1752924*
X1979127Y1752611*
X1979355Y1752299*
X1979582Y1752142*
X1980036*
X1980264Y1752299*
X1980491Y1752611*
X1980605Y1752924*
Y1753392*
X1980036D02*
X1980605D01*
X1978400Y1758642D02*
X1984400D01*
X1981400Y1755642D02*
Y1761642D01*
X1984605Y1762642D02*
X1984491Y1762955D01*
X1984264Y1763267*
X1984036Y1763424*
X1983582*
X1983355Y1763267*
X1983127Y1762955*
X1983014Y1762642*
X1982900Y1762174*
Y1761392*
X1983014Y1760924*
X1983127Y1760611*
X1983355Y1760299*
X1983582Y1760142*
X1984036*
X1984264Y1760299*
X1984491Y1760611*
X1984605Y1760924*
Y1761392*
X1984036D02*
X1984605D01*
X1956400Y1774642D02*
X1962400D01*
X1959400Y1771642D02*
Y1777642D01*
X1962605Y1778642D02*
X1962491Y1778955D01*
X1962264Y1779267*
X1962036Y1779424*
X1961582*
X1961355Y1779267*
X1961127Y1778955*
X1961014Y1778642*
X1960900Y1778174*
Y1777392*
X1961014Y1776924*
X1961127Y1776611*
X1961355Y1776299*
X1961582Y1776142*
X1962036*
X1962264Y1776299*
X1962491Y1776611*
X1962605Y1776924*
Y1777392*
X1962036D02*
X1962605D01*
X1978900Y1789642D02*
X1984900D01*
X1981900Y1786642D02*
Y1792642D01*
X1983400Y1794423D02*
Y1791142D01*
X1984991Y1794423D02*
Y1791142D01*
X1983400Y1792861D02*
X1984991D01*
X1958073Y1751842D02*
X1964073D01*
X1961073Y1748842D02*
Y1754842D01*
X1964278Y1755842D02*
X1964164Y1756155D01*
X1963937Y1756467*
X1963710Y1756624*
X1963255*
X1963028Y1756467*
X1962800Y1756155*
X1962687Y1755842*
X1962573Y1755374*
Y1754592*
X1962687Y1754124*
X1962800Y1753811*
X1963028Y1753499*
X1963255Y1753342*
X1963710*
X1963937Y1753499*
X1964164Y1753811*
X1964278Y1754124*
Y1754592*
X1963710D02*
X1964278D01*
X1961449Y1794558D02*
X1967449D01*
X1964449Y1791558D02*
Y1797558D01*
X1967653Y1798558D02*
X1967540Y1798870D01*
X1967312Y1799183*
X1967085Y1799339*
X1966631*
X1966403Y1799183*
X1966176Y1798870*
X1966062Y1798558*
X1965949Y1798089*
Y1797308*
X1966062Y1796839*
X1966176Y1796526*
X1966403Y1796214*
X1966631Y1796058*
X1967085*
X1967312Y1796214*
X1967540Y1796526*
X1967653Y1796839*
Y1797308*
X1967085D02*
X1967653D01*
X1945353Y1816910D02*
X1951353D01*
X1948353Y1813910D02*
Y1819910D01*
X1951557Y1820910D02*
X1951444Y1821223D01*
X1951216Y1821535*
X1950989Y1821691*
X1950535*
X1950307Y1821535*
X1950080Y1821223*
X1949966Y1820910*
X1949853Y1820441*
Y1819660*
X1949966Y1819191*
X1950080Y1818879*
X1950307Y1818566*
X1950535Y1818410*
X1950989*
X1951216Y1818566*
X1951444Y1818879*
X1951557Y1819191*
Y1819660*
X1950989D02*
X1951557D01*
X1912100Y1781442D02*
X1918100D01*
X1915100Y1778442D02*
Y1784442D01*
X1918305Y1785442D02*
X1918191Y1785755D01*
X1917964Y1786067*
X1917736Y1786224*
X1917282*
X1917055Y1786067*
X1916827Y1785755*
X1916714Y1785442*
X1916600Y1784974*
Y1784192*
X1916714Y1783724*
X1916827Y1783411*
X1917055Y1783099*
X1917282Y1782942*
X1917736*
X1917964Y1783099*
X1918191Y1783411*
X1918305Y1783724*
Y1784192*
X1917736D02*
X1918305D01*
X1929468Y1809753D02*
X1935468D01*
X1932468Y1806753D02*
Y1812753D01*
X1935672Y1813753D02*
X1935559Y1814065D01*
X1935331Y1814378*
X1935104Y1814534*
X1934650*
X1934422Y1814378*
X1934195Y1814065*
X1934081Y1813753*
X1933968Y1813284*
Y1812503*
X1934081Y1812034*
X1934195Y1811721*
X1934422Y1811409*
X1934650Y1811253*
X1935104*
X1935331Y1811409*
X1935559Y1811721*
X1935672Y1812034*
Y1812503*
X1935104D02*
X1935672D01*
X1952632Y1807753D02*
X1958632D01*
X1955632Y1804753D02*
Y1810753D01*
X1958837Y1811753D02*
X1958723Y1812065D01*
X1958496Y1812378*
X1958269Y1812534*
X1957814*
X1957587Y1812378*
X1957360Y1812065*
X1957246Y1811753*
X1957132Y1811284*
Y1810503*
X1957246Y1810034*
X1957360Y1809721*
X1957587Y1809409*
X1957814Y1809253*
X1958269*
X1958496Y1809409*
X1958723Y1809721*
X1958837Y1810034*
Y1810503*
X1958269D02*
X1958837D01*
X1924800Y1803168D02*
X1930800D01*
X1927800Y1800168D02*
Y1806168D01*
X1929300Y1807949D02*
Y1804668D01*
X1930891Y1807949D02*
Y1804668D01*
X1929300Y1806387D02*
X1930891D01*
X1917668Y1817627D02*
X1923668D01*
X1920668Y1814627D02*
Y1820627D01*
X1923872Y1821627D02*
X1923759Y1821939D01*
X1923531Y1822252*
X1923304Y1822408*
X1922850*
X1922622Y1822252*
X1922395Y1821939*
X1922281Y1821627*
X1922168Y1821158*
Y1820377*
X1922281Y1819908*
X1922395Y1819595*
X1922622Y1819283*
X1922850Y1819127*
X1923304*
X1923531Y1819283*
X1923759Y1819595*
X1923872Y1819908*
Y1820377*
X1923304D02*
X1923872D01*
X1915668Y1815658D02*
X1921668D01*
X1918668Y1812658D02*
Y1818658D01*
X1921872Y1819658D02*
X1921759Y1819971D01*
X1921531Y1820283*
X1921304Y1820439*
X1920850*
X1920622Y1820283*
X1920395Y1819971*
X1920281Y1819658*
X1920168Y1819189*
Y1818408*
X1920281Y1817939*
X1920395Y1817627*
X1920622Y1817314*
X1920850Y1817158*
X1921304*
X1921531Y1817314*
X1921759Y1817627*
X1921872Y1817939*
Y1818408*
X1921304D02*
X1921872D01*
X1941416Y1803910D02*
X1947416D01*
X1944416Y1800910D02*
Y1806910D01*
X1947620Y1807910D02*
X1947507Y1808223D01*
X1947279Y1808535*
X1947052Y1808691*
X1946598*
X1946370Y1808535*
X1946143Y1808223*
X1946029Y1807910*
X1945916Y1807441*
Y1806660*
X1946029Y1806191*
X1946143Y1805879*
X1946370Y1805566*
X1946598Y1805410*
X1947052*
X1947279Y1805566*
X1947507Y1805879*
X1947620Y1806191*
Y1806660*
X1947052D02*
X1947620D01*
X1945573Y1791542D02*
X1951573D01*
X1948573Y1788542D02*
Y1794542D01*
X1951778Y1795542D02*
X1951664Y1795855D01*
X1951437Y1796167*
X1951210Y1796324*
X1950755*
X1950528Y1796167*
X1950300Y1795855*
X1950187Y1795542*
X1950073Y1795074*
Y1794292*
X1950187Y1793824*
X1950300Y1793511*
X1950528Y1793199*
X1950755Y1793042*
X1951210*
X1951437Y1793199*
X1951664Y1793511*
X1951778Y1793824*
Y1794292*
X1951210D02*
X1951778D01*
X1955132Y1809753D02*
X1961132D01*
X1958132Y1806753D02*
Y1812753D01*
X1961337Y1813753D02*
X1961223Y1814065D01*
X1960996Y1814378*
X1960769Y1814534*
X1960314*
X1960087Y1814378*
X1959860Y1814065*
X1959746Y1813753*
X1959632Y1813284*
Y1812503*
X1959746Y1812034*
X1959860Y1811721*
X1960087Y1811409*
X1960314Y1811253*
X1960769*
X1960996Y1811409*
X1961223Y1811721*
X1961337Y1812034*
Y1812503*
X1960769D02*
X1961337D01*
X1921400Y1759642D02*
X1927400D01*
X1924400Y1756642D02*
Y1762642D01*
X1927605Y1763642D02*
X1927491Y1763955D01*
X1927264Y1764267*
X1927036Y1764424*
X1926582*
X1926355Y1764267*
X1926127Y1763955*
X1926014Y1763642*
X1925900Y1763174*
Y1762392*
X1926014Y1761924*
X1926127Y1761611*
X1926355Y1761299*
X1926582Y1761142*
X1927036*
X1927264Y1761299*
X1927491Y1761611*
X1927605Y1761924*
Y1762392*
X1927036D02*
X1927605D01*
X1939500Y1783501D02*
X1945500D01*
X1942500Y1780501D02*
Y1786501D01*
X1945705Y1787501D02*
X1945591Y1787813D01*
X1945364Y1788126*
X1945136Y1788282*
X1944682*
X1944455Y1788126*
X1944227Y1787813*
X1944114Y1787501*
X1944000Y1787032*
Y1786251*
X1944114Y1785782*
X1944227Y1785469*
X1944455Y1785157*
X1944682Y1785001*
X1945136*
X1945364Y1785157*
X1945591Y1785469*
X1945705Y1785782*
Y1786251*
X1945136D02*
X1945705D01*
X1970400Y1760142D02*
X1976400D01*
X1973400Y1757142D02*
Y1763142D01*
X1976605Y1764142D02*
X1976491Y1764455D01*
X1976264Y1764767*
X1976036Y1764924*
X1975582*
X1975355Y1764767*
X1975127Y1764455*
X1975014Y1764142*
X1974900Y1763674*
Y1762892*
X1975014Y1762424*
X1975127Y1762111*
X1975355Y1761799*
X1975582Y1761642*
X1976036*
X1976264Y1761799*
X1976491Y1762111*
X1976605Y1762424*
Y1762892*
X1976036D02*
X1976605D01*
X1971900Y1746142D02*
X1977900D01*
X1974900Y1743142D02*
Y1749142D01*
X1978105Y1750142D02*
X1977991Y1750455D01*
X1977764Y1750767*
X1977536Y1750924*
X1977082*
X1976855Y1750767*
X1976627Y1750455*
X1976514Y1750142*
X1976400Y1749674*
Y1748892*
X1976514Y1748424*
X1976627Y1748111*
X1976855Y1747799*
X1977082Y1747642*
X1977536*
X1977764Y1747799*
X1977991Y1748111*
X1978105Y1748424*
Y1748892*
X1977536D02*
X1978105D01*
X1927100Y1771690D02*
X1933100D01*
X1930100Y1768690D02*
Y1774690D01*
X1931600Y1776471D02*
Y1773190D01*
X1933191Y1776471D02*
Y1773190D01*
X1931600Y1774908D02*
X1933191D01*
X1946900Y1755642D02*
X1952900D01*
X1949900Y1752642D02*
Y1758642D01*
X1953105Y1759642D02*
X1952991Y1759955D01*
X1952764Y1760267*
X1952536Y1760424*
X1952082*
X1951855Y1760267*
X1951627Y1759955*
X1951514Y1759642*
X1951400Y1759174*
Y1758392*
X1951514Y1757924*
X1951627Y1757611*
X1951855Y1757299*
X1952082Y1757142*
X1952536*
X1952764Y1757299*
X1952991Y1757611*
X1953105Y1757924*
Y1758392*
X1952536D02*
X1953105D01*
X1956900Y1798642D02*
X1962900D01*
X1959900Y1795642D02*
Y1801642D01*
X1961400Y1803424D02*
Y1800142D01*
X1962991Y1803424D02*
Y1800142D01*
X1961400Y1801861D02*
X1962991D01*
X2009000Y1748442D02*
X2015000D01*
X2012000Y1745442D02*
Y1751442D01*
X2015205Y1752442D02*
X2015091Y1752755D01*
X2014864Y1753067*
X2014636Y1753224*
X2014182*
X2013955Y1753067*
X2013727Y1752755*
X2013614Y1752442*
X2013500Y1751974*
Y1751192*
X2013614Y1750724*
X2013727Y1750411*
X2013955Y1750099*
X2014182Y1749942*
X2014636*
X2014864Y1750099*
X2015091Y1750411*
X2015205Y1750724*
Y1751192*
X2014636D02*
X2015205D01*
X2031000Y1748442D02*
X2037000D01*
X2034000Y1745442D02*
Y1751442D01*
X2037205Y1752442D02*
X2037091Y1752755D01*
X2036864Y1753067*
X2036636Y1753224*
X2036182*
X2035955Y1753067*
X2035727Y1752755*
X2035614Y1752442*
X2035500Y1751974*
Y1751192*
X2035614Y1750724*
X2035727Y1750411*
X2035955Y1750099*
X2036182Y1749942*
X2036636*
X2036864Y1750099*
X2037091Y1750411*
X2037205Y1750724*
Y1751192*
X2036636D02*
X2037205D01*
X2009400Y1768642D02*
X2015400D01*
X2012400Y1765642D02*
Y1771642D01*
X2015605Y1772642D02*
X2015491Y1772955D01*
X2015264Y1773267*
X2015036Y1773424*
X2014582*
X2014355Y1773267*
X2014127Y1772955*
X2014014Y1772642*
X2013900Y1772174*
Y1771392*
X2014014Y1770924*
X2014127Y1770611*
X2014355Y1770299*
X2014582Y1770142*
X2015036*
X2015264Y1770299*
X2015491Y1770611*
X2015605Y1770924*
Y1771392*
X2015036D02*
X2015605D01*
X2006400Y1768642D02*
X2012400D01*
X2009400Y1765642D02*
Y1771642D01*
X2012605Y1772642D02*
X2012491Y1772955D01*
X2012264Y1773267*
X2012036Y1773424*
X2011582*
X2011355Y1773267*
X2011127Y1772955*
X2011014Y1772642*
X2010900Y1772174*
Y1771392*
X2011014Y1770924*
X2011127Y1770611*
X2011355Y1770299*
X2011582Y1770142*
X2012036*
X2012264Y1770299*
X2012491Y1770611*
X2012605Y1770924*
Y1771392*
X2012036D02*
X2012605D01*
X2007668Y1819284D02*
X2013668D01*
X2010668Y1816284D02*
Y1822284D01*
X2013872Y1823284D02*
X2013759Y1823597D01*
X2013531Y1823909*
X2013304Y1824065*
X2012850*
X2012622Y1823909*
X2012395Y1823597*
X2012281Y1823284*
X2012168Y1822815*
Y1822034*
X2012281Y1821565*
X2012395Y1821253*
X2012622Y1820940*
X2012850Y1820784*
X2013304*
X2013531Y1820940*
X2013759Y1821253*
X2013872Y1821565*
Y1822034*
X2013304D02*
X2013872D01*
X1992668Y1806095D02*
X1998668D01*
X1995668Y1803095D02*
Y1809095D01*
X1998872Y1810095D02*
X1998759Y1810408D01*
X1998531Y1810720*
X1998304Y1810876*
X1997850*
X1997622Y1810720*
X1997395Y1810408*
X1997281Y1810095*
X1997168Y1809626*
Y1808845*
X1997281Y1808376*
X1997395Y1808064*
X1997622Y1807751*
X1997850Y1807595*
X1998304*
X1998531Y1807751*
X1998759Y1808064*
X1998872Y1808376*
Y1808845*
X1998304D02*
X1998872D01*
X2003400Y1768642D02*
X2009400D01*
X2006400Y1765642D02*
Y1771642D01*
X2009605Y1772642D02*
X2009491Y1772955D01*
X2009264Y1773267*
X2009036Y1773424*
X2008582*
X2008355Y1773267*
X2008127Y1772955*
X2008014Y1772642*
X2007900Y1772174*
Y1771392*
X2008014Y1770924*
X2008127Y1770611*
X2008355Y1770299*
X2008582Y1770142*
X2009036*
X2009264Y1770299*
X2009491Y1770611*
X2009605Y1770924*
Y1771392*
X2009036D02*
X2009605D01*
X2000400Y1768642D02*
X2006400D01*
X2003400Y1765642D02*
Y1771642D01*
X2006605Y1772642D02*
X2006491Y1772955D01*
X2006264Y1773267*
X2006036Y1773424*
X2005582*
X2005355Y1773267*
X2005127Y1772955*
X2005014Y1772642*
X2004900Y1772174*
Y1771392*
X2005014Y1770924*
X2005127Y1770611*
X2005355Y1770299*
X2005582Y1770142*
X2006036*
X2006264Y1770299*
X2006491Y1770611*
X2006605Y1770924*
Y1771392*
X2006036D02*
X2006605D01*
X1997400Y1768642D02*
X2003400D01*
X2000400Y1765642D02*
Y1771642D01*
X2003605Y1772642D02*
X2003491Y1772955D01*
X2003264Y1773267*
X2003036Y1773424*
X2002582*
X2002355Y1773267*
X2002127Y1772955*
X2002014Y1772642*
X2001900Y1772174*
Y1771392*
X2002014Y1770924*
X2002127Y1770611*
X2002355Y1770299*
X2002582Y1770142*
X2003036*
X2003264Y1770299*
X2003491Y1770611*
X2003605Y1770924*
Y1771392*
X2003036D02*
X2003605D01*
X1996400Y1765642D02*
X2002400D01*
X1999400Y1762642D02*
Y1768642D01*
X2002605Y1769642D02*
X2002491Y1769955D01*
X2002264Y1770267*
X2002036Y1770424*
X2001582*
X2001355Y1770267*
X2001127Y1769955*
X2001014Y1769642*
X2000900Y1769174*
Y1768392*
X2001014Y1767924*
X2001127Y1767611*
X2001355Y1767299*
X2001582Y1767142*
X2002036*
X2002264Y1767299*
X2002491Y1767611*
X2002605Y1767924*
Y1768392*
X2002036D02*
X2002605D01*
X1994400Y1762642D02*
X2000400D01*
X1997400Y1759642D02*
Y1765642D01*
X2000605Y1766642D02*
X2000491Y1766955D01*
X2000264Y1767267*
X2000036Y1767424*
X1999582*
X1999355Y1767267*
X1999127Y1766955*
X1999014Y1766642*
X1998900Y1766174*
Y1765392*
X1999014Y1764924*
X1999127Y1764611*
X1999355Y1764299*
X1999582Y1764142*
X2000036*
X2000264Y1764299*
X2000491Y1764611*
X2000605Y1764924*
Y1765392*
X2000036D02*
X2000605D01*
X2025400Y1768642D02*
X2031400D01*
X2028400Y1765642D02*
Y1771642D01*
X2031605Y1772642D02*
X2031491Y1772955D01*
X2031264Y1773267*
X2031036Y1773424*
X2030582*
X2030355Y1773267*
X2030127Y1772955*
X2030014Y1772642*
X2029900Y1772174*
Y1771392*
X2030014Y1770924*
X2030127Y1770611*
X2030355Y1770299*
X2030582Y1770142*
X2031036*
X2031264Y1770299*
X2031491Y1770611*
X2031605Y1770924*
Y1771392*
X2031036D02*
X2031605D01*
X2028400Y1768642D02*
X2034400D01*
X2031400Y1765642D02*
Y1771642D01*
X2034605Y1772642D02*
X2034491Y1772955D01*
X2034264Y1773267*
X2034036Y1773424*
X2033582*
X2033355Y1773267*
X2033127Y1772955*
X2033014Y1772642*
X2032900Y1772174*
Y1771392*
X2033014Y1770924*
X2033127Y1770611*
X2033355Y1770299*
X2033582Y1770142*
X2034036*
X2034264Y1770299*
X2034491Y1770611*
X2034605Y1770924*
Y1771392*
X2034036D02*
X2034605D01*
X2031400Y1768642D02*
X2037400D01*
X2034400Y1765642D02*
Y1771642D01*
X2037605Y1772642D02*
X2037491Y1772955D01*
X2037264Y1773267*
X2037036Y1773424*
X2036582*
X2036355Y1773267*
X2036127Y1772955*
X2036014Y1772642*
X2035900Y1772174*
Y1771392*
X2036014Y1770924*
X2036127Y1770611*
X2036355Y1770299*
X2036582Y1770142*
X2037036*
X2037264Y1770299*
X2037491Y1770611*
X2037605Y1770924*
Y1771392*
X2037036D02*
X2037605D01*
X2034400Y1768642D02*
X2040400D01*
X2037400Y1765642D02*
Y1771642D01*
X2040605Y1772642D02*
X2040491Y1772955D01*
X2040264Y1773267*
X2040036Y1773424*
X2039582*
X2039355Y1773267*
X2039127Y1772955*
X2039014Y1772642*
X2038900Y1772174*
Y1771392*
X2039014Y1770924*
X2039127Y1770611*
X2039355Y1770299*
X2039582Y1770142*
X2040036*
X2040264Y1770299*
X2040491Y1770611*
X2040605Y1770924*
Y1771392*
X2040036D02*
X2040605D01*
X2016400Y1785642D02*
X2022400D01*
X2019400Y1782642D02*
Y1788642D01*
X2022605Y1789642D02*
X2022491Y1789955D01*
X2022264Y1790267*
X2022036Y1790424*
X2021582*
X2021355Y1790267*
X2021127Y1789955*
X2021014Y1789642*
X2020900Y1789174*
Y1788392*
X2021014Y1787924*
X2021127Y1787611*
X2021355Y1787299*
X2021582Y1787142*
X2022036*
X2022264Y1787299*
X2022491Y1787611*
X2022605Y1787924*
Y1788392*
X2022036D02*
X2022605D01*
X2016400Y1781642D02*
X2022400D01*
X2019400Y1778642D02*
Y1784642D01*
X2022605Y1785642D02*
X2022491Y1785955D01*
X2022264Y1786267*
X2022036Y1786424*
X2021582*
X2021355Y1786267*
X2021127Y1785955*
X2021014Y1785642*
X2020900Y1785174*
Y1784392*
X2021014Y1783924*
X2021127Y1783611*
X2021355Y1783299*
X2021582Y1783142*
X2022036*
X2022264Y1783299*
X2022491Y1783611*
X2022605Y1783924*
Y1784392*
X2022036D02*
X2022605D01*
X2004900Y1789642D02*
X2010900D01*
X2007900Y1786642D02*
Y1792642D01*
X2011105Y1793642D02*
X2010991Y1793955D01*
X2010764Y1794267*
X2010536Y1794424*
X2010082*
X2009855Y1794267*
X2009627Y1793955*
X2009514Y1793642*
X2009400Y1793174*
Y1792392*
X2009514Y1791924*
X2009627Y1791611*
X2009855Y1791299*
X2010082Y1791142*
X2010536*
X2010764Y1791299*
X2010991Y1791611*
X2011105Y1791924*
Y1792392*
X2010536D02*
X2011105D01*
X2013400Y1778642D02*
X2019400D01*
X2016400Y1775642D02*
Y1781642D01*
X2019605Y1782642D02*
X2019491Y1782955D01*
X2019264Y1783267*
X2019036Y1783424*
X2018582*
X2018355Y1783267*
X2018127Y1782955*
X2018014Y1782642*
X2017900Y1782174*
Y1781392*
X2018014Y1780924*
X2018127Y1780611*
X2018355Y1780299*
X2018582Y1780142*
X2019036*
X2019264Y1780299*
X2019491Y1780611*
X2019605Y1780924*
Y1781392*
X2019036D02*
X2019605D01*
X2010400Y1780642D02*
X2016400D01*
X2013400Y1777642D02*
Y1783642D01*
X2016605Y1784642D02*
X2016491Y1784955D01*
X2016264Y1785267*
X2016036Y1785424*
X2015582*
X2015355Y1785267*
X2015127Y1784955*
X2015014Y1784642*
X2014900Y1784174*
Y1783392*
X2015014Y1782924*
X2015127Y1782611*
X2015355Y1782299*
X2015582Y1782142*
X2016036*
X2016264Y1782299*
X2016491Y1782611*
X2016605Y1782924*
Y1783392*
X2016036D02*
X2016605D01*
X2009400Y1783642D02*
X2015400D01*
X2012400Y1780642D02*
Y1786642D01*
X2015605Y1787642D02*
X2015491Y1787955D01*
X2015264Y1788267*
X2015036Y1788424*
X2014582*
X2014355Y1788267*
X2014127Y1787955*
X2014014Y1787642*
X2013900Y1787174*
Y1786392*
X2014014Y1785924*
X2014127Y1785611*
X2014355Y1785299*
X2014582Y1785142*
X2015036*
X2015264Y1785299*
X2015491Y1785611*
X2015605Y1785924*
Y1786392*
X2015036D02*
X2015605D01*
X2000400Y1783642D02*
X2006400D01*
X2003400Y1780642D02*
Y1786642D01*
X2006605Y1787642D02*
X2006491Y1787955D01*
X2006264Y1788267*
X2006036Y1788424*
X2005582*
X2005355Y1788267*
X2005127Y1787955*
X2005014Y1787642*
X2004900Y1787174*
Y1786392*
X2005014Y1785924*
X2005127Y1785611*
X2005355Y1785299*
X2005582Y1785142*
X2006036*
X2006264Y1785299*
X2006491Y1785611*
X2006605Y1785924*
Y1786392*
X2006036D02*
X2006605D01*
X1999400Y1780642D02*
X2005400D01*
X2002400Y1777642D02*
Y1783642D01*
X2005605Y1784642D02*
X2005491Y1784955D01*
X2005264Y1785267*
X2005036Y1785424*
X2004582*
X2004355Y1785267*
X2004127Y1784955*
X2004014Y1784642*
X2003900Y1784174*
Y1783392*
X2004014Y1782924*
X2004127Y1782611*
X2004355Y1782299*
X2004582Y1782142*
X2005036*
X2005264Y1782299*
X2005491Y1782611*
X2005605Y1782924*
Y1783392*
X2005036D02*
X2005605D01*
X1997400Y1778642D02*
X2003400D01*
X2000400Y1775642D02*
Y1781642D01*
X2003605Y1782642D02*
X2003491Y1782955D01*
X2003264Y1783267*
X2003036Y1783424*
X2002582*
X2002355Y1783267*
X2002127Y1782955*
X2002014Y1782642*
X2001900Y1782174*
Y1781392*
X2002014Y1780924*
X2002127Y1780611*
X2002355Y1780299*
X2002582Y1780142*
X2003036*
X2003264Y1780299*
X2003491Y1780611*
X2003605Y1780924*
Y1781392*
X2003036D02*
X2003605D01*
X1994400Y1778642D02*
X2000400D01*
X1997400Y1775642D02*
Y1781642D01*
X2000605Y1782642D02*
X2000491Y1782955D01*
X2000264Y1783267*
X2000036Y1783424*
X1999582*
X1999355Y1783267*
X1999127Y1782955*
X1999014Y1782642*
X1998900Y1782174*
Y1781392*
X1999014Y1780924*
X1999127Y1780611*
X1999355Y1780299*
X1999582Y1780142*
X2000036*
X2000264Y1780299*
X2000491Y1780611*
X2000605Y1780924*
Y1781392*
X2000036D02*
X2000605D01*
X1994400Y1781642D02*
X2000400D01*
X1997400Y1778642D02*
Y1784642D01*
X2000605Y1785642D02*
X2000491Y1785955D01*
X2000264Y1786267*
X2000036Y1786424*
X1999582*
X1999355Y1786267*
X1999127Y1785955*
X1999014Y1785642*
X1998900Y1785174*
Y1784392*
X1999014Y1783924*
X1999127Y1783611*
X1999355Y1783299*
X1999582Y1783142*
X2000036*
X2000264Y1783299*
X2000491Y1783611*
X2000605Y1783924*
Y1784392*
X2000036D02*
X2000605D01*
X1994400Y1784642D02*
X2000400D01*
X1997400Y1781642D02*
Y1787642D01*
X2000605Y1788642D02*
X2000491Y1788955D01*
X2000264Y1789267*
X2000036Y1789424*
X1999582*
X1999355Y1789267*
X1999127Y1788955*
X1999014Y1788642*
X1998900Y1788174*
Y1787392*
X1999014Y1786924*
X1999127Y1786611*
X1999355Y1786299*
X1999582Y1786142*
X2000036*
X2000264Y1786299*
X2000491Y1786611*
X2000605Y1786924*
Y1787392*
X2000036D02*
X2000605D01*
X2016400Y1824642D02*
X2022400D01*
X2019400Y1821642D02*
Y1827642D01*
X2022605Y1828642D02*
X2022491Y1828955D01*
X2022264Y1829267*
X2022036Y1829424*
X2021582*
X2021355Y1829267*
X2021127Y1828955*
X2021014Y1828642*
X2020900Y1828174*
Y1827392*
X2021014Y1826924*
X2021127Y1826611*
X2021355Y1826299*
X2021582Y1826142*
X2022036*
X2022264Y1826299*
X2022491Y1826611*
X2022605Y1826924*
Y1827392*
X2022036D02*
X2022605D01*
X2016400Y1819642D02*
X2022400D01*
X2019400Y1816642D02*
Y1822642D01*
X2022605Y1823642D02*
X2022491Y1823955D01*
X2022264Y1824267*
X2022036Y1824424*
X2021582*
X2021355Y1824267*
X2021127Y1823955*
X2021014Y1823642*
X2020900Y1823174*
Y1822392*
X2021014Y1821924*
X2021127Y1821611*
X2021355Y1821299*
X2021582Y1821142*
X2022036*
X2022264Y1821299*
X2022491Y1821611*
X2022605Y1821924*
Y1822392*
X2022036D02*
X2022605D01*
X2016400Y1814642D02*
X2022400D01*
X2019400Y1811642D02*
Y1817642D01*
X2022605Y1818642D02*
X2022491Y1818955D01*
X2022264Y1819267*
X2022036Y1819424*
X2021582*
X2021355Y1819267*
X2021127Y1818955*
X2021014Y1818642*
X2020900Y1818174*
Y1817392*
X2021014Y1816924*
X2021127Y1816611*
X2021355Y1816299*
X2021582Y1816142*
X2022036*
X2022264Y1816299*
X2022491Y1816611*
X2022605Y1816924*
Y1817392*
X2022036D02*
X2022605D01*
X2016400Y1809642D02*
X2022400D01*
X2019400Y1806642D02*
Y1812642D01*
X2022605Y1813642D02*
X2022491Y1813955D01*
X2022264Y1814267*
X2022036Y1814424*
X2021582*
X2021355Y1814267*
X2021127Y1813955*
X2021014Y1813642*
X2020900Y1813174*
Y1812392*
X2021014Y1811924*
X2021127Y1811611*
X2021355Y1811299*
X2021582Y1811142*
X2022036*
X2022264Y1811299*
X2022491Y1811611*
X2022605Y1811924*
Y1812392*
X2022036D02*
X2022605D01*
X2016400Y1804642D02*
X2022400D01*
X2019400Y1801642D02*
Y1807642D01*
X2022605Y1808642D02*
X2022491Y1808955D01*
X2022264Y1809267*
X2022036Y1809424*
X2021582*
X2021355Y1809267*
X2021127Y1808955*
X2021014Y1808642*
X2020900Y1808174*
Y1807392*
X2021014Y1806924*
X2021127Y1806611*
X2021355Y1806299*
X2021582Y1806142*
X2022036*
X2022264Y1806299*
X2022491Y1806611*
X2022605Y1806924*
Y1807392*
X2022036D02*
X2022605D01*
X2016400Y1799642D02*
X2022400D01*
X2019400Y1796642D02*
Y1802642D01*
X2022605Y1803642D02*
X2022491Y1803955D01*
X2022264Y1804267*
X2022036Y1804424*
X2021582*
X2021355Y1804267*
X2021127Y1803955*
X2021014Y1803642*
X2020900Y1803174*
Y1802392*
X2021014Y1801924*
X2021127Y1801611*
X2021355Y1801299*
X2021582Y1801142*
X2022036*
X2022264Y1801299*
X2022491Y1801611*
X2022605Y1801924*
Y1802392*
X2022036D02*
X2022605D01*
X2016400Y1794642D02*
X2022400D01*
X2019400Y1791642D02*
Y1797642D01*
X2022605Y1798642D02*
X2022491Y1798955D01*
X2022264Y1799267*
X2022036Y1799424*
X2021582*
X2021355Y1799267*
X2021127Y1798955*
X2021014Y1798642*
X2020900Y1798174*
Y1797392*
X2021014Y1796924*
X2021127Y1796611*
X2021355Y1796299*
X2021582Y1796142*
X2022036*
X2022264Y1796299*
X2022491Y1796611*
X2022605Y1796924*
Y1797392*
X2022036D02*
X2022605D01*
X2016400Y1789942D02*
X2022400D01*
X2019400Y1786942D02*
Y1792942D01*
X2022605Y1793942D02*
X2022491Y1794255D01*
X2022264Y1794567*
X2022036Y1794724*
X2021582*
X2021355Y1794567*
X2021127Y1794255*
X2021014Y1793942*
X2020900Y1793474*
Y1792692*
X2021014Y1792224*
X2021127Y1791911*
X2021355Y1791599*
X2021582Y1791442*
X2022036*
X2022264Y1791599*
X2022491Y1791911*
X2022605Y1792224*
Y1792692*
X2022036D02*
X2022605D01*
X2007668Y1810784D02*
X2013668D01*
X2010668Y1807784D02*
Y1813784D01*
X2013872Y1814784D02*
X2013759Y1815097D01*
X2013531Y1815409*
X2013304Y1815565*
X2012850*
X2012622Y1815409*
X2012395Y1815097*
X2012281Y1814784*
X2012168Y1814315*
Y1813534*
X2012281Y1813065*
X2012395Y1812753*
X2012622Y1812440*
X2012850Y1812284*
X2013304*
X2013531Y1812440*
X2013759Y1812753*
X2013872Y1813065*
Y1813534*
X2013304D02*
X2013872D01*
X2012400Y1768642D02*
X2018400D01*
X2015400Y1765642D02*
Y1771642D01*
X2018605Y1772642D02*
X2018491Y1772955D01*
X2018264Y1773267*
X2018036Y1773424*
X2017582*
X2017355Y1773267*
X2017127Y1772955*
X2017014Y1772642*
X2016900Y1772174*
Y1771392*
X2017014Y1770924*
X2017127Y1770611*
X2017355Y1770299*
X2017582Y1770142*
X2018036*
X2018264Y1770299*
X2018491Y1770611*
X2018605Y1770924*
Y1771392*
X2018036D02*
X2018605D01*
X2000400Y1757642D02*
X2006400D01*
X2003400Y1754642D02*
Y1760642D01*
X2006605Y1761642D02*
X2006491Y1761955D01*
X2006264Y1762267*
X2006036Y1762424*
X2005582*
X2005355Y1762267*
X2005127Y1761955*
X2005014Y1761642*
X2004900Y1761174*
Y1760392*
X2005014Y1759924*
X2005127Y1759611*
X2005355Y1759299*
X2005582Y1759142*
X2006036*
X2006264Y1759299*
X2006491Y1759611*
X2006605Y1759924*
Y1760392*
X2006036D02*
X2006605D01*
X2000400Y1751642D02*
X2006400D01*
X2003400Y1748642D02*
Y1754642D01*
X2006605Y1755642D02*
X2006491Y1755955D01*
X2006264Y1756267*
X2006036Y1756424*
X2005582*
X2005355Y1756267*
X2005127Y1755955*
X2005014Y1755642*
X2004900Y1755174*
Y1754392*
X2005014Y1753924*
X2005127Y1753611*
X2005355Y1753299*
X2005582Y1753142*
X2006036*
X2006264Y1753299*
X2006491Y1753611*
X2006605Y1753924*
Y1754392*
X2006036D02*
X2006605D01*
X1907668Y1829595D02*
X1913668D01*
X1910668Y1826595D02*
Y1832595D01*
X1913872Y1833595D02*
X1913759Y1833908D01*
X1913531Y1834220*
X1913304Y1834376*
X1912850*
X1912622Y1834220*
X1912395Y1833908*
X1912281Y1833595*
X1912168Y1833126*
Y1832345*
X1912281Y1831876*
X1912395Y1831564*
X1912622Y1831251*
X1912850Y1831095*
X1913304*
X1913531Y1831251*
X1913759Y1831564*
X1913872Y1831876*
Y1832345*
X1913304D02*
X1913872D01*
X1893168Y1841595D02*
X1899168D01*
X1896168Y1838595D02*
Y1844595D01*
X1899372Y1845595D02*
X1899259Y1845908D01*
X1899031Y1846220*
X1898804Y1846376*
X1898350*
X1898122Y1846220*
X1897895Y1845908*
X1897781Y1845595*
X1897668Y1845126*
Y1844345*
X1897781Y1843876*
X1897895Y1843564*
X1898122Y1843251*
X1898350Y1843095*
X1898804*
X1899031Y1843251*
X1899259Y1843564*
X1899372Y1843876*
Y1844345*
X1898804D02*
X1899372D01*
X1908600Y1837442D02*
X1914600D01*
X1911600Y1834442D02*
Y1840442D01*
X1914805Y1841442D02*
X1914691Y1841755D01*
X1914464Y1842067*
X1914236Y1842224*
X1913782*
X1913555Y1842067*
X1913327Y1841755*
X1913214Y1841442*
X1913100Y1840974*
Y1840192*
X1913214Y1839724*
X1913327Y1839411*
X1913555Y1839099*
X1913782Y1838942*
X1914236*
X1914464Y1839099*
X1914691Y1839411*
X1914805Y1839724*
Y1840192*
X1914236D02*
X1914805D01*
X1883668Y1847095D02*
X1889668D01*
X1886668Y1844095D02*
Y1850095D01*
X1889872Y1851095D02*
X1889759Y1851408D01*
X1889531Y1851720*
X1889304Y1851876*
X1888850*
X1888622Y1851720*
X1888395Y1851408*
X1888281Y1851095*
X1888168Y1850626*
Y1849845*
X1888281Y1849376*
X1888395Y1849064*
X1888622Y1848751*
X1888850Y1848595*
X1889304*
X1889531Y1848751*
X1889759Y1849064*
X1889872Y1849376*
Y1849845*
X1889304D02*
X1889872D01*
X1893168Y1847095D02*
X1899168D01*
X1896168Y1844095D02*
Y1850095D01*
X1899372Y1851095D02*
X1899259Y1851408D01*
X1899031Y1851720*
X1898804Y1851876*
X1898350*
X1898122Y1851720*
X1897895Y1851408*
X1897781Y1851095*
X1897668Y1850626*
Y1849845*
X1897781Y1849376*
X1897895Y1849064*
X1898122Y1848751*
X1898350Y1848595*
X1898804*
X1899031Y1848751*
X1899259Y1849064*
X1899372Y1849376*
Y1849845*
X1898804D02*
X1899372D01*
X1883668Y1842095D02*
X1889668D01*
X1886668Y1839095D02*
Y1845095D01*
X1889872Y1846095D02*
X1889759Y1846408D01*
X1889531Y1846720*
X1889304Y1846876*
X1888850*
X1888622Y1846720*
X1888395Y1846408*
X1888281Y1846095*
X1888168Y1845626*
Y1844845*
X1888281Y1844376*
X1888395Y1844064*
X1888622Y1843751*
X1888850Y1843595*
X1889304*
X1889531Y1843751*
X1889759Y1844064*
X1889872Y1844376*
Y1844845*
X1889304D02*
X1889872D01*
X1919600Y1833095D02*
X1925600D01*
X1922600Y1830095D02*
Y1836095D01*
X1925805Y1837095D02*
X1925691Y1837408D01*
X1925464Y1837720*
X1925236Y1837876*
X1924782*
X1924555Y1837720*
X1924327Y1837408*
X1924214Y1837095*
X1924100Y1836626*
Y1835845*
X1924214Y1835376*
X1924327Y1835064*
X1924555Y1834751*
X1924782Y1834595*
X1925236*
X1925464Y1834751*
X1925691Y1835064*
X1925805Y1835376*
Y1835845*
X1925236D02*
X1925805D01*
X1938449Y1843558D02*
X1944449D01*
X1941449Y1840558D02*
Y1846558D01*
X1944653Y1847558D02*
X1944540Y1847870D01*
X1944312Y1848183*
X1944085Y1848339*
X1943631*
X1943403Y1848183*
X1943176Y1847870*
X1943062Y1847558*
X1942949Y1847089*
Y1846308*
X1943062Y1845839*
X1943176Y1845526*
X1943403Y1845214*
X1943631Y1845058*
X1944085*
X1944312Y1845214*
X1944540Y1845526*
X1944653Y1845839*
Y1846308*
X1944085D02*
X1944653D01*
X1912200Y1840542D02*
X1918200D01*
X1915200Y1837542D02*
Y1843542D01*
X1916700Y1845324D02*
Y1842042D01*
X1918291Y1845324D02*
Y1842042D01*
X1916700Y1843761D02*
X1918291D01*
X1987449Y1825747D02*
X1993449D01*
X1990449Y1822747D02*
Y1828747D01*
X1993653Y1829747D02*
X1993540Y1830059D01*
X1993312Y1830372*
X1993085Y1830528*
X1992631*
X1992403Y1830372*
X1992176Y1830059*
X1992062Y1829747*
X1991949Y1829278*
Y1828497*
X1992062Y1828028*
X1992176Y1827715*
X1992403Y1827403*
X1992631Y1827247*
X1993085*
X1993312Y1827403*
X1993540Y1827715*
X1993653Y1828028*
Y1828497*
X1993085D02*
X1993653D01*
X1945353Y1825558D02*
X1951353D01*
X1948353Y1822558D02*
Y1828558D01*
X1951557Y1829558D02*
X1951444Y1829870D01*
X1951216Y1830183*
X1950989Y1830339*
X1950535*
X1950307Y1830183*
X1950080Y1829870*
X1949966Y1829558*
X1949853Y1829089*
Y1828308*
X1949966Y1827839*
X1950080Y1827526*
X1950307Y1827214*
X1950535Y1827058*
X1950989*
X1951216Y1827214*
X1951444Y1827526*
X1951557Y1827839*
Y1828308*
X1950989D02*
X1951557D01*
X1948400Y1843642D02*
X1954400D01*
X1951400Y1840642D02*
Y1846642D01*
X1954605Y1847642D02*
X1954491Y1847955D01*
X1954264Y1848267*
X1954036Y1848424*
X1953582*
X1953355Y1848267*
X1953127Y1847955*
X1953014Y1847642*
X1952900Y1847174*
Y1846392*
X1953014Y1845924*
X1953127Y1845611*
X1953355Y1845299*
X1953582Y1845142*
X1954036*
X1954264Y1845299*
X1954491Y1845611*
X1954605Y1845924*
Y1846392*
X1954036D02*
X1954605D01*
X1951100Y1828542D02*
X1957100D01*
X1954100Y1825542D02*
Y1831542D01*
X1957305Y1832542D02*
X1957191Y1832855D01*
X1956964Y1833167*
X1956736Y1833324*
X1956282*
X1956055Y1833167*
X1955827Y1832855*
X1955714Y1832542*
X1955600Y1832074*
Y1831292*
X1955714Y1830824*
X1955827Y1830511*
X1956055Y1830199*
X1956282Y1830042*
X1956736*
X1956964Y1830199*
X1957191Y1830511*
X1957305Y1830824*
Y1831292*
X1956736D02*
X1957305D01*
X1956449Y1831558D02*
X1962449D01*
X1959449Y1828558D02*
Y1834558D01*
X1962653Y1835558D02*
X1962540Y1835870D01*
X1962312Y1836183*
X1962085Y1836339*
X1961631*
X1961403Y1836183*
X1961176Y1835870*
X1961062Y1835558*
X1960949Y1835089*
Y1834308*
X1961062Y1833839*
X1961176Y1833526*
X1961403Y1833214*
X1961631Y1833058*
X1962085*
X1962312Y1833214*
X1962540Y1833526*
X1962653Y1833839*
Y1834308*
X1962085D02*
X1962653D01*
X1968168Y1832064D02*
X1974168D01*
X1971168Y1829064D02*
Y1835064D01*
X1974372Y1836064D02*
X1974259Y1836376D01*
X1974031Y1836689*
X1973804Y1836845*
X1973350*
X1973122Y1836689*
X1972895Y1836376*
X1972781Y1836064*
X1972668Y1835595*
Y1834814*
X1972781Y1834345*
X1972895Y1834032*
X1973122Y1833720*
X1973350Y1833564*
X1973804*
X1974031Y1833720*
X1974259Y1834032*
X1974372Y1834345*
Y1834814*
X1973804D02*
X1974372D01*
X1946268Y1828684D02*
X1952268D01*
X1949268Y1825684D02*
Y1831684D01*
X1952472Y1832684D02*
X1952359Y1832997D01*
X1952131Y1833309*
X1951904Y1833465*
X1951450*
X1951222Y1833309*
X1950995Y1832997*
X1950881Y1832684*
X1950768Y1832215*
Y1831434*
X1950881Y1830965*
X1950995Y1830653*
X1951222Y1830340*
X1951450Y1830184*
X1951904*
X1952131Y1830340*
X1952359Y1830653*
X1952472Y1830965*
Y1831434*
X1951904D02*
X1952472D01*
X1963800Y1834558D02*
X1969800D01*
X1966800Y1831558D02*
Y1837558D01*
X1968300Y1839339D02*
Y1836058D01*
X1969891Y1839339D02*
Y1836058D01*
X1968300Y1837776D02*
X1969891D01*
X1932949Y1843558D02*
X1938949D01*
X1935949Y1840558D02*
Y1846558D01*
X1939153Y1847558D02*
X1939040Y1847870D01*
X1938812Y1848183*
X1938585Y1848339*
X1938131*
X1937903Y1848183*
X1937676Y1847870*
X1937562Y1847558*
X1937449Y1847089*
Y1846308*
X1937562Y1845839*
X1937676Y1845526*
X1937903Y1845214*
X1938131Y1845058*
X1938585*
X1938812Y1845214*
X1939040Y1845526*
X1939153Y1845839*
Y1846308*
X1938585D02*
X1939153D01*
X1921600Y1837442D02*
X1927600D01*
X1924600Y1834442D02*
Y1840442D01*
X1927805Y1841442D02*
X1927691Y1841755D01*
X1927464Y1842067*
X1927236Y1842224*
X1926782*
X1926555Y1842067*
X1926327Y1841755*
X1926214Y1841442*
X1926100Y1840974*
Y1840192*
X1926214Y1839724*
X1926327Y1839411*
X1926555Y1839099*
X1926782Y1838942*
X1927236*
X1927464Y1839099*
X1927691Y1839411*
X1927805Y1839724*
Y1840192*
X1927236D02*
X1927805D01*
X1968400Y1843742D02*
X1974400D01*
X1971400Y1840742D02*
Y1846742D01*
X1974605Y1847742D02*
X1974491Y1848055D01*
X1974264Y1848367*
X1974036Y1848524*
X1973582*
X1973355Y1848367*
X1973127Y1848055*
X1973014Y1847742*
X1972900Y1847274*
Y1846492*
X1973014Y1846024*
X1973127Y1845711*
X1973355Y1845399*
X1973582Y1845242*
X1974036*
X1974264Y1845399*
X1974491Y1845711*
X1974605Y1846024*
Y1846492*
X1974036D02*
X1974605D01*
X1918168Y1851595D02*
X1924168D01*
X1921168Y1848595D02*
Y1854595D01*
X1924372Y1855595D02*
X1924259Y1855908D01*
X1924031Y1856220*
X1923804Y1856376*
X1923350*
X1923122Y1856220*
X1922895Y1855908*
X1922781Y1855595*
X1922668Y1855126*
Y1854345*
X1922781Y1853876*
X1922895Y1853564*
X1923122Y1853251*
X1923350Y1853095*
X1923804*
X1924031Y1853251*
X1924259Y1853564*
X1924372Y1853876*
Y1854345*
X1923804D02*
X1924372D01*
X1984949Y1828747D02*
X1990949D01*
X1987949Y1825747D02*
Y1831747D01*
X1991153Y1832747D02*
X1991040Y1833059D01*
X1990812Y1833372*
X1990585Y1833528*
X1990131*
X1989903Y1833372*
X1989676Y1833059*
X1989562Y1832747*
X1989449Y1832278*
Y1831497*
X1989562Y1831028*
X1989676Y1830715*
X1989903Y1830403*
X1990131Y1830247*
X1990585*
X1990812Y1830403*
X1991040Y1830715*
X1991153Y1831028*
Y1831497*
X1990585D02*
X1991153D01*
X1989949Y1828747D02*
X1995949D01*
X1992949Y1825747D02*
Y1831747D01*
X1996153Y1832747D02*
X1996040Y1833059D01*
X1995812Y1833372*
X1995585Y1833528*
X1995131*
X1994903Y1833372*
X1994676Y1833059*
X1994562Y1832747*
X1994449Y1832278*
Y1831497*
X1994562Y1831028*
X1994676Y1830715*
X1994903Y1830403*
X1995131Y1830247*
X1995585*
X1995812Y1830403*
X1996040Y1830715*
X1996153Y1831028*
Y1831497*
X1995585D02*
X1996153D01*
X1958400Y1843642D02*
X1964400D01*
X1961400Y1840642D02*
Y1846642D01*
X1964605Y1847642D02*
X1964491Y1847955D01*
X1964264Y1848267*
X1964036Y1848424*
X1963582*
X1963355Y1848267*
X1963127Y1847955*
X1963014Y1847642*
X1962900Y1847174*
Y1846392*
X1963014Y1845924*
X1963127Y1845611*
X1963355Y1845299*
X1963582Y1845142*
X1964036*
X1964264Y1845299*
X1964491Y1845611*
X1964605Y1845924*
Y1846392*
X1964036D02*
X1964605D01*
X1920200Y1840542D02*
X1926200D01*
X1923200Y1837542D02*
Y1843542D01*
X1924700Y1845324D02*
Y1842042D01*
X1926291Y1845324D02*
Y1842042D01*
X1924700Y1843761D02*
X1926291D01*
X1926949Y1834558D02*
X1932949D01*
X1929949Y1831558D02*
Y1837558D01*
X1931449Y1839339D02*
Y1836058D01*
X1933040Y1839339D02*
Y1836058D01*
X1931449Y1837776D02*
X1933040D01*
X2016400Y1839642D02*
X2022400D01*
X2019400Y1836642D02*
Y1842642D01*
X2022605Y1843642D02*
X2022491Y1843955D01*
X2022264Y1844267*
X2022036Y1844424*
X2021582*
X2021355Y1844267*
X2021127Y1843955*
X2021014Y1843642*
X2020900Y1843174*
Y1842392*
X2021014Y1841924*
X2021127Y1841611*
X2021355Y1841299*
X2021582Y1841142*
X2022036*
X2022264Y1841299*
X2022491Y1841611*
X2022605Y1841924*
Y1842392*
X2022036D02*
X2022605D01*
X2016400Y1834642D02*
X2022400D01*
X2019400Y1831642D02*
Y1837642D01*
X2022605Y1838642D02*
X2022491Y1838955D01*
X2022264Y1839267*
X2022036Y1839424*
X2021582*
X2021355Y1839267*
X2021127Y1838955*
X2021014Y1838642*
X2020900Y1838174*
Y1837392*
X2021014Y1836924*
X2021127Y1836611*
X2021355Y1836299*
X2021582Y1836142*
X2022036*
X2022264Y1836299*
X2022491Y1836611*
X2022605Y1836924*
Y1837392*
X2022036D02*
X2022605D01*
X2016400Y1829642D02*
X2022400D01*
X2019400Y1826642D02*
Y1832642D01*
X2022605Y1833642D02*
X2022491Y1833955D01*
X2022264Y1834267*
X2022036Y1834424*
X2021582*
X2021355Y1834267*
X2021127Y1833955*
X2021014Y1833642*
X2020900Y1833174*
Y1832392*
X2021014Y1831924*
X2021127Y1831611*
X2021355Y1831299*
X2021582Y1831142*
X2022036*
X2022264Y1831299*
X2022491Y1831611*
X2022605Y1831924*
Y1832392*
X2022036D02*
X2022605D01*
X1882709Y1721432D02*
G03X1891764Y1712377I9055J0D01*
G01X2031134*
G03X2040189Y1721432I-0J9055*
G01Y1860802*
G03X2031134Y1869858I-9055J0*
G01X1891764*
G03X1882709Y1860802I-0J-9056*
G01Y1721432*
X1897669D02*
G03X1897669I-5905J0D01*
G01X2037039D02*
G03X2037039I-5905J0D01*
G01X1897669Y1860802D02*
G03X1897669I-5905J0D01*
G01X2037094Y1860758D02*
G03X2037094I-5905J0D01*
G01X1859000Y1521442D02*
X2141000D01*
X1859000Y1497442D02*
X2141000D01*
X1859000Y1473442D02*
X2141000D01*
X1859000Y1449442D02*
X2141000D01*
X1859000Y1425442D02*
X2141000D01*
X1859000Y1401442D02*
X2141000D01*
X1859000Y1377442D02*
X2141000D01*
X1859000Y1353442D02*
X2141000D01*
X1859000Y1329442D02*
X2141000D01*
X1859000Y1521442D02*
Y1329442D01*
X1943000Y1521442D02*
Y1329442D01*
X1979000Y1521442D02*
Y1329442D01*
X2015000Y1521442D02*
Y1329442D01*
X2069000Y1521442D02*
Y1329442D01*
X2141000Y1521442D02*
Y1329442D01*
X2097682Y1511317D02*
Y1503442D01*
X2095773Y1511317D02*
X2099591D01*
X2103682D02*
X2103136Y1510942D01*
X2102591Y1510192*
X2102318Y1509442*
X2102045Y1508317*
Y1506442*
X2102318Y1505317*
X2102591Y1504567*
X2103136Y1503817*
X2103682Y1503442*
X2104773*
X2105318Y1503817*
X2105864Y1504567*
X2106136Y1505317*
X2106409Y1506442*
Y1508317*
X2106136Y1509442*
X2105864Y1510192*
X2105318Y1510942*
X2104773Y1511317*
X2103682*
X2108864D02*
Y1503442D01*
X2112136*
X1865545Y1487317D02*
X1868545D01*
X1866909Y1484317*
X1867727*
X1868273Y1483942*
X1868545Y1483567*
X1868818Y1482442*
Y1481692*
X1868545Y1480567*
X1868000Y1479817*
X1867182Y1479442*
X1866364*
X1865545Y1479817*
X1865273Y1480192*
X1865000Y1480942*
X1874818Y1487317D02*
X1872091D01*
X1871818Y1483942*
X1872091Y1484317*
X1872909Y1484692*
X1873727*
X1874545Y1484317*
X1875091Y1483567*
X1875364Y1482442*
X1875091Y1481692*
X1874818Y1480567*
X1874273Y1479817*
X1873455Y1479442*
X1872636*
X1871818Y1479817*
X1871545Y1480192*
X1871273Y1480942*
X1955318Y1487317D02*
X1958318D01*
X1956682Y1484317*
X1957500*
X1958045Y1483942*
X1958318Y1483567*
X1958591Y1482442*
Y1481692*
X1958318Y1480567*
X1957773Y1479817*
X1956955Y1479442*
X1956136*
X1955318Y1479817*
X1955045Y1480192*
X1954773Y1480942*
X1963773Y1487317D02*
X1961045Y1482067D01*
X1965136*
X1963773Y1487317D02*
Y1479442D01*
X1991000Y1485442D02*
X2003000D01*
X1997000Y1479442D02*
Y1491442D01*
X2000000Y1494742D02*
Y1488442D01*
Y1494742D02*
X2001964D01*
X2002618Y1494442*
X2002836Y1494142*
X2003055Y1493542*
Y1492942*
X2002836Y1492342*
X2002618Y1492042*
X2001964Y1491742*
X2000000D02*
X2001964D01*
X2002618Y1491442*
X2002836Y1491142*
X2003055Y1490542*
Y1489642*
X2002836Y1489042*
X2002618Y1488742*
X2001964Y1488442*
X2000000*
X2023636Y1487317D02*
X2025818Y1483567D01*
Y1479442*
X2028000Y1487317D02*
X2025818Y1483567D01*
X2030455Y1487317D02*
Y1479442D01*
Y1487317D02*
X2034000D01*
X2030455Y1483567D02*
X2032636D01*
X2030455Y1479442D02*
X2034000D01*
X2040273Y1486192D02*
X2039727Y1486942D01*
X2038909Y1487317*
X2037818*
X2037000Y1486942*
X2036455Y1486192*
Y1485442*
X2036727Y1484692*
X2037000Y1484317*
X2037545Y1483942*
X2039182Y1483192*
X2039727Y1482817*
X2040000Y1482442*
X2040273Y1481692*
Y1480567*
X2039727Y1479817*
X2038909Y1479442*
X2037818*
X2037000Y1479817*
X2036455Y1480567*
X2082545Y1486192D02*
Y1479442D01*
X2080091Y1482817D02*
X2085000D01*
X2092364Y1488817D02*
X2087455Y1476817D01*
X2094818Y1482817D02*
X2099727D01*
X2103818Y1487317D02*
X2103000Y1486942D01*
X2102455Y1485817*
X2102182Y1483942*
Y1482817*
X2102455Y1480942*
X2103000Y1479817*
X2103818Y1479442*
X2104364*
X2105182Y1479817*
X2105727Y1480942*
X2106000Y1482817*
Y1483942*
X2105727Y1485817*
X2105182Y1486942*
X2104364Y1487317*
X2103818*
X2108727Y1480192D02*
X2108455Y1479817D01*
X2108727Y1479442*
X2109000Y1479817*
X2108727Y1480192*
X2113091Y1487317D02*
X2112273Y1486942D01*
X2111727Y1485817*
X2111455Y1483942*
Y1482817*
X2111727Y1480942*
X2112273Y1479817*
X2113091Y1479442*
X2113636*
X2114455Y1479817*
X2115000Y1480942*
X2115273Y1482817*
Y1483942*
X2115000Y1485817*
X2114455Y1486942*
X2113636Y1487317*
X2113091*
X2119364D02*
X2118545Y1486942D01*
X2118000Y1485817*
X2117727Y1483942*
Y1482817*
X2118000Y1480942*
X2118545Y1479817*
X2119364Y1479442*
X2119909*
X2120727Y1479817*
X2121273Y1480942*
X2121545Y1482817*
Y1483942*
X2121273Y1485817*
X2120727Y1486942*
X2119909Y1487317*
X2119364*
X2124545D02*
X2127545D01*
X2125909Y1484317*
X2126727*
X2127273Y1483942*
X2127545Y1483567*
X2127818Y1482442*
Y1481692*
X2127545Y1480567*
X2127000Y1479817*
X2126182Y1479442*
X2125364*
X2124545Y1479817*
X2124273Y1480192*
X2124000Y1480942*
X1868545Y1463317D02*
X1865818D01*
X1865545Y1459942*
X1865818Y1460317*
X1866636Y1460692*
X1867455*
X1868273Y1460317*
X1868818Y1459567*
X1869091Y1458442*
X1868818Y1457692*
X1868545Y1456567*
X1868000Y1455817*
X1867182Y1455442*
X1866364*
X1865545Y1455817*
X1865273Y1456192*
X1865000Y1456942*
X1875091Y1460692D02*
X1874818Y1459567D01*
X1874273Y1458817*
X1873455Y1458442*
X1873182*
X1872364Y1458817*
X1871818Y1459567*
X1871545Y1460692*
Y1461067*
X1871818Y1462192*
X1872364Y1462942*
X1873182Y1463317*
X1873455*
X1874273Y1462942*
X1874818Y1462192*
X1875091Y1460692*
Y1458817*
X1874818Y1456942*
X1874273Y1455817*
X1873455Y1455442*
X1872909*
X1872091Y1455817*
X1871818Y1456567*
X1877818Y1456192D02*
X1877545Y1455817D01*
X1877818Y1455442*
X1878091Y1455817*
X1877818Y1456192*
X1882182Y1463317D02*
X1881364Y1462942D01*
X1880818Y1461817*
X1880545Y1459942*
Y1458817*
X1880818Y1456942*
X1881364Y1455817*
X1882182Y1455442*
X1882727*
X1883545Y1455817*
X1884091Y1456942*
X1884364Y1458817*
Y1459942*
X1884091Y1461817*
X1883545Y1462942*
X1882727Y1463317*
X1882182*
X1890091Y1462192D02*
X1889818Y1462942D01*
X1889000Y1463317*
X1888455*
X1887636Y1462942*
X1887091Y1461817*
X1886818Y1459942*
Y1458067*
X1887091Y1456567*
X1887636Y1455817*
X1888455Y1455442*
X1888727*
X1889545Y1455817*
X1890091Y1456567*
X1890364Y1457692*
Y1458067*
X1890091Y1459192*
X1889545Y1459942*
X1888727Y1460317*
X1888455*
X1887636Y1459942*
X1887091Y1459192*
X1886818Y1458067*
X1961455Y1463317D02*
X1958727D01*
X1958455Y1459942*
X1958727Y1460317*
X1959545Y1460692*
X1960364*
X1961182Y1460317*
X1961727Y1459567*
X1962000Y1458442*
X1961727Y1457692*
X1961455Y1456567*
X1960909Y1455817*
X1960091Y1455442*
X1959273*
X1958455Y1455817*
X1958182Y1456192*
X1957909Y1456942*
X1991000Y1461442D02*
X2003000D01*
X1997000Y1455442D02*
Y1467442D01*
X2003273Y1469242D02*
X2003055Y1469842D01*
X2002618Y1470442*
X2002182Y1470742*
X2001309*
X2000873Y1470442*
X2000436Y1469842*
X2000218Y1469242*
X2000000Y1468342*
Y1466842*
X2000218Y1465942*
X2000436Y1465342*
X2000873Y1464742*
X2001309Y1464442*
X2002182*
X2002618Y1464742*
X2003055Y1465342*
X2003273Y1465942*
X2023636Y1463317D02*
X2025818Y1459567D01*
Y1455442*
X2028000Y1463317D02*
X2025818Y1459567D01*
X2030455Y1463317D02*
Y1455442D01*
Y1463317D02*
X2034000D01*
X2030455Y1459567D02*
X2032636D01*
X2030455Y1455442D02*
X2034000D01*
X2040273Y1462192D02*
X2039727Y1462942D01*
X2038909Y1463317*
X2037818*
X2037000Y1462942*
X2036455Y1462192*
Y1461442*
X2036727Y1460692*
X2037000Y1460317*
X2037545Y1459942*
X2039182Y1459192*
X2039727Y1458817*
X2040000Y1458442*
X2040273Y1457692*
Y1456567*
X2039727Y1455817*
X2038909Y1455442*
X2037818*
X2037000Y1455817*
X2036455Y1456567*
X2082545Y1462192D02*
Y1455442D01*
X2080091Y1458817D02*
X2085000D01*
X2092364Y1464817D02*
X2087455Y1452817D01*
X2094818Y1458817D02*
X2099727D01*
X2103818Y1463317D02*
X2103000Y1462942D01*
X2102455Y1461817*
X2102182Y1459942*
Y1458817*
X2102455Y1456942*
X2103000Y1455817*
X2103818Y1455442*
X2104364*
X2105182Y1455817*
X2105727Y1456942*
X2106000Y1458817*
Y1459942*
X2105727Y1461817*
X2105182Y1462942*
X2104364Y1463317*
X2103818*
X2108727Y1456192D02*
X2108455Y1455817D01*
X2108727Y1455442*
X2109000Y1455817*
X2108727Y1456192*
X2113091Y1463317D02*
X2112273Y1462942D01*
X2111727Y1461817*
X2111455Y1459942*
Y1458817*
X2111727Y1456942*
X2112273Y1455817*
X2113091Y1455442*
X2113636*
X2114455Y1455817*
X2115000Y1456942*
X2115273Y1458817*
Y1459942*
X2115000Y1461817*
X2114455Y1462942*
X2113636Y1463317*
X2113091*
X2119364D02*
X2118545Y1462942D01*
X2118000Y1461817*
X2117727Y1459942*
Y1458817*
X2118000Y1456942*
X2118545Y1455817*
X2119364Y1455442*
X2119909*
X2120727Y1455817*
X2121273Y1456942*
X2121545Y1458817*
Y1459942*
X2121273Y1461817*
X2120727Y1462942*
X2119909Y1463317*
X2119364*
X2124545D02*
X2127545D01*
X2125909Y1460317*
X2126727*
X2127273Y1459942*
X2127545Y1459567*
X2127818Y1458442*
Y1457692*
X2127545Y1456567*
X2127000Y1455817*
X2126182Y1455442*
X2125364*
X2124545Y1455817*
X2124273Y1456192*
X2124000Y1456942*
X1865273Y1437442D02*
Y1437817D01*
X1865545Y1438567*
X1865818Y1438942*
X1866364Y1439317*
X1867455*
X1868000Y1438942*
X1868273Y1438567*
X1868545Y1437817*
Y1437067*
X1868273Y1436317*
X1867727Y1435192*
X1865000Y1431442*
X1868818*
X1875091Y1439317D02*
X1872364Y1431442D01*
X1871273Y1439317D02*
X1875091D01*
X1877818Y1432192D02*
X1877545Y1431817D01*
X1877818Y1431442*
X1878091Y1431817*
X1877818Y1432192*
X1884091Y1439317D02*
X1881364D01*
X1881091Y1435942*
X1881364Y1436317*
X1882182Y1436692*
X1883000*
X1883818Y1436317*
X1884364Y1435567*
X1884636Y1434442*
X1884364Y1433692*
X1884091Y1432567*
X1883545Y1431817*
X1882727Y1431442*
X1881909*
X1881091Y1431817*
X1880818Y1432192*
X1880545Y1432942*
X1890364Y1438192D02*
X1890091Y1438942D01*
X1889273Y1439317*
X1888727*
X1887909Y1438942*
X1887364Y1437817*
X1887091Y1435942*
Y1434067*
X1887364Y1432567*
X1887909Y1431817*
X1888727Y1431442*
X1889000*
X1889818Y1431817*
X1890364Y1432567*
X1890636Y1433692*
Y1434067*
X1890364Y1435192*
X1889818Y1435942*
X1889000Y1436317*
X1888727*
X1887909Y1435942*
X1887364Y1435192*
X1887091Y1434067*
X1899364Y1436692D02*
X1902364Y1431442D01*
Y1436692D02*
X1899364Y1431442D01*
X1913818Y1439317D02*
X1911091Y1434067D01*
X1915182*
X1913818Y1439317D02*
Y1431442D01*
X1918182Y1439317D02*
X1921182D01*
X1919545Y1436317*
X1920364*
X1920909Y1435942*
X1921182Y1435567*
X1921455Y1434442*
Y1433692*
X1921182Y1432567*
X1920636Y1431817*
X1919818Y1431442*
X1919000*
X1918182Y1431817*
X1917909Y1432192*
X1917636Y1432942*
X1924182Y1432192D02*
X1923909Y1431817D01*
X1924182Y1431442*
X1924455Y1431817*
X1924182Y1432192*
X1927455Y1439317D02*
X1930455D01*
X1928818Y1436317*
X1929636*
X1930182Y1435942*
X1930455Y1435567*
X1930727Y1434442*
Y1433692*
X1930455Y1432567*
X1929909Y1431817*
X1929091Y1431442*
X1928273*
X1927455Y1431817*
X1927182Y1432192*
X1926909Y1432942*
X1933182Y1437817D02*
X1933727Y1438192D01*
X1934545Y1439317*
Y1431442*
X1958318Y1437442D02*
Y1437817D01*
X1958591Y1438567*
X1958864Y1438942*
X1959409Y1439317*
X1960500*
X1961045Y1438942*
X1961318Y1438567*
X1961591Y1437817*
Y1437067*
X1961318Y1436317*
X1960773Y1435192*
X1958045Y1431442*
X1961864*
X1991000Y1437442D02*
X2003000D01*
X1997000Y1431442D02*
Y1443442D01*
X2000000Y1446742D02*
Y1440442D01*
Y1446742D02*
X2001527D01*
X2002182Y1446442*
X2002618Y1445842*
X2002836Y1445242*
X2003055Y1444342*
Y1442842*
X2002836Y1441942*
X2002618Y1441342*
X2002182Y1440742*
X2001527Y1440442*
X2000000*
X2023636Y1439317D02*
X2025818Y1435567D01*
Y1431442*
X2028000Y1439317D02*
X2025818Y1435567D01*
X2030455Y1439317D02*
Y1431442D01*
Y1439317D02*
X2034000D01*
X2030455Y1435567D02*
X2032636D01*
X2030455Y1431442D02*
X2034000D01*
X2040273Y1438192D02*
X2039727Y1438942D01*
X2038909Y1439317*
X2037818*
X2037000Y1438942*
X2036455Y1438192*
Y1437442*
X2036727Y1436692*
X2037000Y1436317*
X2037545Y1435942*
X2039182Y1435192*
X2039727Y1434817*
X2040000Y1434442*
X2040273Y1433692*
Y1432567*
X2039727Y1431817*
X2038909Y1431442*
X2037818*
X2037000Y1431817*
X2036455Y1432567*
X2082545Y1438192D02*
Y1431442D01*
X2080091Y1434817D02*
X2085000D01*
X2092364Y1440817D02*
X2087455Y1428817D01*
X2094818Y1434817D02*
X2099727D01*
X2103818Y1439317D02*
X2103000Y1438942D01*
X2102455Y1437817*
X2102182Y1435942*
Y1434817*
X2102455Y1432942*
X2103000Y1431817*
X2103818Y1431442*
X2104364*
X2105182Y1431817*
X2105727Y1432942*
X2106000Y1434817*
Y1435942*
X2105727Y1437817*
X2105182Y1438942*
X2104364Y1439317*
X2103818*
X2108727Y1432192D02*
X2108455Y1431817D01*
X2108727Y1431442*
X2109000Y1431817*
X2108727Y1432192*
X2113091Y1439317D02*
X2112273Y1438942D01*
X2111727Y1437817*
X2111455Y1435942*
Y1434817*
X2111727Y1432942*
X2112273Y1431817*
X2113091Y1431442*
X2113636*
X2114455Y1431817*
X2115000Y1432942*
X2115273Y1434817*
Y1435942*
X2115000Y1437817*
X2114455Y1438942*
X2113636Y1439317*
X2113091*
X2119364D02*
X2118545Y1438942D01*
X2118000Y1437817*
X2117727Y1435942*
Y1434817*
X2118000Y1432942*
X2118545Y1431817*
X2119364Y1431442*
X2119909*
X2120727Y1431817*
X2121273Y1432942*
X2121545Y1434817*
Y1435942*
X2121273Y1437817*
X2120727Y1438942*
X2119909Y1439317*
X2119364*
X2124545D02*
X2127545D01*
X2125909Y1436317*
X2126727*
X2127273Y1435942*
X2127545Y1435567*
X2127818Y1434442*
Y1433692*
X2127545Y1432567*
X2127000Y1431817*
X2126182Y1431442*
X2125364*
X2124545Y1431817*
X2124273Y1432192*
X2124000Y1432942*
X1865273Y1413442D02*
Y1413817D01*
X1865545Y1414567*
X1865818Y1414942*
X1866364Y1415317*
X1867455*
X1868000Y1414942*
X1868273Y1414567*
X1868545Y1413817*
Y1413067*
X1868273Y1412317*
X1867727Y1411192*
X1865000Y1407442*
X1868818*
X1875091Y1415317D02*
X1872364Y1407442D01*
X1871273Y1415317D02*
X1875091D01*
X1877818Y1408192D02*
X1877545Y1407817D01*
X1877818Y1407442*
X1878091Y1407817*
X1877818Y1408192*
X1884091Y1415317D02*
X1881364D01*
X1881091Y1411942*
X1881364Y1412317*
X1882182Y1412692*
X1883000*
X1883818Y1412317*
X1884364Y1411567*
X1884636Y1410442*
X1884364Y1409692*
X1884091Y1408567*
X1883545Y1407817*
X1882727Y1407442*
X1881909*
X1881091Y1407817*
X1880818Y1408192*
X1880545Y1408942*
X1890364Y1414192D02*
X1890091Y1414942D01*
X1889273Y1415317*
X1888727*
X1887909Y1414942*
X1887364Y1413817*
X1887091Y1411942*
Y1410067*
X1887364Y1408567*
X1887909Y1407817*
X1888727Y1407442*
X1889000*
X1889818Y1407817*
X1890364Y1408567*
X1890636Y1409692*
Y1410067*
X1890364Y1411192*
X1889818Y1411942*
X1889000Y1412317*
X1888727*
X1887909Y1411942*
X1887364Y1411192*
X1887091Y1410067*
X1958318Y1413442D02*
Y1413817D01*
X1958591Y1414567*
X1958864Y1414942*
X1959409Y1415317*
X1960500*
X1961045Y1414942*
X1961318Y1414567*
X1961591Y1413817*
Y1413067*
X1961318Y1412317*
X1960773Y1411192*
X1958045Y1407442*
X1961864*
X1991000Y1413442D02*
X2003000D01*
X1997000Y1407442D02*
Y1419442D01*
X2000000Y1422742D02*
Y1416442D01*
Y1422742D02*
X2002836D01*
X2000000Y1419742D02*
X2001745D01*
X2000000Y1416442D02*
X2002836D01*
X2023636Y1415317D02*
X2025818Y1411567D01*
Y1407442*
X2028000Y1415317D02*
X2025818Y1411567D01*
X2030455Y1415317D02*
Y1407442D01*
Y1415317D02*
X2034000D01*
X2030455Y1411567D02*
X2032636D01*
X2030455Y1407442D02*
X2034000D01*
X2040273Y1414192D02*
X2039727Y1414942D01*
X2038909Y1415317*
X2037818*
X2037000Y1414942*
X2036455Y1414192*
Y1413442*
X2036727Y1412692*
X2037000Y1412317*
X2037545Y1411942*
X2039182Y1411192*
X2039727Y1410817*
X2040000Y1410442*
X2040273Y1409692*
Y1408567*
X2039727Y1407817*
X2038909Y1407442*
X2037818*
X2037000Y1407817*
X2036455Y1408567*
X2082545Y1414192D02*
Y1407442D01*
X2080091Y1410817D02*
X2085000D01*
X2092364Y1416817D02*
X2087455Y1404817D01*
X2094818Y1410817D02*
X2099727D01*
X2103818Y1415317D02*
X2103000Y1414942D01*
X2102455Y1413817*
X2102182Y1411942*
Y1410817*
X2102455Y1408942*
X2103000Y1407817*
X2103818Y1407442*
X2104364*
X2105182Y1407817*
X2105727Y1408942*
X2106000Y1410817*
Y1411942*
X2105727Y1413817*
X2105182Y1414942*
X2104364Y1415317*
X2103818*
X2108727Y1408192D02*
X2108455Y1407817D01*
X2108727Y1407442*
X2109000Y1407817*
X2108727Y1408192*
X2113091Y1415317D02*
X2112273Y1414942D01*
X2111727Y1413817*
X2111455Y1411942*
Y1410817*
X2111727Y1408942*
X2112273Y1407817*
X2113091Y1407442*
X2113636*
X2114455Y1407817*
X2115000Y1408942*
X2115273Y1410817*
Y1411942*
X2115000Y1413817*
X2114455Y1414942*
X2113636Y1415317*
X2113091*
X2119364D02*
X2118545Y1414942D01*
X2118000Y1413817*
X2117727Y1411942*
Y1410817*
X2118000Y1408942*
X2118545Y1407817*
X2119364Y1407442*
X2119909*
X2120727Y1407817*
X2121273Y1408942*
X2121545Y1410817*
Y1411942*
X2121273Y1413817*
X2120727Y1414942*
X2119909Y1415317*
X2119364*
X2124545D02*
X2127545D01*
X2125909Y1412317*
X2126727*
X2127273Y1411942*
X2127545Y1411567*
X2127818Y1410442*
Y1409692*
X2127545Y1408567*
X2127000Y1407817*
X2126182Y1407442*
X2125364*
X2124545Y1407817*
X2124273Y1408192*
X2124000Y1408942*
X1865545Y1391317D02*
X1868545D01*
X1866909Y1388317*
X1867727*
X1868273Y1387942*
X1868545Y1387567*
X1868818Y1386442*
Y1385692*
X1868545Y1384567*
X1868000Y1383817*
X1867182Y1383442*
X1866364*
X1865545Y1383817*
X1865273Y1384192*
X1865000Y1384942*
X1875091Y1391317D02*
X1872364Y1383442D01*
X1871273Y1391317D02*
X1875091D01*
X1955045Y1389442D02*
Y1389817D01*
X1955318Y1390567*
X1955591Y1390942*
X1956136Y1391317*
X1957227*
X1957773Y1390942*
X1958045Y1390567*
X1958318Y1389817*
Y1389067*
X1958045Y1388317*
X1957500Y1387192*
X1954773Y1383442*
X1958591*
X1963773Y1391317D02*
X1961045Y1386067D01*
X1965136*
X1963773Y1391317D02*
Y1383442D01*
X1991000Y1389442D02*
X2003000D01*
X1997000Y1383442D02*
Y1395442D01*
X2000000Y1398742D02*
Y1392442D01*
Y1398742D02*
X2002836D01*
X2000000Y1395742D02*
X2001745D01*
X2023636Y1391317D02*
X2025818Y1387567D01*
Y1383442*
X2028000Y1391317D02*
X2025818Y1387567D01*
X2030455Y1391317D02*
Y1383442D01*
Y1391317D02*
X2034000D01*
X2030455Y1387567D02*
X2032636D01*
X2030455Y1383442D02*
X2034000D01*
X2040273Y1390192D02*
X2039727Y1390942D01*
X2038909Y1391317*
X2037818*
X2037000Y1390942*
X2036455Y1390192*
Y1389442*
X2036727Y1388692*
X2037000Y1388317*
X2037545Y1387942*
X2039182Y1387192*
X2039727Y1386817*
X2040000Y1386442*
X2040273Y1385692*
Y1384567*
X2039727Y1383817*
X2038909Y1383442*
X2037818*
X2037000Y1383817*
X2036455Y1384567*
X2082545Y1390192D02*
Y1383442D01*
X2080091Y1386817D02*
X2085000D01*
X2092364Y1392817D02*
X2087455Y1380817D01*
X2094818Y1386817D02*
X2099727D01*
X2103818Y1391317D02*
X2103000Y1390942D01*
X2102455Y1389817*
X2102182Y1387942*
Y1386817*
X2102455Y1384942*
X2103000Y1383817*
X2103818Y1383442*
X2104364*
X2105182Y1383817*
X2105727Y1384942*
X2106000Y1386817*
Y1387942*
X2105727Y1389817*
X2105182Y1390942*
X2104364Y1391317*
X2103818*
X2108727Y1384192D02*
X2108455Y1383817D01*
X2108727Y1383442*
X2109000Y1383817*
X2108727Y1384192*
X2113091Y1391317D02*
X2112273Y1390942D01*
X2111727Y1389817*
X2111455Y1387942*
Y1386817*
X2111727Y1384942*
X2112273Y1383817*
X2113091Y1383442*
X2113636*
X2114455Y1383817*
X2115000Y1384942*
X2115273Y1386817*
Y1387942*
X2115000Y1389817*
X2114455Y1390942*
X2113636Y1391317*
X2113091*
X2119364D02*
X2118545Y1390942D01*
X2118000Y1389817*
X2117727Y1387942*
Y1386817*
X2118000Y1384942*
X2118545Y1383817*
X2119364Y1383442*
X2119909*
X2120727Y1383817*
X2121273Y1384942*
X2121545Y1386817*
Y1387942*
X2121273Y1389817*
X2120727Y1390942*
X2119909Y1391317*
X2119364*
X2124545D02*
X2127545D01*
X2125909Y1388317*
X2126727*
X2127273Y1387942*
X2127545Y1387567*
X2127818Y1386442*
Y1385692*
X2127545Y1384567*
X2127000Y1383817*
X2126182Y1383442*
X2125364*
X2124545Y1383817*
X2124273Y1384192*
X2124000Y1384942*
X1865000Y1365817D02*
X1865545Y1366192D01*
X1866364Y1367317*
Y1359442*
X1870455Y1367317D02*
X1869636Y1366942D01*
X1869091Y1365817*
X1868818Y1363942*
Y1362817*
X1869091Y1360942*
X1869636Y1359817*
X1870455Y1359442*
X1871000*
X1871818Y1359817*
X1872364Y1360942*
X1872636Y1362817*
Y1363942*
X1872364Y1365817*
X1871818Y1366942*
X1871000Y1367317*
X1870455*
X1953000Y1365817D02*
X1953545Y1366192D01*
X1954364Y1367317*
Y1359442*
X1957091Y1365442D02*
Y1365817D01*
X1957364Y1366567*
X1957636Y1366942*
X1958182Y1367317*
X1959273*
X1959818Y1366942*
X1960091Y1366567*
X1960364Y1365817*
Y1365067*
X1960091Y1364317*
X1959545Y1363192*
X1956818Y1359442*
X1960636*
X1966909Y1367317D02*
X1964182Y1359442D01*
X1963091Y1367317D02*
X1966909D01*
X1991000Y1365442D02*
X2003000D01*
X1997000Y1359442D02*
Y1371442D01*
X2003273Y1373242D02*
X2003055Y1373842D01*
X2002618Y1374442*
X2002182Y1374742*
X2001309*
X2000873Y1374442*
X2000436Y1373842*
X2000218Y1373242*
X2000000Y1372342*
Y1370842*
X2000218Y1369942*
X2000436Y1369342*
X2000873Y1368742*
X2001309Y1368442*
X2002182*
X2002618Y1368742*
X2003055Y1369342*
X2003273Y1369942*
Y1370842*
X2002182D02*
X2003273D01*
X2023636Y1367317D02*
X2025818Y1363567D01*
Y1359442*
X2028000Y1367317D02*
X2025818Y1363567D01*
X2030455Y1367317D02*
Y1359442D01*
Y1367317D02*
X2034000D01*
X2030455Y1363567D02*
X2032636D01*
X2030455Y1359442D02*
X2034000D01*
X2040273Y1366192D02*
X2039727Y1366942D01*
X2038909Y1367317*
X2037818*
X2037000Y1366942*
X2036455Y1366192*
Y1365442*
X2036727Y1364692*
X2037000Y1364317*
X2037545Y1363942*
X2039182Y1363192*
X2039727Y1362817*
X2040000Y1362442*
X2040273Y1361692*
Y1360567*
X2039727Y1359817*
X2038909Y1359442*
X2037818*
X2037000Y1359817*
X2036455Y1360567*
X2082545Y1366192D02*
Y1359442D01*
X2080091Y1362817D02*
X2085000D01*
X2092364Y1368817D02*
X2087455Y1356817D01*
X2094818Y1362817D02*
X2099727D01*
X2103818Y1367317D02*
X2103000Y1366942D01*
X2102455Y1365817*
X2102182Y1363942*
Y1362817*
X2102455Y1360942*
X2103000Y1359817*
X2103818Y1359442*
X2104364*
X2105182Y1359817*
X2105727Y1360942*
X2106000Y1362817*
Y1363942*
X2105727Y1365817*
X2105182Y1366942*
X2104364Y1367317*
X2103818*
X2108727Y1360192D02*
X2108455Y1359817D01*
X2108727Y1359442*
X2109000Y1359817*
X2108727Y1360192*
X2113091Y1367317D02*
X2112273Y1366942D01*
X2111727Y1365817*
X2111455Y1363942*
Y1362817*
X2111727Y1360942*
X2112273Y1359817*
X2113091Y1359442*
X2113636*
X2114455Y1359817*
X2115000Y1360942*
X2115273Y1362817*
Y1363942*
X2115000Y1365817*
X2114455Y1366942*
X2113636Y1367317*
X2113091*
X2119364D02*
X2118545Y1366942D01*
X2118000Y1365817*
X2117727Y1363942*
Y1362817*
X2118000Y1360942*
X2118545Y1359817*
X2119364Y1359442*
X2119909*
X2120727Y1359817*
X2121273Y1360942*
X2121545Y1362817*
Y1363942*
X2121273Y1365817*
X2120727Y1366942*
X2119909Y1367317*
X2119364*
X2124545D02*
X2127545D01*
X2125909Y1364317*
X2126727*
X2127273Y1363942*
X2127545Y1363567*
X2127818Y1362442*
Y1361692*
X2127545Y1360567*
X2127000Y1359817*
X2126182Y1359442*
X2125364*
X2124545Y1359817*
X2124273Y1360192*
X2124000Y1360942*
X1865000Y1341817D02*
X1865545Y1342192D01*
X1866364Y1343317*
Y1335442*
X1870182Y1343317D02*
X1869364Y1342942D01*
X1869091Y1342192*
Y1341442*
X1869364Y1340692*
X1869909Y1340317*
X1871000Y1339942*
X1871818Y1339567*
X1872364Y1338817*
X1872636Y1338067*
Y1336942*
X1872364Y1336192*
X1872091Y1335817*
X1871273Y1335442*
X1870182*
X1869364Y1335817*
X1869091Y1336192*
X1868818Y1336942*
Y1338067*
X1869091Y1338817*
X1869636Y1339567*
X1870455Y1339942*
X1871545Y1340317*
X1872091Y1340692*
X1872364Y1341442*
Y1342192*
X1872091Y1342942*
X1871273Y1343317*
X1870182*
X1956136Y1341817D02*
X1956682Y1342192D01*
X1957500Y1343317*
Y1335442*
X1961591Y1343317D02*
X1960773Y1342942D01*
X1960227Y1341817*
X1959955Y1339942*
Y1338817*
X1960227Y1336942*
X1960773Y1335817*
X1961591Y1335442*
X1962136*
X1962955Y1335817*
X1963500Y1336942*
X1963773Y1338817*
Y1339942*
X1963500Y1341817*
X1962955Y1342942*
X1962136Y1343317*
X1961591*
X1991000Y1341442D02*
X2003000D01*
X1997000Y1335442D02*
Y1347442D01*
X2000000Y1350742D02*
Y1344442D01*
X2003055Y1350742D02*
Y1344442D01*
X2000000Y1347742D02*
X2003055D01*
X2023636Y1343317D02*
X2025818Y1339567D01*
Y1335442*
X2028000Y1343317D02*
X2025818Y1339567D01*
X2030455Y1343317D02*
Y1335442D01*
Y1343317D02*
X2034000D01*
X2030455Y1339567D02*
X2032636D01*
X2030455Y1335442D02*
X2034000D01*
X2040273Y1342192D02*
X2039727Y1342942D01*
X2038909Y1343317*
X2037818*
X2037000Y1342942*
X2036455Y1342192*
Y1341442*
X2036727Y1340692*
X2037000Y1340317*
X2037545Y1339942*
X2039182Y1339192*
X2039727Y1338817*
X2040000Y1338442*
X2040273Y1337692*
Y1336567*
X2039727Y1335817*
X2038909Y1335442*
X2037818*
X2037000Y1335817*
X2036455Y1336567*
X2082545Y1342192D02*
Y1335442D01*
X2080091Y1338817D02*
X2085000D01*
X2092364Y1344817D02*
X2087455Y1332817D01*
X2094818Y1338817D02*
X2099727D01*
X2103818Y1343317D02*
X2103000Y1342942D01*
X2102455Y1341817*
X2102182Y1339942*
Y1338817*
X2102455Y1336942*
X2103000Y1335817*
X2103818Y1335442*
X2104364*
X2105182Y1335817*
X2105727Y1336942*
X2106000Y1338817*
Y1339942*
X2105727Y1341817*
X2105182Y1342942*
X2104364Y1343317*
X2103818*
X2108727Y1336192D02*
X2108455Y1335817D01*
X2108727Y1335442*
X2109000Y1335817*
X2108727Y1336192*
X2113091Y1343317D02*
X2112273Y1342942D01*
X2111727Y1341817*
X2111455Y1339942*
Y1338817*
X2111727Y1336942*
X2112273Y1335817*
X2113091Y1335442*
X2113636*
X2114455Y1335817*
X2115000Y1336942*
X2115273Y1338817*
Y1339942*
X2115000Y1341817*
X2114455Y1342942*
X2113636Y1343317*
X2113091*
X2119364D02*
X2118545Y1342942D01*
X2118000Y1341817*
X2117727Y1339942*
Y1338817*
X2118000Y1336942*
X2118545Y1335817*
X2119364Y1335442*
X2119909*
X2120727Y1335817*
X2121273Y1336942*
X2121545Y1338817*
Y1339942*
X2121273Y1341817*
X2120727Y1342942*
X2119909Y1343317*
X2119364*
X2124545D02*
X2127545D01*
X2125909Y1340317*
X2126727*
X2127273Y1339942*
X2127545Y1339567*
X2127818Y1338442*
Y1337692*
X2127545Y1336567*
X2127000Y1335817*
X2126182Y1335442*
X2125364*
X2124545Y1335817*
X2124273Y1336192*
X2124000Y1336942*
G54D43*
G74*
X0Y0D02*
M02*
