%
T1C.01F095S3
X-01162Y-00203
X-01184Y00525
X-011233Y008015
X-01114Y0088
X-012683Y009215
X-013633Y009265
X-012683Y009765
X-013633Y009765
X-010183Y010215
X-008705Y009412
X-00984Y0088
X-01004Y008365
X-00864Y00746
X-01004Y007015
X-010233Y006818
X-010433Y006622
X-009053Y006031
X-008843Y005447
X-00939Y00486
X-00889Y00386
X-00939Y00386
X-01079Y0032
X-01102Y002225
X-00986Y00102
X-00989Y00011
X-01102Y-00123
X-00739Y-00089
X-00789Y-00089
X-00639Y-00089
X-00689Y-00089
X-00789Y-00014
X-006193Y00024
X-00789Y00036
X-00731Y00062
X-00636Y00202
X-00686Y00202
X-00636Y00252
X-00686Y00252
X-00824Y00267
X-00636Y00302
X-00686Y00302
X-00805Y003406
X-007443Y00421
X-00717Y00447
X-007858Y005447
X-006737Y005831
X-006487Y006031
X-00789Y00611
X-007158Y006147
X-006708Y006447
X-00789Y00661
X-007465Y006747
X-006805Y007362
X-00814Y00746
X-007465Y007612
X-00689Y00791
X-007373Y007924
X-006355Y008212
X-008155Y009412
X-00716Y00942
X-00616Y00942
X-00516Y00943
X-005183Y008262
X-005358Y007367
X-005408Y006047
X-005408Y005547
X-006008Y005247
X-00368Y00458
X-005855Y004512
X-00586Y00302
X-00586Y00252
X-00586Y00202
X-00431Y00112
X-00496Y00107
X-00416Y00092
X-00456Y00012
X-00416Y00012
X-00416Y-00018
X-00456Y-00018
X-00481Y-00033
X-00226Y-00098
X-00196Y00022
X-00196Y00082
X-00256Y00132
X-00236Y00162
X-00136Y00192
X-00166Y00192
X-00196Y00192
X-00226Y00192
X-00256Y00292
X-00226Y00292
X-00206Y00312
X-00256Y00322
X-00196Y00342
X-00256Y00352
X-00151Y00402
X-002733Y005665
X-001233Y006134
X-001233Y006984
X-003255Y00763
X-003505Y00793
X-003005Y00793
X-00036Y00902
X-00036Y00852
X-00036Y00802
X-00036Y00752
X-00036Y00702
X-00036Y00652
X-00036Y00602
X-00036Y00552
X-00036Y00502
X-00036Y00452
X-00036Y00405
X-00036Y00362
X-00106Y00342
X-00036Y00322
X-00096Y00312
X-00066Y00292
X00114Y00192
X00054Y00192
X00084Y00192
X-00076Y00192
X-00106Y00192
X-0011Y-0001
X0011Y-0001
X0Y-0012
X00144Y00192
T2C.018F095S3
X-011605Y000912
X-00929Y002225
X-00952Y005373
X-009305Y008512
X-00998Y00911
X-01078Y00911
X-00562Y008512
X-00631Y00492
X-00411Y00402
X-002964Y-00088
T3C.02756F197S55
X-012127Y-000835
X-012127Y001075
X-013278Y-001286G85X-013121Y-001286
X-013278Y001529G85X-013121Y001529
T4C.035F197S55
X-011655Y-003207
X-010655Y-003207
X-009655Y-003207
X-008655Y-003207
X-007655Y009762
X-006655Y009762
X-007655Y-002207
X-006655Y-002207
X-007655Y-003207
X-006655Y-003207
X-005655Y-003207
X-004655Y-003207
X-003655Y-003207
X-004655Y-002207
X-003655Y-002207
X-005655Y-002207
X-004655Y009762
X-005655Y009762
X-003632Y009762
X-002647Y009762
X-001663Y009762
X-002055Y008062
X-002055Y007062
X-003255Y006062
X-002055Y006062
X-002055Y005062
X-003255Y005062
X-002655Y-002207
X-001655Y-002207
X-001655Y-003207
X-002655Y-003207
X-000655Y-003207
X-000655Y-002207
X-000679Y009762
T5C.037F197S55
X-011655Y010562
X-010655Y010562
X-009655Y010562
X-008655Y010562
X-011655Y011562
X-009655Y011562
X-010655Y011562
X-008655Y011562
X-007655Y011562
X-006655Y011562
X-005655Y011562
X-004655Y011562
X-003655Y011562
X-006655Y010562
X-004655Y010562
X-007655Y010562
X-003655Y010562
X-005655Y010562
X-002655Y010562
X-001655Y010562
X-000655Y010562
X-001655Y011562
X-002655Y011562
X-000655Y011562
T6C.05906F107S55
X-001Y-001
X001Y-001
X0Y0
X001Y001
X-001Y001
M30
