*
*
G04 PADS VX.1.2 Build Number: 698008 generated Gerber (RS-274-X) file*
G04 PC Version=2.1*
*
%IN "PI-ZREO-HAT.pcb"*%
*
%MOIN*%
*
%FSLAX35Y35*%
*
*
*
*
G04 PC Standard Apertures*
*
*
G04 Thermal Relief Aperture macro.*
%AMTER*
1,1,$1,0,0*
1,0,$1-$2,0,0*
21,0,$3,$4,0,0,45*
21,0,$3,$4,0,0,135*
%
*
*
G04 Annular Aperture macro.*
%AMANN*
1,1,$1,0,0*
1,0,$2,0,0*
%
*
*
G04 Odd Aperture macro.*
%AMODD*
1,1,$1,0,0*
1,0,$1-0.005,0,0*
%
*
*
G04 PC Custom Aperture Macros*
*
*
*
*
*
*
G04 PC Aperture Table*
*
%ADD011C,0.01*%
%ADD023C,0.06*%
%ADD043C,0.001*%
%ADD150R,0.03937X0.05512*%
%ADD173R,0.02992X0.03386*%
%ADD178C,0.09843*%
%ADD179C,0.11024*%
%ADD189C,0.01181*%
%ADD205O,0.08268X0.05118*%
%ADD208R,0.04724X0.10236*%
*
*
*
*
G04 PC Circuitry*
G04 Layer Name PI-ZREO-HAT.pcb - circuitry*
%LPD*%
*
*
G04 PC Custom Flashes*
G04 Layer Name PI-ZREO-HAT.pcb - flashes*
%LPD*%
*
*
G04 PC Circuitry*
G04 Layer Name PI-ZREO-HAT.pcb - circuitry*
%LPD*%
*
G54D11*
G01X1921260Y1530315D02*
G75*
G03X1930315Y1521260I9055J-0D01*
G01X2069685*
G03X2078740Y1530315I0J9055*
G01Y1669685*
G03X2069685Y1678740I-9055J0*
G01X1930315*
G03X1921260Y1669685I-0J-9055*
G01Y1530315*
X1936220D02*
G03X1936220I-5905J0D01*
G01X2075591D02*
G03X2075591I-5906J0D01*
G01X1936220Y1669685D02*
G03X1936220I-5905J0D01*
G01X2075646Y1669640D02*
G03X2075646I-5906J0D01*
G54D23*
G01X2029000Y1608940D03*
Y1618940D03*
X2025236Y1655940D03*
X2035079D03*
X2044921D03*
X2054764D03*
X2041000Y1608940D03*
Y1618940D03*
Y1628940D03*
Y1638940D03*
X1985000Y1655940D03*
X1995000D03*
X2005000D03*
X2015000D03*
X1985000Y1536260D03*
X1995000D03*
X2005000D03*
X2015000D03*
X2025000D03*
X2035000D03*
X2045000D03*
X2055000D03*
X1945000Y1526260D03*
X1955000D03*
X1965000D03*
X1975000D03*
X1985000D03*
X1995000D03*
X2005000D03*
X2015000D03*
X2025000D03*
X2055000D03*
X2045000D03*
X2035000D03*
X1945000Y1663940D03*
Y1673940D03*
X1955000Y1663940D03*
Y1673940D03*
X1965000Y1663940D03*
Y1673940D03*
X1975000Y1663940D03*
Y1673940D03*
X1985000Y1663940D03*
Y1673940D03*
X1995000Y1663940D03*
Y1673940D03*
X2005000Y1663940D03*
Y1673940D03*
X2015000Y1663940D03*
Y1673940D03*
X2025000Y1663940D03*
Y1673940D03*
X2035000Y1663940D03*
Y1673940D03*
X2045000Y1663940D03*
Y1673940D03*
X2055000Y1663940D03*
Y1673940D03*
G54D43*
G54D150*
X1936608Y1633825D03*
X1943695D03*
G54D173*
X2023000Y1618940D03*
Y1624940D03*
X2018000D03*
Y1618940D03*
Y1634440D03*
Y1640440D03*
X2023000Y1634440D03*
Y1640440D03*
G54D178*
X2061551Y1558325D03*
G54D179*
X2051551Y1568325D03*
X2071551D03*
X2051551Y1548325D03*
X2071551D03*
G54D189*
X1933092Y1605990D02*
Y1608549D01*
X1940376*
Y1605990*
X1933092*
Y1606750D02*
X1940376D01*
X1933092Y1607931D02*
X1940376D01*
X1933092Y1605990D02*
Y1608549D01*
X1934273Y1605990D02*
Y1608549D01*
X1935454Y1605990D02*
Y1608549D01*
X1936636Y1605990D02*
Y1608549D01*
X1937817Y1605990D02*
Y1608549D01*
X1938998Y1605990D02*
Y1608549D01*
X1940179Y1605990D02*
Y1608549D01*
X1933092Y1615045D02*
Y1617604D01*
X1940376*
Y1615045*
X1933092*
Y1616199D02*
X1940376D01*
X1933092Y1617380D02*
X1940376D01*
X1933092Y1615045D02*
Y1617604D01*
X1934273Y1615045D02*
Y1617604D01*
X1935454Y1615045D02*
Y1617604D01*
X1936636Y1615045D02*
Y1617604D01*
X1937817Y1615045D02*
Y1617604D01*
X1938998Y1615045D02*
Y1617604D01*
X1940179Y1615045D02*
Y1617604D01*
X1933092Y1624101D02*
Y1626660D01*
X1940376*
Y1624101*
X1933092*
Y1624467D02*
X1940376D01*
X1933092Y1625648D02*
X1940376D01*
X1933092Y1624101D02*
Y1626660D01*
X1934273Y1624101D02*
Y1626660D01*
X1935454Y1624101D02*
Y1626660D01*
X1936636Y1624101D02*
Y1626660D01*
X1937817Y1624101D02*
Y1626660D01*
X1938998Y1624101D02*
Y1626660D01*
X1940179Y1624101D02*
Y1626660D01*
X1955927Y1622132D02*
X1963210D01*
Y1610518*
X1955927*
Y1622132*
Y1611475D02*
X1963210D01*
X1955927Y1612656D02*
X1963210D01*
X1955927Y1613837D02*
X1963210D01*
X1955927Y1615018D02*
X1963210D01*
X1955927Y1616199D02*
X1963210D01*
X1955927Y1617380D02*
X1963210D01*
X1955927Y1618561D02*
X1963210D01*
X1955927Y1619742D02*
X1963210D01*
X1955927Y1620923D02*
X1963210D01*
X1955927Y1622104D02*
X1963210D01*
X1955927Y1610518D02*
Y1622132D01*
X1957108Y1610518D02*
Y1622132D01*
X1958289Y1610518D02*
Y1622132D01*
X1959470Y1610518D02*
Y1622132D01*
X1960651Y1610518D02*
Y1622132D01*
X1961832Y1610518D02*
Y1622132D01*
X1963013Y1610518D02*
Y1622132D01*
G54D205*
X1929556Y1545470D03*
Y1573613D03*
G54D208*
X1947860Y1595325D03*
X1936443D03*
G74*
X0Y0D02*
M02*
