*
*
G04 PADS VX.1.2 Build Number: 698008 generated Gerber (RS-274-X) file*
G04 PC Version=2.1*
*
%IN "PI-ZREO-HAT.pcb"*%
*
%MOIN*%
*
%FSLAX35Y35*%
*
*
*
*
G04 PC Standard Apertures*
*
*
G04 Thermal Relief Aperture macro.*
%AMTER*
1,1,$1,0,0*
1,0,$1-$2,0,0*
21,0,$3,$4,0,0,45*
21,0,$3,$4,0,0,135*
%
*
*
G04 Annular Aperture macro.*
%AMANN*
1,1,$1,0,0*
1,0,$2,0,0*
%
*
*
G04 Odd Aperture macro.*
%AMODD*
1,1,$1,0,0*
1,0,$1-0.005,0,0*
%
*
*
G04 PC Custom Aperture Macros*
*
*
*
*
*
*
G04 PC Aperture Table*
*
%ADD011C,0.01*%
%ADD043C,0.001*%
*
*
*
*
G04 PC Circuitry*
G04 Layer Name PI-ZREO-HAT.pcb - circuitry*
%LPD*%
*
G54D43*
G01X2072792Y1617485D02*
X2072514D01*
Y1616611*
X2072464Y1616561*
X2069701*
Y1616241*
X2072464*
X2072514Y1616191*
Y1615318*
X2072792*
Y1617485*
Y1620550D02*
X2069701D01*
Y1620230*
X2072338*
X2072364Y1620137*
X2072155Y1620011*
X2069701Y1618473*
Y1618047*
X2072792*
Y1618367*
X2070371*
X2070209Y1618326*
X2070147Y1618375*
Y1618417*
X2070175Y1618461*
X2070256Y1618502*
X2070379Y1618584*
X2070381Y1618585*
X2072792Y1620082*
Y1620550*
Y1622665D02*
X2069701Y1623844D01*
Y1623490*
X2070507Y1623208*
X2070541Y1623161*
Y1621859*
X2070510Y1621813*
X2069701Y1621490*
Y1621134*
X2072792Y1622314*
Y1622665*
X2072438Y1622442D02*
X2072312Y1622400D01*
X2072296Y1622397*
X2072221*
X2070886Y1621896*
X2070819Y1621943*
Y1623035*
X2070885Y1623082*
X2072229Y1622620*
X2072231Y1622619*
X2072441Y1622535*
X2072438Y1622442*
X2072792Y1626973D02*
X2069701D01*
Y1626654*
X2071037*
X2071087Y1626604*
Y1625520*
X2071365*
Y1626604*
X2071415Y1626654*
X2072464*
X2072514Y1626604*
Y1625436*
X2072792*
Y1626973*
Y1630206D02*
X2069701D01*
Y1629886*
X2071079*
X2071129Y1629836*
Y1628241*
X2071079Y1628191*
X2069701*
Y1627871*
X2072792*
Y1628191*
X2071457*
X2071407Y1628241*
Y1629836*
X2071457Y1629886*
X2072792*
Y1630206*
Y1633397D02*
X2070914D01*
X2070339Y1633315*
X2069980Y1633115*
X2069741Y1632757*
X2069659Y1632267*
Y1631986*
X2069740Y1631743*
X2069820Y1631544*
X2069978Y1631386*
X2070137Y1631267*
X2070380Y1631186*
X2070666Y1631104*
X2072792*
Y1631424*
X2070911*
X2070906*
X2070486Y1631466*
X2070466Y1631472*
X2070172Y1631640*
X2070158Y1631652*
X2069990Y1631862*
X2069979Y1631887*
X2069979D02*
X2069938Y1632223D01*
Y1632236*
X2069979Y1632572*
X2069979D02*
X2069991Y1632597D01*
X2070201Y1632849*
X2070214Y1632861*
X2070508Y1633029*
X2070528Y1633035*
X2070948Y1633077*
X2070953*
X2072792*
Y1633397*
X2065492Y1544266D02*
X2063325D01*
Y1543988*
X2064199*
X2064249Y1543938*
Y1541175*
X2064568*
Y1543938*
X2064618Y1543988*
X2065492*
Y1544266*
X2062763D02*
X2062443D01*
Y1541845*
X2062484Y1541683*
X2062435Y1541621*
X2062393*
X2062349Y1541648*
X2062308Y1541730*
X2062226Y1541853*
X2062225Y1541854*
X2060728Y1544266*
X2060260*
Y1541175*
X2060580*
Y1543812*
X2060673Y1543838*
X2060798Y1543628*
X2062337Y1541175*
X2062763*
Y1544266*
X2059676Y1541175D02*
X2058496Y1544266D01*
X2058145*
X2056966Y1541175*
X2057320*
X2057602Y1541981*
X2057649Y1542015*
X2058950*
X2058997Y1541983*
X2059320Y1541175*
X2059676*
X2058867Y1542293D02*
X2057775D01*
X2057728Y1542359*
X2058189Y1543702*
X2058190Y1543705*
X2058274Y1543915*
X2058368Y1543912*
X2058410Y1543786*
X2058413Y1543770*
Y1543695*
X2058913Y1542360*
X2058867Y1542293*
X2057360Y1649962D02*
X2057320Y1650288D01*
X2057238Y1650574*
X2057117Y1650816*
X2056915Y1651058*
X2056673Y1651220*
X2056386Y1651343*
X2056100Y1651425*
X2055729Y1651466*
X2054900*
Y1648375*
X2055728*
X2056058Y1648416*
X2056387Y1648498*
X2056671Y1648620*
X2056915Y1648824*
X2057117Y1649025*
X2057238Y1649307*
X2057320Y1649594*
X2057360Y1649962*
X2057041Y1650214D02*
Y1649668D01*
X2057038Y1649653*
X2056954Y1649401*
X2056953Y1649398*
X2056869Y1649188*
X2056858Y1649171*
X2056522Y1648835*
X2056506Y1648824*
X2056296Y1648740*
X2056285Y1648737*
X2055739Y1648653*
X2055731*
X2055270*
X2055220Y1648703*
Y1651138*
X2055270Y1651188*
X2055731*
X2055740Y1651187*
X2056243Y1651103*
X2056258Y1651099*
X2056677Y1650889*
X2056695Y1650874*
X2056821Y1650706*
X2056824Y1650702*
X2056950Y1650492*
X2056954Y1650482*
X2057038Y1650230*
X2057041Y1650214*
X2054170Y1651355D02*
X2053873Y1651467D01*
X2053465Y1651507*
X2053138Y1651467*
X2052851Y1651385*
X2052567Y1651263*
X2052324Y1651060*
X2052122Y1650818*
X2052000Y1650534*
X2051918Y1650205*
X2051877Y1649878*
X2051918Y1649510*
X2052000Y1649225*
X2052122Y1648980*
X2052284Y1648737*
X2052484Y1648577*
X2052727Y1648456*
X2053012Y1648374*
X2053339Y1648333*
X2053830Y1648374*
X2054170Y1648525*
Y1648794*
X2053862Y1648657*
X2053847Y1648653*
X2053385Y1648611*
X2053380*
X2053128*
X2053110Y1648614*
X2052900Y1648698*
X2052888Y1648705*
X2052553Y1648957*
X2052541Y1648969*
X2052289Y1649347*
X2052281Y1649366*
X2052197Y1649870*
Y1649878*
Y1649885*
X2052239Y1650179*
Y1650180*
X2052281Y1650432*
X2052288Y1650450*
X2052540Y1650870*
X2052553Y1650884*
X2052720Y1651010*
X2052725Y1651013*
X2052935Y1651139*
X2052952Y1651145*
X2053456Y1651229*
X2053470Y1651230*
X2053848Y1651188*
X2053858Y1651185*
X2054170Y1651081*
Y1651355*
X2051483Y1648653D02*
X2050315D01*
X2050265Y1648703*
Y1651466*
X2049946*
Y1648375*
X2051483*
Y1648653*
X2049360Y1618920D02*
X2046269D01*
Y1618600*
X2047772*
X2047800Y1618509*
X2047676Y1618426*
X2046269Y1617267*
Y1616853*
X2047824Y1618169*
X2047888*
X2049360Y1616936*
Y1617309*
X2047995Y1618426*
X2047871Y1618509*
X2047898Y1618600*
X2049360*
Y1618920*
Y1622321D02*
X2046269D01*
Y1622001*
X2048906*
X2048932Y1621908*
X2048722Y1621782*
X2046269Y1620244*
Y1619818*
X2049360*
Y1620138*
X2046939*
X2046777Y1620097*
X2046715Y1620146*
Y1620188*
X2046742Y1620232*
X2046824Y1620273*
X2046947Y1620355*
X2046948Y1620356*
X2049360Y1621853*
Y1622321*
Y1623538D02*
X2046269D01*
Y1623219*
X2049360*
Y1623538*
Y1625680D02*
X2046269D01*
Y1624142*
X2046547*
Y1625310*
X2046597Y1625360*
X2049360*
Y1625680*
Y1628409D02*
X2049082D01*
Y1627535*
X2049032Y1627485*
X2046269*
Y1627165*
X2049032*
X2049082Y1627115*
Y1626241*
X2049360*
Y1628409*
X2049402Y1629592D02*
X2049361Y1630038D01*
X2049160Y1630359*
X2048923Y1630596*
X2048569Y1630675*
X2048336Y1630636*
X2048139Y1630518*
X2047938Y1630317*
X2047817Y1630116*
X2047735Y1629910*
X2047732Y1629903*
X2047565Y1629611*
X2047481Y1629444*
X2047472Y1629431*
X2047262Y1629221*
X2047245Y1629210*
X2047035Y1629126*
X2047007Y1629123*
X2046797Y1629165*
X2046771Y1629179*
X2046645Y1629305*
X2046634Y1629322*
X2046550Y1629532*
X2046547Y1629543*
X2046505Y1629837*
Y1629844*
Y1630096*
X2046507Y1630112*
X2046591Y1630364*
X2046592Y1630367*
X2046676Y1630576*
X2046683Y1630588*
X2046749Y1630676*
X2046418*
X2046349Y1630537*
X2046268Y1630336*
X2046227Y1629928*
X2046268Y1629437*
X2046427Y1629079*
X2046702Y1628883*
X2047019Y1628803*
X2047290Y1628842*
X2047485Y1628998*
X2047690Y1629244*
X2047938Y1629616*
X2048105Y1629990*
X2048107Y1629996*
X2048233Y1630206*
X2048254Y1630225*
X2048422Y1630309*
X2048432Y1630313*
X2048600Y1630354*
X2048600D02*
X2048622Y1630355D01*
X2048832Y1630313*
X2048862Y1630294*
X2048988Y1630126*
X2048994Y1630115*
X2049078Y1629905*
X2049081Y1629894*
X2049123Y1629642*
X2049124Y1629634*
Y1629629*
X2049082Y1629209*
X2049077Y1629192*
X2048945Y1628929*
X2049213*
X2049361Y1629188*
X2049402Y1629592*
X2047788Y1651466D02*
X2047468D01*
Y1648375*
X2047788*
Y1651466*
X2046487D02*
X2046065D01*
X2045114Y1649315*
X2044989Y1648939*
X2044941Y1648905*
X2044899*
X2044851Y1648943*
X2044810Y1649107*
X2044727Y1649314*
X2043817Y1651466*
X2043354*
Y1648375*
X2043632*
Y1651096*
X2043731Y1651106*
X2043772Y1650899*
X2043813Y1650778*
X2044848Y1648375*
X2044992*
X2046028Y1650778*
X2046068Y1650899*
X2046110Y1651106*
X2046159Y1651146*
X2046201*
X2046251Y1651096*
X2046250Y1651090*
X2046209Y1650757*
Y1648375*
X2046487*
Y1651466*
X2042456D02*
X2042136D01*
Y1650130*
X2042086Y1650080*
X2040491*
X2040441Y1650130*
Y1651466*
X2040121*
Y1648375*
X2040441*
Y1649752*
X2040491Y1649802*
X2042086*
X2042136Y1649752*
Y1648375*
X2042456*
Y1651466*
X2036464Y1603613D02*
X2036389Y1603912D01*
X2036388Y1603917*
X2036351Y1604174*
X2036245Y1604351*
X2035955Y1604641*
X2035780Y1604677*
X2035560Y1604713*
X2035344Y1604677*
X2035165Y1604605*
X2035020Y1604497*
X2034876Y1604353*
X2034767Y1604135*
X2034692Y1603873*
X2034617Y1603575*
Y1602900*
X2034692Y1602602*
X2034767Y1602377*
X2034840Y1602194*
X2034984Y1602014*
X2035123Y1601910*
X2035301Y1601874*
X2035521Y1601837*
X2035741Y1601874*
X2035917Y1601909*
X2036206Y1602198*
X2036315Y1602417*
X2036389Y1602640*
X2036464Y1602938*
Y1603613*
X2036182Y1603237D02*
Y1603233D01*
X2036144Y1602737*
X2036141Y1602725*
X2036027Y1602382*
X2036018Y1602365*
X2035827Y1602136*
X2035804Y1602121*
X2035575Y1602045*
X2035546Y1602044*
X2035279Y1602120*
X2035257Y1602133*
X2035066Y1602324*
X2035054Y1602345*
X2034939Y1602727*
X2034937Y1602737*
X2034899Y1603233*
Y1603237*
Y1603241*
X2034937Y1603775*
X2034939Y1603786*
X2035054Y1604168*
X2035063Y1604185*
X2035254Y1604414*
X2035279Y1604430*
X2035546Y1604507*
X2035573*
X2035841Y1604430*
X2035868Y1604410*
X2036021Y1604181*
X2036027Y1604168*
X2036142Y1603786*
X2036144Y1603775*
X2036182Y1603241*
Y1603237*
X2034326Y1604676D02*
X2032365D01*
Y1604432*
X2033155*
X2033205Y1604382*
Y1601875*
X2033487*
Y1604382*
X2033537Y1604432*
X2034326*
Y1604676*
X2037169Y1633618D02*
X2036282Y1633078D01*
X2036075Y1632912*
X2036071Y1632909*
X2035953Y1632831*
X2035791Y1632587*
X2035703Y1632598*
X2035581Y1632923*
X2035383Y1633121*
X2035187Y1633239*
X2034871Y1633278*
X2034551Y1633198*
X2034276Y1633041*
X2034119Y1632727*
X2034078Y1632360*
Y1631448*
X2037169*
Y1631767*
X2035875*
X2035825Y1631817*
Y1632111*
X2035827Y1632123*
X2035869Y1632291*
X2035870Y1632295*
X2035912Y1632421*
X2035929Y1632445*
X2036097Y1632571*
X2036306Y1632738*
X2036312Y1632743*
X2037169Y1633232*
Y1633618*
X2035548Y1632279D02*
Y1631817D01*
X2035498Y1631767*
X2034406*
X2034356Y1631817*
Y1632279*
Y1632286*
X2034398Y1632580*
X2034403Y1632596*
X2034487Y1632763*
X2034502Y1632781*
X2034670Y1632907*
X2034690Y1632916*
X2034900Y1632958*
X2034918*
X2035170Y1632916*
X2035192Y1632907*
X2035360Y1632781*
X2035373Y1632767*
X2035498Y1632557*
X2035505Y1632539*
X2035547Y1632287*
X2035548Y1632279*
X2037211Y1634757D02*
X2037170Y1635248D01*
X2037011Y1635605*
X2036736Y1635802*
X2036419Y1635881*
X2036148Y1635842*
X2035953Y1635686*
X2035748Y1635440*
X2035500Y1635068*
X2035333Y1634694*
X2035331Y1634689*
X2035205Y1634479*
X2035184Y1634460*
X2035016Y1634376*
X2035006Y1634372*
X2034838Y1634330*
X2034816Y1634329*
X2034606Y1634371*
X2034576Y1634390*
X2034450Y1634558*
X2034444Y1634570*
X2034360Y1634780*
X2034357Y1634790*
X2034315Y1635042*
X2034314Y1635050*
Y1635055*
X2034356Y1635475*
X2034361Y1635492*
X2034493Y1635756*
X2034225*
X2034077Y1635497*
X2034036Y1635092*
X2034077Y1634647*
X2034277Y1634326*
X2034515Y1634088*
X2034869Y1634010*
X2035102Y1634048*
X2035299Y1634166*
X2035500Y1634368*
X2035621Y1634569*
X2035703Y1634775*
X2035706Y1634781*
X2035873Y1635074*
X2035957Y1635241*
X2035966Y1635254*
X2036176Y1635463*
X2036193Y1635475*
X2036403Y1635559*
X2036431Y1635561*
X2036641Y1635519*
X2036667Y1635505*
X2036792Y1635380*
X2036804Y1635363*
X2036888Y1635153*
X2036891Y1635141*
X2036933Y1634847*
Y1634840*
Y1634588*
X2036931Y1634573*
X2036847Y1634321*
X2036846Y1634318*
X2036762Y1634108*
X2036755Y1634097*
X2036689Y1634009*
X2037020*
X2037089Y1634147*
X2037170Y1634349*
X2037211Y1634757*
X2037169Y1637519D02*
X2034406D01*
X2034356Y1637569*
Y1638443*
X2034078*
Y1636276*
X2034356*
Y1637150*
X2034406Y1637200*
X2037169*
Y1637519*
X2032036Y1603313D02*
X2031999Y1603612D01*
X2031961Y1603872*
X2031853Y1604125*
X2031484Y1604494*
X2031267Y1604603*
X2031007Y1604677*
X2030750Y1604713*
X2030455Y1604677*
X2030195Y1604602*
X2029939Y1604493*
X2029759Y1604312*
X2029611Y1604091*
X2029500Y1603831*
X2029426Y1603571*
X2029389Y1603238*
X2029426Y1602939*
X2029463Y1602681*
X2029610Y1602424*
X2029757Y1602203*
X2029938Y1602058*
X2030158Y1601948*
X2030417Y1601874*
X2030712Y1601837*
X2031008Y1601874*
X2031267Y1601948*
X2031484Y1602057*
X2031667Y1602240*
X2031816Y1602426*
X2031962Y1602681*
X2031999Y1602976*
X2032036Y1603313*
X2031755Y1603275D02*
X2031754Y1603268D01*
X2031678Y1602772*
X2031672Y1602755*
X2031481Y1602411*
X2031468Y1602396*
X2031162Y1602167*
X2031151Y1602160*
X2030960Y1602084*
X2030941Y1602080*
X2030483*
X2030465Y1602084*
X2030274Y1602160*
X2030270Y1602162*
X2030117Y1602238*
X2030104Y1602248*
X2029952Y1602400*
X2029942Y1602413*
X2029752Y1602795*
X2029747Y1602809*
X2029671Y1603267*
Y1603284*
X2029747Y1603742*
X2029752Y1603756*
X2029942Y1604137*
X2029957Y1604155*
X2030110Y1604270*
X2030114Y1604272*
X2030305Y1604387*
X2030321Y1604393*
X2030703Y1604469*
X2030721Y1604470*
X2031141Y1604393*
X2031162Y1604384*
X2031468Y1604155*
X2031481Y1604139*
X2031672Y1603796*
X2031678Y1603779*
X2031754Y1603283*
X2031755Y1603275*
X2028944Y1603313D02*
X2028907Y1603612D01*
X2028870Y1603872*
X2028762Y1604125*
X2028393Y1604494*
X2028175Y1604603*
X2027916Y1604677*
X2027658Y1604713*
X2027364Y1604677*
X2027103Y1604602*
X2026848Y1604493*
X2026667Y1604312*
X2026520Y1604091*
X2026408Y1603831*
X2026334Y1603571*
X2026297Y1603238*
X2026334Y1602939*
X2026371Y1602681*
X2026518Y1602424*
X2026666Y1602203*
X2026846Y1602058*
X2027066Y1601948*
X2027325Y1601874*
X2027621Y1601837*
X2027916Y1601874*
X2028175Y1601948*
X2028393Y1602057*
X2028576Y1602240*
X2028724Y1602426*
X2028870Y1602681*
X2028907Y1602976*
X2028944Y1603313*
X2028663Y1603275D02*
X2028662Y1603268D01*
X2028662D02*
X2028586Y1602772D01*
X2028580Y1602755*
X2028390Y1602411*
X2028376Y1602396*
X2028071Y1602167*
X2028059Y1602160*
X2027868Y1602084*
X2027850Y1602080*
X2027392*
X2027373Y1602084*
X2027182Y1602160*
X2027179Y1602162*
X2027026Y1602238*
X2027013Y1602248*
X2026860Y1602400*
X2026851Y1602413*
X2026660Y1602795*
X2026655Y1602809*
X2026579Y1603267*
Y1603284*
X2026655Y1603742*
X2026660Y1603756*
X2026851Y1604137*
X2026866Y1604155*
X2027018Y1604270*
X2027022Y1604272*
X2027213Y1604387*
X2027229Y1604393*
X2027611Y1604469*
X2027630Y1604470*
X2028050Y1604393*
X2028071Y1604384*
X2028376Y1604155*
X2028390Y1604139*
X2028580Y1603796*
X2028586Y1603779*
X2028662Y1603283*
X2028662D02*
X2028663Y1603275D01*
X2025814Y1602667D02*
X2025779Y1602914D01*
X2025637Y1603127*
X2025460Y1603268*
X2025202Y1603342*
X2025198Y1603436*
X2025379Y1603509*
X2025555Y1603685*
X2025626Y1603861*
X2025662Y1604077*
X2025627Y1604320*
X2025453Y1604495*
X2025200Y1604639*
X2024870Y1604676*
X2024083*
Y1601875*
X2024908*
X2025276Y1601912*
X2025563Y1602091*
X2025742Y1602342*
X2025814Y1602667*
X2025533Y1602665D02*
X2025532Y1602655D01*
X2025494Y1602464*
X2025488Y1602448*
X2025374Y1602257*
X2025349Y1602237*
X2025158Y1602160*
X2025147Y1602157*
X2024880Y1602119*
X2024873Y1602118*
X2024415*
X2024365Y1602168*
Y1603161*
X2024415Y1603211*
X2024796*
X2024802Y1603210*
X2025108Y1603172*
X2025117Y1603170*
X2025346Y1603094*
X2025371Y1603076*
X2025485Y1602924*
X2025494Y1602902*
X2025533Y1602673*
Y1602665*
X2025381Y1604001D02*
X2025380Y1603992D01*
X2025342Y1603763*
X2025332Y1603742*
X2025218Y1603589*
X2025197Y1603572*
X2025006Y1603496*
X2024995Y1603493*
X2024766Y1603455*
X2024758Y1603454*
X2024415*
X2024365Y1603504*
Y1604382*
X2024415Y1604432*
X2024796*
X2024805*
X2025034Y1604393*
X2025048Y1604389*
X2025200Y1604312*
X2025213Y1604303*
X2025328Y1604189*
X2025341Y1604165*
X2025379Y1604013*
X2025381Y1604001*
X2005097Y1649952D02*
X2005056Y1650278D01*
X2004974Y1650564*
X2004853Y1650806*
X2004651Y1651048*
X2004409Y1651210*
X2004123Y1651333*
X2003836Y1651415*
X2003465Y1651456*
X2002636*
Y1648365*
X2003465*
X2003794Y1648406*
X2004123Y1648488*
X2004407Y1648610*
X2004651Y1648814*
X2004853Y1649015*
X2004974Y1649297*
X2005056Y1649584*
X2005097Y1649952*
X2004777Y1650204D02*
Y1649658D01*
X2004775Y1649643*
X2004691Y1649391*
X2004690Y1649388*
X2004606Y1649178*
X2004595Y1649161*
X2004259Y1648825*
X2004242Y1648814*
X2004032Y1648730*
X2004021Y1648727*
X2003475Y1648643*
X2003468*
X2003006*
X2002956Y1648693*
Y1651128*
X2003006Y1651178*
X2003468*
X2003476Y1651177*
X2003980Y1651093*
X2003994Y1651089*
X2004414Y1650879*
X2004431Y1650864*
X2004557Y1650696*
X2004560Y1650692*
X2004686Y1650482*
X2004691Y1650472*
X2004775Y1650220*
X2004777Y1650204*
X2001948Y1648643D02*
X2000697D01*
X2000647Y1648693*
Y1649742*
X2000697Y1649792*
X2001780*
Y1650070*
X2000697*
X2000647Y1650120*
Y1651128*
X2000697Y1651178*
X2001864*
Y1651456*
X2000327*
Y1648365*
X2001948*
Y1648643*
X1999723D02*
X1998555D01*
X1998505Y1648693*
Y1651456*
X1998186*
Y1648365*
X1999723*
Y1648643*
X1997497Y1649952D02*
X1997456Y1650282D01*
X1997415Y1650569*
X1997296Y1650847*
X1996888Y1651255*
X1996648Y1651375*
X1996362Y1651457*
X1996078Y1651497*
X1995752Y1651457*
X1995465Y1651375*
X1995183Y1651254*
X1994984Y1651054*
X1994821Y1650810*
X1994698Y1650523*
X1994616Y1650237*
X1994575Y1649869*
X1994616Y1649539*
X1994657Y1649255*
X1994819Y1648971*
X1994982Y1648727*
X1995182Y1648567*
X1995425Y1648446*
X1995710Y1648364*
X1996036Y1648323*
X1996362Y1648364*
X1996648Y1648446*
X1996888Y1648566*
X1997091Y1648768*
X1997254Y1648973*
X1997415Y1649255*
X1997456Y1649581*
X1997497Y1649952*
X1997178Y1649910D02*
X1997177Y1649903D01*
X1997093Y1649357*
X1997088Y1649340*
X1996878Y1648962*
X1996864Y1648947*
X1996528Y1648695*
X1996517Y1648688*
X1996307Y1648604*
X1996288Y1648601*
X1995784*
X1995766Y1648604*
X1995556Y1648688*
X1995552Y1648690*
X1995384Y1648774*
X1995371Y1648783*
X1995203Y1648951*
X1995194Y1648964*
X1994984Y1649384*
X1994979Y1649398*
X1994895Y1649902*
Y1649919*
X1994979Y1650422*
X1994984Y1650437*
X1995194Y1650856*
X1995209Y1650874*
X1995377Y1651000*
X1995381Y1651003*
X1995591Y1651129*
X1995607Y1651135*
X1996027Y1651219*
X1996045*
X1996507Y1651135*
X1996528Y1651126*
X1996864Y1650874*
X1996878Y1650858*
X1997088Y1650480*
X1997093Y1650464*
X1997177Y1649918*
X1997178Y1649910*
X1961957Y1657329D02*
X1961682D01*
X1960894Y1655115*
X1960856Y1654852*
X1960759Y1654846*
X1960683Y1655111*
X1959894Y1657329*
X1959581*
X1960613Y1654528*
X1960962*
X1961957Y1657329*
X1959153Y1655356D02*
X1959080Y1655717D01*
X1958903Y1655965*
X1958615Y1656109*
X1958245Y1656183*
X1957982*
X1957932Y1656233*
X1957933Y1656238*
X1958009Y1657078*
X1958059Y1657123*
X1959001*
Y1657329*
X1957761*
X1957655Y1655944*
X1958093Y1655978*
X1958103*
X1958408Y1655940*
X1958425Y1655935*
X1958654Y1655820*
X1958670Y1655807*
X1958823Y1655616*
X1958833Y1655593*
X1958871Y1655364*
X1958872Y1655356*
Y1655349*
X1958872D02*
X1958833Y1655081D01*
X1958823Y1655057*
X1958670Y1654866*
X1958657Y1654855*
X1958466Y1654740*
X1958447Y1654734*
X1958180Y1654695*
X1958167*
X1957862Y1654733*
X1957850Y1654736*
X1957612Y1654825*
Y1654592*
X1957839Y1654527*
X1958171Y1654490*
X1958576Y1654564*
X1958902Y1654745*
X1959080Y1654994*
X1959153Y1655356*
X1956902Y1655725D02*
X1955933D01*
Y1655558*
X1956902*
Y1655725*
X1955184Y1656489D02*
X1954903D01*
Y1654528*
X1955184*
Y1656489*
X1955216Y1657264D02*
X1955159Y1657379D01*
X1955043Y1657437*
X1954928Y1657379*
X1954870Y1657264*
X1954928Y1657149*
X1955043Y1657091*
X1955159Y1657149*
X1955216Y1657264*
X1954344Y1656501D02*
X1954271Y1656862D01*
X1954094Y1657110*
X1953806Y1657254*
X1953398Y1657329*
X1952651*
Y1654528*
X1952932*
Y1655546*
X1952982Y1655596*
X1953362*
X1953730Y1655633*
X1954059Y1655816*
X1954199Y1655956*
X1954270Y1656133*
X1954344Y1656501*
X1954063Y1656462D02*
X1954062Y1656454D01*
X1954024Y1656225*
X1954014Y1656202*
X1953861Y1656011*
X1953848Y1656000*
X1953657Y1655885*
X1953637Y1655879*
X1953332Y1655840*
X1953326*
X1952982*
X1952932Y1655890*
Y1657035*
X1952982Y1657085*
X1953364*
X1953371Y1657084*
X1953371D02*
X1953638Y1657046D01*
X1953654Y1657042*
X1953883Y1656927*
X1953900Y1656912*
X1954015Y1656760*
X1954024Y1656737*
X1954062Y1656470*
X1954063Y1656462*
X1947443Y1546864D02*
X1947362Y1547107D01*
X1947283Y1547306*
X1947125Y1547464*
X1946966Y1547583*
X1946723Y1547664*
X1946437Y1547746*
X1944310*
Y1547426*
X1946192*
X1946197*
X1946617Y1547384*
X1946636Y1547378*
X1946930Y1547210*
X1946944Y1547197*
X1947112Y1546987*
X1947123Y1546962*
X1947165Y1546627*
Y1546614*
X1947123Y1546278*
X1947112Y1546252*
X1946902Y1546001*
X1946888Y1545989*
X1946594Y1545821*
X1946575Y1545815*
X1946155Y1545773*
X1946150*
X1944310*
Y1545453*
X1946188*
X1946763Y1545535*
X1947122Y1545735*
X1947362Y1546093*
X1947443Y1546583*
Y1546864*
Y1549224D02*
X1947402Y1549715D01*
X1947243Y1550072*
X1946968Y1550269*
X1946651Y1550348*
X1946380Y1550309*
X1946185Y1550153*
X1945980Y1549907*
X1945732Y1549535*
X1945566Y1549161*
X1945563Y1549156*
X1945437Y1548946*
X1945416Y1548927*
X1945248Y1548843*
X1945238Y1548839*
X1945070Y1548797*
X1945048*
X1944838Y1548839*
X1944808Y1548858*
X1944682Y1549025*
X1944676Y1549037*
X1944592Y1549247*
X1944589Y1549257*
X1944547Y1549509*
X1944546Y1549517*
X1944547Y1549522*
X1944589Y1549942*
X1944594Y1549960*
X1944725Y1550223*
X1944457*
X1944309Y1549964*
X1944269Y1549559*
X1944309Y1549114*
X1944510Y1548793*
X1944747Y1548555*
X1945101Y1548477*
X1945334Y1548515*
X1945531Y1548633*
X1945732Y1548835*
X1945853Y1549036*
X1945935Y1549242*
X1945938Y1549248*
X1946106Y1549541*
X1946189Y1549708*
X1946198Y1549721*
X1946408Y1549931*
X1946425Y1549942*
X1946635Y1550026*
X1946663Y1550028*
X1946873Y1549986*
X1946899Y1549973*
X1947025Y1549847*
X1947036Y1549830*
X1947120Y1549620*
X1947123Y1549608*
X1947165Y1549314*
Y1549307*
Y1549055*
X1947163Y1549040*
X1947079Y1548788*
X1947078Y1548785*
X1946994Y1548575*
X1946987Y1548564*
X1946921Y1548476*
X1947252*
X1947322Y1548614*
X1947402Y1548816*
X1947443Y1549224*
X1947401Y1551992D02*
X1947361Y1552398D01*
X1947162Y1552715*
X1946885Y1552913*
X1946526Y1552993*
X1946252Y1552954*
X1946016Y1552797*
X1945859Y1552601*
X1945778Y1552317*
X1945683Y1552312*
X1945603Y1552512*
X1945408Y1552708*
X1945213Y1552786*
X1944974Y1552825*
X1944974D02*
X1944704Y1552787D01*
X1944510Y1552594*
X1944351Y1552314*
X1944310Y1551950*
Y1551079*
X1947401*
Y1551992*
X1947123Y1551952D02*
Y1551449D01*
X1947073Y1551399*
X1945982*
X1945932Y1551449*
Y1551868*
Y1551875*
X1945974Y1552211*
X1945976Y1552220*
X1946060Y1552472*
X1946078Y1552496*
X1946246Y1552622*
X1946267Y1552632*
X1946519Y1552674*
X1946537Y1552673*
X1946747Y1552631*
X1946763Y1552625*
X1946973Y1552499*
X1946994Y1552475*
X1947078Y1552265*
X1947081Y1552253*
X1947123Y1551959*
X1947123D02*
Y1551952D01*
X1945654Y1551826D02*
Y1551449D01*
X1945604Y1551399*
X1944638*
X1944588Y1551449*
Y1551868*
X1944589Y1551877*
X1944631Y1552129*
X1944636Y1552143*
X1944720Y1552311*
X1944729Y1552324*
X1944855Y1552450*
X1944878Y1552463*
X1945046Y1552505*
X1945066Y1552506*
X1945318Y1552464*
X1945340Y1552454*
X1945508Y1552328*
X1945524Y1552307*
X1945608Y1552097*
X1945611Y1552087*
X1945653Y1551835*
X1945654Y1551826*
X1937817Y1617028D02*
X1937277Y1617915D01*
X1937111Y1618122*
X1937109Y1618126*
X1937030Y1618243*
X1936787Y1618406*
X1936797Y1618494*
X1937123Y1618616*
X1937320Y1618814*
X1937438Y1619010*
X1937477Y1619326*
X1937397Y1619646*
X1937240Y1619921*
X1936926Y1620078*
X1936560Y1620119*
X1935647*
Y1617028*
X1935967*
Y1618321*
X1936017Y1618371*
X1936311*
X1936323Y1618370*
X1936491Y1618328*
X1936494Y1618327*
X1936620Y1618285*
X1936644Y1618267*
X1936770Y1618100*
X1936937Y1617891*
X1936942Y1617884*
X1937431Y1617028*
X1937817*
X1937158Y1619287D02*
Y1619279D01*
X1937116Y1619027*
X1937106Y1619005*
X1936980Y1618837*
X1936966Y1618824*
X1936756Y1618698*
X1936739Y1618692*
X1936487Y1618650*
X1936478Y1618649*
X1936017*
X1935967Y1618699*
Y1619791*
X1936017Y1619841*
X1936478*
X1936486Y1619840*
X1936779Y1619798*
X1936795Y1619793*
X1936963Y1619709*
X1936980Y1619695*
X1937106Y1619527*
X1937115Y1619507*
X1937157Y1619297*
X1937158Y1619287*
X1933703Y1577028D02*
X1933163Y1577915D01*
X1932997Y1578122*
X1932994Y1578126*
X1932916Y1578243*
X1932672Y1578406*
X1932682Y1578494*
X1933008Y1578616*
X1933206Y1578814*
X1933323Y1579010*
X1933363Y1579326*
X1933283Y1579646*
X1933126Y1579921*
X1932811Y1580078*
X1932445Y1580119*
X1931532*
Y1577028*
X1931852*
Y1578321*
X1931902Y1578371*
X1932196*
X1932208Y1578370*
X1932376Y1578328*
X1932380Y1578327*
X1932506Y1578285*
X1932530Y1578267*
X1932655Y1578100*
X1932823Y1577891*
X1932827Y1577884*
X1933317Y1577028*
X1933703*
X1933044Y1579287D02*
X1933043Y1579279D01*
X1933001Y1579027*
X1932992Y1579005*
X1932866Y1578837*
X1932852Y1578824*
X1932642Y1578698*
X1932624Y1578692*
X1932372Y1578650*
X1932364Y1578649*
X1931902*
X1931852Y1578699*
Y1579791*
X1931902Y1579841*
X1932364*
X1932371Y1579840*
X1932665Y1579798*
X1932680Y1579793*
X1932848Y1579709*
X1932866Y1579695*
X1932992Y1579527*
X1933001Y1579507*
X1933043Y1579297*
X1933044Y1579287*
X1930954Y1580119D02*
X1930597D01*
X1929978Y1577724*
X1929936Y1577433*
X1929887Y1577390*
X1929845*
X1929795Y1577433*
X1929754Y1577724*
X1929134Y1580119*
X1928791*
X1928130Y1577764*
X1928089Y1577556*
X1928087Y1577550*
X1928045Y1577424*
X1927998Y1577390*
X1927956*
X1927906Y1577433*
X1927864Y1577766*
X1927245Y1580119*
X1926889*
X1927783Y1577028*
X1928170*
X1928830Y1579297*
X1928872Y1579629*
X1928921Y1579673*
X1928963*
X1929013Y1579629*
X1929054Y1579297*
X1929673Y1577028*
X1930059*
X1930954Y1580119*
X1932062Y1588008D02*
X1931765Y1588119D01*
X1931357Y1588160*
X1931031Y1588119*
X1931031D02*
X1930743Y1588037D01*
X1930459Y1587916*
X1930216Y1587713*
X1930014Y1587470*
X1929892Y1587187*
X1929810Y1586858*
X1929769Y1586531*
X1929810Y1586163*
X1929892Y1585878*
X1930014Y1585633*
X1930176Y1585390*
X1930376Y1585230*
X1930619Y1585109*
X1930905Y1585027*
X1931231Y1584986*
X1931722Y1585027*
X1932062Y1585178*
Y1585447*
X1931755Y1585310*
X1931739Y1585306*
X1931277Y1585264*
X1931272*
X1931020*
X1931002Y1585267*
X1930792Y1585351*
X1930781Y1585358*
X1930445Y1585610*
X1930433Y1585622*
X1930181Y1586000*
X1930173Y1586019*
X1930089Y1586523*
Y1586531*
Y1586538*
X1930131Y1586832*
Y1586833*
X1930173Y1587085*
X1930180Y1587103*
X1930432Y1587523*
X1930445Y1587537*
X1930613Y1587663*
X1930617Y1587666*
X1930827Y1587792*
X1930844Y1587798*
X1931348Y1587882*
X1931362*
X1931740Y1587840*
X1931750Y1587838*
X1932062Y1587734*
Y1588008*
X1932607Y1593778D02*
X1932568Y1594049D01*
X1932412Y1594244*
X1932166Y1594449*
X1931794Y1594697*
X1931420Y1594863*
X1931415Y1594866*
X1931205Y1594992*
X1931186Y1595013*
X1931102Y1595181*
X1931098Y1595191*
X1931056Y1595359*
X1931055Y1595381*
X1931097Y1595591*
X1931116Y1595621*
X1931284Y1595747*
X1931296Y1595753*
X1931506Y1595837*
X1931516Y1595840*
X1931768Y1595882*
X1931781*
X1932201Y1595840*
X1932218Y1595835*
X1932482Y1595704*
Y1595972*
X1932222Y1596120*
X1931818Y1596160*
X1931373Y1596120*
X1931052Y1595919*
X1930814Y1595682*
X1930736Y1595328*
X1930774Y1595095*
X1930892Y1594898*
X1931093Y1594697*
X1931295Y1594576*
X1931501Y1594494*
X1931507Y1594491*
X1931800Y1594323*
X1931967Y1594240*
X1931979Y1594231*
X1932189Y1594021*
X1932200Y1594004*
X1932284Y1593794*
X1932288Y1593775*
X1932287Y1593766*
X1932245Y1593556*
X1932231Y1593530*
X1932105Y1593404*
X1932089Y1593393*
X1931879Y1593309*
X1931867Y1593306*
X1931573Y1593264*
X1931566*
X1931314*
X1931299Y1593266*
X1931047Y1593350*
X1931044Y1593351*
X1930834Y1593435*
X1930823Y1593442*
X1930735Y1593508*
Y1593177*
X1930873Y1593107*
X1931074Y1593027*
X1931483Y1592986*
X1931974Y1593027*
X1932331Y1593186*
X1932528Y1593461*
X1932607Y1593778*
X1934164Y1609028D02*
X1933624Y1609915D01*
X1933459Y1610122*
X1933456Y1610126*
X1933378Y1610243*
X1933134Y1610406*
X1933144Y1610494*
X1933470Y1610616*
X1933668Y1610814*
X1933785Y1611010*
X1933825Y1611326*
X1933745Y1611646*
X1933588Y1611921*
X1933273Y1612078*
X1932907Y1612119*
X1931994*
Y1609028*
X1932314*
Y1610321*
X1932364Y1610371*
X1932658*
X1932670Y1610370*
X1932838Y1610328*
X1932842Y1610327*
X1932968Y1610285*
X1932992Y1610267*
X1933117Y1610100*
X1933285Y1609891*
X1933289Y1609884*
X1933779Y1609028*
X1933779D02*
X1934164D01*
X1933506Y1611287D02*
X1933505Y1611279D01*
X1933463Y1611027*
X1933454Y1611005*
X1933328Y1610837*
X1933313Y1610824*
X1933103Y1610698*
X1933086Y1610692*
X1932834Y1610650*
X1932826Y1610649*
X1932364*
X1932314Y1610699*
Y1611791*
X1932364Y1611841*
X1932826*
X1932833Y1611840*
X1933127Y1611798*
X1933142Y1611793*
X1933310Y1611709*
X1933328Y1611695*
X1933454Y1611527*
X1933463Y1611507*
X1933505Y1611297*
X1933506Y1611287*
X1935062Y1617028D02*
X1933883Y1620119D01*
X1933532*
X1932353Y1617028*
X1932706*
X1932989Y1617834*
X1933036Y1617867*
X1934337*
X1934384Y1617836*
X1934707Y1617028*
X1935062*
X1934253Y1618145D02*
X1933162D01*
X1933114Y1618212*
X1933576Y1619555*
X1933577Y1619557*
X1933661Y1619767*
X1933755Y1619765*
X1933797Y1619639*
X1933799Y1619623*
Y1619548*
X1934300Y1618213*
X1934253Y1618145*
X1936512Y1644119D02*
X1936193D01*
Y1641698*
X1936233Y1641536*
X1936185Y1641474*
X1936143*
X1936098Y1641501*
X1936057Y1641582*
X1935975Y1641706*
X1935974Y1641707*
X1934477Y1644119*
X1934009*
Y1641028*
X1934329*
Y1643665*
X1934422Y1643690*
X1934548Y1643481*
X1936086Y1641028*
X1936512*
Y1644119*
X1931474Y1604119D02*
X1929307D01*
Y1603841*
X1930181*
X1930231Y1603791*
Y1601028*
X1930551*
Y1603791*
X1930601Y1603841*
X1931474*
Y1604119*
X1931012Y1612119D02*
X1930591D01*
X1929640Y1609967*
X1929514Y1609592*
X1929467Y1609558*
X1929425*
X1929377Y1609595*
X1929335Y1609760*
X1929253Y1609966*
X1928342Y1612119*
X1927880*
Y1609028*
X1928157*
X1928157D02*
Y1611749D01*
X1928157D02*
X1928257Y1611759D01*
X1928298Y1611552*
X1928338Y1611431*
X1929374Y1609028*
X1929518*
X1930554Y1611431*
X1930594Y1611552*
X1930636Y1611759*
X1930685Y1611799*
X1930727*
X1930777Y1611749*
X1930776Y1611743*
X1930735Y1611410*
Y1609028*
X1931012*
Y1612119*
X1932146Y1620119D02*
X1929979D01*
Y1619841*
X1930853*
X1930903Y1619791*
Y1617028*
X1931222*
Y1619791*
X1931272Y1619841*
X1932146*
Y1620119*
X1929396Y1588119D02*
X1929082D01*
X1928214Y1585679*
X1928173Y1585391*
X1928075Y1585384*
X1927992Y1585676*
X1927123Y1588119*
X1926768*
X1927906Y1585028*
X1928298*
X1929396Y1588119*
X1930214Y1594615D02*
X1930173Y1594944D01*
X1930132Y1595231*
X1930013Y1595510*
X1929605Y1595918*
X1929365Y1596038*
X1929079Y1596120*
X1928795Y1596160*
X1928469Y1596119*
X1928182Y1596037*
X1927900Y1595916*
X1927900D02*
X1927701Y1595717D01*
X1927538Y1595473*
X1927415Y1595186*
X1927333Y1594899*
X1927292Y1594532*
X1927333Y1594202*
X1927374Y1593918*
X1927536Y1593634*
X1927699Y1593390*
X1927899Y1593230*
X1928142Y1593109*
X1928427Y1593027*
X1928753Y1592986*
X1929079Y1593027*
X1929365Y1593109*
X1929605Y1593229*
X1929808Y1593431*
X1929971Y1593636*
X1930132Y1593918*
X1930173Y1594243*
X1930214Y1594615*
X1929895Y1594573D02*
X1929894Y1594566D01*
X1929810Y1594020*
X1929805Y1594003*
X1929595Y1593625*
X1929581Y1593610*
X1929245Y1593358*
X1929234Y1593351*
X1929024Y1593267*
X1929005Y1593264*
X1928501*
X1928483Y1593267*
X1928273Y1593351*
X1928269Y1593353*
X1928101Y1593437*
X1928088Y1593446*
X1927920Y1593614*
X1927911Y1593627*
X1927701Y1594047*
X1927696Y1594061*
X1927612Y1594565*
Y1594581*
X1927696Y1595085*
X1927701Y1595099*
X1927911Y1595519*
X1927926Y1595537*
X1928094Y1595663*
X1928098Y1595666*
X1928308Y1595792*
X1928324Y1595798*
X1928743Y1595882*
X1928762*
X1929224Y1595798*
X1929245Y1595789*
X1929581Y1595537*
X1929595Y1595521*
X1929805Y1595143*
X1929810Y1595127*
X1929894Y1594581*
X1929895Y1594573*
X1929081Y1604119D02*
X1926914D01*
Y1603841*
X1927788*
X1927838Y1603791*
Y1601028*
X1928157*
X1928157D02*
Y1603791D01*
X1928157D02*
X1928207Y1603841D01*
X1928207D02*
X1929081D01*
Y1604119*
X1931180Y1628119D02*
X1929643D01*
Y1625028*
X1929963*
Y1626363*
X1930013Y1626413*
X1931096*
Y1626691*
X1930013*
X1929963Y1626741*
Y1627791*
X1930013Y1627841*
X1931180*
Y1628119*
X1931389Y1633943D02*
X1931309Y1634343D01*
X1931113Y1634618*
X1930794Y1634777*
X1930386Y1634859*
X1930097*
X1930047Y1634909*
Y1634914*
X1930131Y1635837*
X1930181Y1635883*
X1931222*
Y1636119*
X1929849*
X1929731Y1634586*
X1930219Y1634623*
X1930229*
X1930565Y1634581*
X1930581Y1634576*
X1930833Y1634450*
X1930850Y1634436*
X1931018Y1634227*
X1931028Y1634204*
X1931070Y1633952*
Y1633943*
Y1633936*
X1931028Y1633642*
X1931018Y1633618*
X1930850Y1633408*
X1930836Y1633397*
X1930626Y1633271*
X1930608Y1633264*
X1930314Y1633222*
X1930301*
X1929965Y1633264*
X1929953Y1633267*
X1929685Y1633367*
Y1633099*
X1929939Y1633027*
X1930305Y1632986*
X1930752Y1633067*
X1930752D02*
X1931112Y1633268D01*
X1931309Y1633544*
X1931389Y1633943*
X1933279Y1642615D02*
X1933239Y1642941D01*
X1933157Y1643227*
X1933036Y1643469*
X1932834Y1643711*
X1932592Y1643873*
X1932305Y1643995*
X1932018Y1644077*
X1931647Y1644119*
X1930819*
Y1641028*
X1931647*
X1931977Y1641069*
X1932306Y1641151*
X1932589Y1641273*
X1932834Y1641477*
X1933036Y1641678*
X1933156Y1641960*
X1933238Y1642247*
X1933279Y1642615*
X1932960Y1642867D02*
Y1642321D01*
X1932957Y1642305*
X1932873Y1642054*
X1932872Y1642051*
X1932788Y1641841*
X1932777Y1641824*
X1932441Y1641488*
X1932425Y1641477*
X1932215Y1641393*
X1932204Y1641390*
X1931658Y1641306*
X1931650*
X1931188*
X1931138Y1641356*
Y1643791*
X1931188Y1643841*
X1931650*
X1931658Y1643840*
X1932162Y1643756*
X1932176Y1643751*
X1932596Y1643542*
X1932614Y1643527*
X1932740Y1643359*
X1932743Y1643355*
X1932869Y1643145*
X1932873Y1643135*
X1932957Y1642883*
X1932960Y1642867*
X1929584Y1617778D02*
X1929545Y1618049D01*
X1929389Y1618244*
X1929143Y1618449*
X1928771Y1618697*
X1928397Y1618863*
X1928392Y1618866*
X1928182Y1618992*
X1928163Y1619013*
X1928079Y1619181*
X1928075Y1619191*
X1928033Y1619359*
Y1619381*
X1928075Y1619591*
X1928075D02*
X1928094Y1619621D01*
X1928261Y1619747*
X1928273Y1619753*
X1928483Y1619837*
X1928493Y1619840*
X1928745Y1619882*
X1928758*
X1929178Y1619840*
X1929196Y1619835*
X1929459Y1619704*
Y1619972*
X1929200Y1620120*
X1928795Y1620160*
X1928350Y1620120*
X1928029Y1619919*
X1927791Y1619682*
X1927713Y1619328*
X1927751Y1619095*
X1927869Y1618898*
X1928071Y1618697*
X1928272Y1618576*
X1928478Y1618494*
X1928484Y1618491*
X1928777Y1618323*
X1928944Y1618240*
X1928957Y1618231*
X1929167Y1618021*
X1929178Y1618004*
X1929262Y1617794*
X1929264Y1617766*
X1929222Y1617556*
X1929209Y1617530*
X1929083Y1617404*
X1929066Y1617393*
X1928856Y1617309*
X1928844Y1617306*
X1928550Y1617264*
X1928543*
X1928291*
X1928276Y1617266*
X1928024Y1617350*
X1928021Y1617351*
X1927811Y1617435*
X1927800Y1617442*
X1927712Y1617508*
Y1617177*
X1927850Y1617107*
X1928052Y1617027*
X1928460Y1616986*
X1928951Y1617027*
X1929308Y1617186*
X1929505Y1617461*
X1929584Y1617778*
X1926561Y1579203D02*
X1926481Y1579602D01*
X1926285Y1579878*
X1925966Y1580037*
X1925516Y1580119*
X1924689*
Y1577028*
X1925009*
Y1578153*
X1925059Y1578203*
X1925476*
X1925883Y1578244*
X1926246Y1578446*
X1926402Y1578601*
X1926480Y1578797*
X1926561Y1579203*
X1926242Y1579161D02*
Y1579153D01*
X1926200Y1578901*
X1926189Y1578878*
X1926021Y1578668*
X1926008Y1578656*
X1925798Y1578530*
X1925779Y1578524*
X1925443Y1578482*
X1925437Y1578481*
X1925059*
X1925009Y1578531*
Y1579791*
X1925059Y1579841*
X1925478*
X1925486Y1579840*
X1925779Y1579798*
X1925795Y1579793*
X1926047Y1579668*
X1926064Y1579653*
X1926190Y1579485*
X1926200Y1579462*
X1926242Y1579168*
Y1579161*
X1926393Y1585778D02*
X1926355Y1586049D01*
X1926198Y1586244*
X1925952Y1586449*
X1925580Y1586697*
X1925206Y1586863*
X1925201Y1586866*
X1924991Y1586992*
X1924972Y1587013*
X1924888Y1587181*
X1924884Y1587191*
X1924842Y1587359*
Y1587381*
X1924884Y1587591*
X1924903Y1587621*
X1925071Y1587747*
X1925082Y1587753*
X1925292Y1587837*
X1925302Y1587840*
X1925554Y1587882*
X1925567*
X1925987Y1587840*
X1926005Y1587835*
X1926268Y1587704*
Y1587972*
X1926009Y1588120*
X1925604Y1588160*
X1925159Y1588120*
X1924838Y1587919*
X1924600Y1587682*
X1924522Y1587328*
X1924561Y1587095*
X1924679Y1586898*
X1924880Y1586697*
X1925081Y1586576*
X1925287Y1586494*
X1925293Y1586491*
X1925586Y1586323*
X1925753Y1586240*
X1925766Y1586231*
X1925976Y1586021*
X1925987Y1586004*
X1926071Y1585794*
X1926074Y1585775*
X1926073Y1585766*
X1926031Y1585556*
X1926018Y1585530*
X1925892Y1585404*
X1925875Y1585393*
X1925665Y1585309*
X1925654Y1585306*
X1925654D02*
X1925360Y1585264D01*
X1925353*
X1925101*
X1925085Y1585266*
X1924833Y1585350*
X1924830Y1585351*
X1924620Y1585435*
X1924609Y1585442*
X1924521Y1585508*
Y1585177*
X1924659Y1585107*
X1924861Y1585027*
X1925269Y1584986*
X1925760Y1585027*
X1926117Y1585186*
X1926314Y1585461*
X1926393Y1585778*
X1926772Y1596008D02*
X1926475Y1596119D01*
X1926067Y1596160*
X1925740Y1596119*
X1925453Y1596037*
X1925169Y1595916*
X1924926Y1595713*
X1924724Y1595470*
X1924602Y1595187*
X1924520Y1594858*
X1924479Y1594531*
X1924520Y1594163*
X1924602Y1593878*
X1924724Y1593633*
X1924886Y1593390*
X1925086Y1593230*
X1925329Y1593109*
X1925614Y1593027*
X1925941Y1592986*
X1926432Y1593027*
X1926772Y1593178*
Y1593447*
X1926464Y1593310*
X1926449Y1593306*
X1925987Y1593264*
X1925982*
X1925730*
X1925712Y1593267*
X1925502Y1593351*
X1925490Y1593358*
X1925155Y1593610*
X1925143Y1593622*
X1924891Y1594000*
X1924883Y1594019*
X1924799Y1594523*
Y1594531*
Y1594538*
X1924841Y1594832*
Y1594833*
X1924883Y1595085*
X1924890Y1595103*
X1925142Y1595523*
X1925155Y1595537*
X1925323Y1595663*
X1925327Y1595666*
X1925537Y1595792*
X1925554Y1595798*
X1926058Y1595882*
X1926072*
X1926450Y1595840*
X1926460Y1595838*
X1926772Y1595734*
Y1596008*
X1926561Y1603203D02*
X1926481Y1603602D01*
X1926285Y1603878*
X1925966Y1604037*
X1925516Y1604119*
X1924689*
Y1601028*
X1925009*
Y1602153*
X1925059Y1602203*
X1925476*
X1925883Y1602244*
X1926246Y1602446*
X1926402Y1602601*
X1926480Y1602797*
X1926561Y1603203*
X1926242Y1603161D02*
Y1603153D01*
X1926200Y1602901*
X1926189Y1602878*
X1926021Y1602668*
X1926008Y1602656*
X1925798Y1602530*
X1925779Y1602524*
X1925443Y1602482*
X1925437Y1602481*
X1925059*
X1925009Y1602531*
Y1603791*
X1925059Y1603841*
X1925478*
X1925486Y1603840*
X1925779Y1603798*
X1925795Y1603793*
X1926047Y1603668*
X1926064Y1603653*
X1926190Y1603485*
X1926200Y1603462*
X1926242Y1603168*
Y1603161*
X1927150Y1610615D02*
X1927109Y1610941D01*
X1927027Y1611227*
X1926906Y1611469*
X1926704Y1611711*
X1926462Y1611873*
X1926175Y1611995*
X1925889Y1612077*
X1925518Y1612119*
X1924689*
Y1609028*
X1925517*
X1925847Y1609069*
X1926176Y1609151*
X1926460Y1609273*
X1926704Y1609477*
X1926906Y1609678*
X1927027Y1609960*
X1927109Y1610247*
X1927150Y1610615*
X1926830Y1610867D02*
Y1610321D01*
X1926827Y1610305*
X1926743Y1610054*
X1926742Y1610051*
X1926659Y1609841*
X1926659D02*
X1926647Y1609824D01*
X1926312Y1609488*
X1926295Y1609477*
X1926085Y1609393*
X1926074Y1609390*
X1925528Y1609306*
X1925520*
X1925059*
X1925009Y1609356*
Y1611791*
X1925059Y1611841*
X1925520*
X1925529Y1611840*
X1926033Y1611756*
X1926047Y1611751*
X1926467Y1611542*
X1926467D02*
X1926484Y1611527D01*
X1926610Y1611359*
X1926613Y1611355*
X1926739Y1611145*
X1926743Y1611135*
X1926827Y1610883*
X1926830Y1610867*
X1927150Y1618615D02*
X1927109Y1618941D01*
X1927027Y1619227*
X1926906Y1619469*
X1926704Y1619711*
X1926462Y1619873*
X1926175Y1619995*
X1925889Y1620077*
X1925518Y1620119*
X1924689*
Y1617028*
X1925517*
X1925847Y1617069*
X1926176Y1617151*
X1926460Y1617273*
X1926704Y1617477*
X1926906Y1617678*
X1927027Y1617960*
X1927109Y1618247*
X1927150Y1618615*
X1926830Y1618867D02*
Y1618321D01*
X1926827Y1618305*
X1926743Y1618054*
X1926742Y1618051*
X1926659Y1617841*
X1926659D02*
X1926647Y1617824D01*
X1926312Y1617488*
X1926295Y1617477*
X1926085Y1617393*
X1926074Y1617390*
X1925528Y1617306*
X1925520*
X1925059*
X1925009Y1617356*
Y1619791*
X1925059Y1619841*
X1925520*
X1925529Y1619840*
X1926033Y1619756*
X1926047Y1619751*
X1926467Y1619542*
X1926467D02*
X1926484Y1619527D01*
X1926610Y1619359*
X1926613Y1619355*
X1926739Y1619145*
X1926743Y1619135*
X1926827Y1618883*
X1926830Y1618867*
X1928912Y1625778D02*
X1928874Y1626049D01*
X1928717Y1626244*
X1928471Y1626449*
X1928099Y1626697*
X1927725Y1626863*
X1927720Y1626866*
X1927510Y1626992*
X1927491Y1627013*
X1927407Y1627181*
X1927403Y1627191*
X1927361Y1627359*
Y1627381*
X1927403Y1627591*
X1927422Y1627621*
X1927590Y1627747*
X1927601Y1627753*
X1927811Y1627837*
X1927821Y1627840*
X1928073Y1627882*
X1928087*
X1928506Y1627840*
X1928524Y1627835*
X1928787Y1627704*
Y1627972*
X1928528Y1628120*
X1928123Y1628160*
X1927678Y1628120*
X1927357Y1627919*
X1927120Y1627682*
X1927041Y1627328*
X1927080Y1627095*
X1927198Y1626898*
X1927399Y1626697*
X1927600Y1626576*
X1927806Y1626494*
X1927812Y1626491*
X1928105Y1626323*
X1928272Y1626240*
X1928285Y1626231*
X1928495Y1626021*
X1928506Y1626004*
X1928590Y1625794*
X1928593Y1625775*
X1928592Y1625766*
X1928550Y1625556*
X1928537Y1625530*
X1928411Y1625404*
X1928394Y1625393*
X1928184Y1625309*
X1928173Y1625306*
X1927879Y1625264*
X1927872*
X1927620*
X1927604Y1625266*
X1927352Y1625350*
X1927349Y1625351*
X1927139Y1625435*
X1927128Y1625442*
X1927040Y1625508*
Y1625177*
X1927178Y1625107*
X1927380Y1625027*
X1927788Y1624986*
X1928279Y1625027*
X1928637Y1625186*
X1928833Y1625461*
X1928912Y1625778*
X1928997Y1633264D02*
X1927452D01*
X1927402Y1633314*
Y1633322*
X1927444Y1633574*
X1927452Y1633593*
X1927536Y1633719*
X1927542Y1633727*
X1927668Y1633853*
X1927672Y1633856*
X1927882Y1634024*
X1927887Y1634028*
X1928220Y1634236*
X1928549Y1634524*
X1928752Y1634768*
X1928873Y1635048*
X1928912Y1635368*
X1928833Y1635686*
X1928676Y1635922*
X1928359Y1636120*
X1927999Y1636160*
X1927755Y1636119*
X1927555Y1636080*
X1927208Y1635848*
Y1635618*
X1927290Y1635700*
X1927300Y1635708*
X1927510Y1635834*
X1927526Y1635840*
X1927946Y1635924*
X1927964*
X1928216Y1635882*
X1928237Y1635873*
X1928237D02*
X1928405Y1635747D01*
X1928415Y1635737*
X1928541Y1635569*
X1928550Y1635549*
X1928592Y1635339*
X1928593Y1635329*
Y1635321*
X1928551Y1635069*
X1928548Y1635058*
X1928464Y1634848*
X1928453Y1634832*
X1928243Y1634622*
X1928240Y1634619*
X1927946Y1634367*
X1927944Y1634365*
X1927608Y1634114*
X1927403Y1633950*
X1927242Y1633748*
X1927164Y1633592*
X1927082Y1633141*
Y1633028*
X1928997*
Y1633264*
X1930214Y1644119D02*
X1929872D01*
X1929175Y1643052*
X1929050Y1642803*
X1928960*
X1928835Y1643053*
X1928221Y1644119*
X1927836*
X1928796Y1642600*
X1928795Y1642545*
X1927756Y1641028*
X1928138*
X1928876Y1642175*
X1928916Y1642295*
X1928928Y1642315*
X1928970Y1642357*
X1929050Y1642344*
X1929133Y1642178*
X1929831Y1641028*
X1930214*
X1929215Y1642546*
Y1642601*
X1930214Y1644119*
X1926615Y1628119D02*
X1926307D01*
X1925608Y1626721*
X1925525Y1626513*
X1925431Y1626515*
X1925390Y1626638*
X1925350Y1626719*
X1925349Y1626720*
X1924691Y1628119*
X1924341*
X1925313Y1626133*
X1925319Y1626111*
Y1625028*
X1925638*
Y1626153*
X1925644Y1626176*
X1926615Y1628119*
X1926561Y1635203D02*
X1926481Y1635602D01*
X1926285Y1635878*
X1925966Y1636037*
X1925516Y1636119*
X1924689*
Y1633028*
X1925009*
Y1634153*
X1925059Y1634203*
X1925476*
X1925883Y1634244*
X1926246Y1634446*
X1926402Y1634601*
X1926480Y1634797*
X1926561Y1635203*
X1926242Y1635161D02*
Y1635153D01*
X1926200Y1634901*
X1926189Y1634878*
X1926021Y1634668*
X1926008Y1634656*
X1925798Y1634530*
X1925779Y1634524*
X1925443Y1634482*
X1925437Y1634481*
X1925059*
X1925009Y1634531*
Y1635791*
X1925059Y1635841*
X1925478*
X1925486Y1635840*
X1925779Y1635798*
X1925795Y1635793*
X1926047Y1635668*
X1926064Y1635653*
X1926190Y1635485*
X1926200Y1635462*
X1926242Y1635168*
Y1635161*
X1927192Y1644119D02*
X1926872D01*
Y1641698*
X1926912Y1641536*
X1926864Y1641474*
X1926822*
X1926777Y1641501*
X1926737Y1641582*
X1926654Y1641706*
Y1641707*
X1925157Y1644119*
X1924689*
Y1641028*
X1925009*
Y1643665*
X1925102Y1643690*
X1925227Y1643481*
X1926766Y1641028*
X1927192*
Y1644119*
X1924400Y1627998D02*
Y1628119D01*
X1924500Y1594344D02*
Y1594697D01*
Y1627794D02*
Y1628119D01*
X1924600Y1585137D02*
Y1585448D01*
Y1587029D02*
Y1587680D01*
Y1593883D02*
Y1595177D01*
Y1627590D02*
Y1628119D01*
X1924700Y1577028D02*
Y1580119D01*
Y1585091D02*
Y1585403D01*
Y1586877D02*
Y1587781D01*
Y1593681D02*
Y1595415D01*
Y1601028D02*
Y1604119D01*
Y1609028D02*
Y1612119D01*
Y1617028D02*
Y1620119D01*
Y1627386D02*
Y1628100D01*
Y1633028D02*
Y1636119D01*
Y1641028D02*
Y1644119D01*
X1924800Y1577028D02*
Y1580119D01*
Y1585051D02*
Y1585363D01*
Y1586777D02*
Y1587881D01*
Y1593519D02*
Y1594519D01*
Y1594544D02*
Y1595562D01*
Y1601028D02*
Y1604119D01*
Y1609028D02*
Y1612119D01*
Y1617028D02*
Y1620119D01*
Y1627182D02*
Y1627887D01*
Y1633028D02*
Y1636119D01*
Y1641028D02*
Y1644119D01*
X1924900Y1577028D02*
Y1580119D01*
Y1585023D02*
Y1585328D01*
Y1586685D02*
Y1587157D01*
Y1587619D02*
Y1587958D01*
Y1593379D02*
Y1593986D01*
Y1595120D02*
Y1595682D01*
Y1601028D02*
Y1604119D01*
Y1609028D02*
Y1612119D01*
Y1617028D02*
Y1620119D01*
Y1626978D02*
Y1627675D01*
Y1633028D02*
Y1636119D01*
Y1641028D02*
Y1644119D01*
X1925000Y1577028D02*
Y1580119D01*
Y1585013D02*
Y1585294D01*
Y1586625D02*
Y1586987D01*
Y1587694D02*
Y1588020D01*
Y1593299D02*
Y1593836D01*
Y1595286D02*
Y1595775D01*
Y1601028D02*
Y1604119D01*
Y1609028D02*
Y1612119D01*
Y1617028D02*
Y1620119D01*
Y1626773D02*
Y1627462D01*
Y1633028D02*
Y1636119D01*
Y1641028D02*
Y1644119D01*
X1925100Y1578203D02*
Y1578481D01*
Y1579841D02*
Y1580119D01*
Y1585003D02*
Y1585264D01*
Y1586568D02*
Y1586927D01*
Y1587760D02*
Y1588083D01*
Y1593223D02*
Y1593686D01*
Y1595453D02*
Y1595858D01*
Y1602203D02*
Y1602481D01*
Y1603841D02*
Y1604119D01*
Y1609028D02*
Y1609306D01*
Y1611841D02*
Y1612119D01*
Y1617028D02*
Y1617306D01*
Y1619841D02*
Y1620119D01*
Y1626569D02*
Y1627250D01*
Y1634203D02*
Y1634481D01*
Y1635841D02*
Y1636119D01*
Y1643693D02*
Y1644119D01*
X1925200Y1578203D02*
Y1578481D01*
Y1579841D02*
Y1580119D01*
Y1584993D02*
Y1585264D01*
Y1586528D02*
Y1586867D01*
Y1587800D02*
Y1588124D01*
Y1593173D02*
Y1593575D01*
Y1595571D02*
Y1595929D01*
Y1602203D02*
Y1602481D01*
Y1603841D02*
Y1604119D01*
Y1609028D02*
Y1609306D01*
Y1611841D02*
Y1612119D01*
Y1617028D02*
Y1617306D01*
Y1619841D02*
Y1620119D01*
Y1626365D02*
Y1627037D01*
Y1634203D02*
Y1634481D01*
Y1635841D02*
Y1636119D01*
Y1643526D02*
Y1644049D01*
X1925300Y1578203D02*
Y1578481D01*
Y1579841D02*
Y1580119D01*
Y1584989D02*
Y1585264D01*
Y1586487D02*
Y1586822D01*
Y1587840D02*
Y1588133D01*
Y1593123D02*
Y1593500D01*
Y1595646D02*
Y1595972D01*
Y1602203D02*
Y1602481D01*
Y1603841D02*
Y1604119D01*
Y1609028D02*
Y1609306D01*
Y1611841D02*
Y1612119D01*
Y1617028D02*
Y1617306D01*
Y1619841D02*
Y1620119D01*
Y1626161D02*
Y1626825D01*
Y1634203D02*
Y1634481D01*
Y1635841D02*
Y1636119D01*
Y1643365D02*
Y1643888D01*
X1925400Y1578203D02*
Y1578481D01*
Y1579841D02*
Y1580119D01*
Y1584997D02*
Y1585270D01*
Y1586430D02*
Y1586777D01*
Y1587856D02*
Y1588142D01*
Y1593088D02*
Y1593425D01*
Y1595710D02*
Y1596015D01*
Y1602203D02*
Y1602481D01*
Y1603841D02*
Y1604119D01*
Y1609028D02*
Y1609306D01*
Y1611841D02*
Y1612119D01*
Y1617028D02*
Y1617306D01*
Y1619841D02*
Y1620119D01*
Y1625028D02*
Y1626609D01*
Y1634203D02*
Y1634481D01*
Y1635841D02*
Y1636119D01*
Y1643205D02*
Y1643727D01*
X1925500Y1578206D02*
Y1578489D01*
Y1579838D02*
Y1580119D01*
Y1585005D02*
Y1585284D01*
Y1586373D02*
Y1586733D01*
Y1587873D02*
Y1588151D01*
Y1593060D02*
Y1593352D01*
Y1595770D02*
Y1596051D01*
Y1602206D02*
Y1602489D01*
Y1603838D02*
Y1604119D01*
Y1609028D02*
Y1609306D01*
Y1611841D02*
Y1612119D01*
Y1617028D02*
Y1617306D01*
Y1619841D02*
Y1620119D01*
Y1625028D02*
Y1626486D01*
Y1634206D02*
Y1634489D01*
Y1635838D02*
Y1636119D01*
Y1643046D02*
Y1643566D01*
X1925600Y1578216D02*
Y1578501D01*
Y1579824D02*
Y1580103D01*
Y1585014D02*
Y1585298D01*
Y1586316D02*
Y1586684D01*
Y1587879D02*
Y1588160D01*
Y1593031D02*
Y1593312D01*
Y1595806D02*
Y1596079D01*
Y1602216D02*
Y1602501D01*
Y1603824D02*
Y1604103D01*
Y1609038D02*
Y1609317D01*
Y1611828D02*
Y1612109D01*
Y1617038D02*
Y1617317D01*
Y1619828D02*
Y1620109D01*
Y1625028D02*
Y1626700D01*
Y1634216D02*
Y1634501D01*
Y1635824D02*
Y1636103D01*
Y1642887D02*
Y1643405D01*
X1925700Y1578226D02*
Y1578514D01*
Y1579810D02*
Y1580085D01*
Y1585022D02*
Y1585323D01*
Y1586266D02*
Y1586617D01*
Y1587869D02*
Y1588151D01*
Y1593016D02*
Y1593272D01*
Y1595822D02*
Y1596108D01*
Y1602226D02*
Y1602514D01*
Y1603810D02*
Y1604085D01*
Y1609051D02*
Y1609333D01*
Y1611811D02*
Y1612098D01*
Y1617051D02*
Y1617333D01*
Y1619811D02*
Y1620098D01*
Y1626288D02*
Y1626904D01*
Y1634226D02*
Y1634514D01*
Y1635810D02*
Y1636085D01*
Y1642727D02*
Y1643243D01*
X1925800Y1578236D02*
Y1578531D01*
Y1579791D02*
Y1580067D01*
Y1585045D02*
Y1585363D01*
Y1586196D02*
Y1586551D01*
Y1587859D02*
Y1588141D01*
Y1593004D02*
Y1593264D01*
Y1595839D02*
Y1596127D01*
Y1602236D02*
Y1602531D01*
Y1603791D02*
Y1604067D01*
Y1609063D02*
Y1609348D01*
Y1611795D02*
Y1612087D01*
Y1617063D02*
Y1617348D01*
Y1619795D02*
Y1620087D01*
Y1626488D02*
Y1627104D01*
Y1634236D02*
Y1634531D01*
Y1635791D02*
Y1636067D01*
Y1642568D02*
Y1643082D01*
X1925900Y1578253D02*
Y1578591D01*
Y1579741D02*
Y1580049D01*
Y1585089D02*
Y1585413D01*
Y1586096D02*
Y1586484D01*
Y1587849D02*
Y1588131D01*
Y1592991D02*
Y1593264D01*
Y1595856D02*
Y1596139D01*
Y1602253D02*
Y1602591D01*
Y1603741D02*
Y1604049D01*
Y1609082D02*
Y1609363D01*
Y1611778D02*
Y1612074D01*
Y1617082D02*
Y1617363D01*
Y1619778D02*
Y1620074D01*
Y1626688D02*
Y1627304D01*
Y1634253D02*
Y1634591D01*
Y1635741D02*
Y1636049D01*
Y1642408D02*
Y1642921D01*
X1926000Y1578309D02*
Y1578651D01*
Y1579691D02*
Y1580020D01*
Y1585134D02*
Y1585513D01*
Y1585971D02*
Y1586409D01*
Y1587837D02*
Y1588121D01*
Y1592991D02*
Y1593265D01*
Y1595872D02*
Y1596152D01*
Y1602309D02*
Y1602651D01*
Y1603691D02*
Y1604020D01*
Y1609107D02*
Y1609379D01*
Y1611761D02*
Y1612046D01*
Y1617107D02*
Y1617379D01*
Y1619761D02*
Y1620046D01*
Y1626888D02*
Y1627504D01*
Y1634309D02*
Y1634651D01*
Y1635691D02*
Y1636020D01*
Y1642249D02*
Y1642760D01*
X1926100Y1578365D02*
Y1578766D01*
Y1579605D02*
Y1579970D01*
Y1585178D02*
Y1586326D01*
Y1587788D02*
Y1588068D01*
Y1592999D02*
Y1593274D01*
Y1595879D02*
Y1596157D01*
Y1602365D02*
Y1602766D01*
Y1603605D02*
Y1603970D01*
Y1609132D02*
Y1609399D01*
Y1611725D02*
Y1612017D01*
Y1617132D02*
Y1617399D01*
Y1619725D02*
Y1620017D01*
Y1627088D02*
Y1627704D01*
Y1634365D02*
Y1634766D01*
Y1635605D02*
Y1635970D01*
Y1642089D02*
Y1642599D01*
X1926200Y1578420D02*
Y1578903D01*
Y1579460D02*
Y1579920D01*
Y1585301D02*
Y1586242D01*
Y1587738D02*
Y1588011D01*
Y1593008D02*
Y1593283D01*
Y1595868D02*
Y1596147D01*
Y1602420D02*
Y1602903D01*
Y1603460D02*
Y1603920D01*
Y1609161D02*
Y1609439D01*
Y1611675D02*
Y1611985D01*
Y1617161D02*
Y1617439D01*
Y1619675D02*
Y1619985D01*
Y1627288D02*
Y1627904D01*
Y1634420D02*
Y1634903D01*
Y1635460D02*
Y1635920D01*
Y1641930D02*
Y1642438D01*
X1926300Y1578500D02*
Y1579856D01*
Y1585441D02*
Y1586117D01*
Y1593016D02*
Y1593292D01*
Y1595857D02*
Y1596137D01*
Y1602500D02*
Y1603856D01*
Y1609204D02*
Y1609480D01*
Y1611625D02*
Y1611942D01*
Y1617204D02*
Y1617480D01*
Y1619625D02*
Y1619942D01*
Y1627488D02*
Y1628104D01*
Y1634500D02*
Y1635856D01*
Y1641770D02*
Y1642277D01*
X1926400Y1578600D02*
Y1579716D01*
Y1593024D02*
Y1593301D01*
Y1595846D02*
Y1596127D01*
Y1602600D02*
Y1603716D01*
Y1609247D02*
Y1609577D01*
Y1611575D02*
Y1611899D01*
Y1617247D02*
Y1617577D01*
Y1619575D02*
Y1619899D01*
Y1627688D02*
Y1628119D01*
Y1634600D02*
Y1635716D01*
Y1641611D02*
Y1642116D01*
X1926500Y1578897D02*
Y1579508D01*
Y1593057D02*
Y1593326D01*
Y1595825D02*
Y1596110D01*
Y1602897D02*
Y1603508D01*
Y1609306D02*
Y1609677D01*
Y1611506D02*
Y1611847D01*
Y1617306D02*
Y1617677D01*
Y1619506D02*
Y1619847D01*
Y1627888D02*
Y1628119D01*
Y1634897D02*
Y1635508D01*
Y1641451D02*
Y1641955D01*
X1926600Y1593102D02*
Y1593370D01*
Y1595791D02*
Y1596072D01*
Y1609390D02*
Y1609777D01*
Y1611372D02*
Y1611781D01*
Y1617390D02*
Y1617777D01*
Y1619372D02*
Y1619781D01*
Y1628088D02*
Y1628119D01*
Y1641292D02*
Y1641793D01*
X1926700Y1593146D02*
Y1593415D01*
Y1595758D02*
Y1596035D01*
Y1609473D02*
Y1609945D01*
Y1611210D02*
Y1611714D01*
Y1617473D02*
Y1617945D01*
Y1619210D02*
Y1619714D01*
Y1641133D02*
Y1641637D01*
X1926800Y1588031D02*
Y1588119D01*
Y1609572D02*
Y1610223D01*
Y1610965D02*
Y1611596D01*
Y1617572D02*
Y1618223D01*
Y1618965D02*
Y1619596D01*
Y1641028D02*
Y1641479D01*
X1926900Y1580079D02*
Y1580119D01*
Y1587760D02*
Y1588119D01*
Y1609672D02*
Y1611476D01*
Y1617672D02*
Y1619476D01*
Y1641028D02*
Y1641489D01*
Y1641586D02*
Y1644119D01*
X1927000Y1579734D02*
Y1580119D01*
Y1587488D02*
Y1588119D01*
Y1603841D02*
Y1604119D01*
Y1609898D02*
Y1611281D01*
Y1617898D02*
Y1619281D01*
Y1641028D02*
Y1644119D01*
X1927100Y1579388D02*
Y1580119D01*
Y1587217D02*
Y1588119D01*
Y1603841D02*
Y1604119D01*
Y1610217D02*
Y1610972D01*
Y1618217D02*
Y1618972D01*
Y1625147D02*
Y1625462D01*
Y1627061D02*
Y1627594D01*
Y1633028D02*
Y1633241D01*
Y1641028D02*
Y1644119D01*
X1927200Y1579043D02*
Y1580119D01*
Y1586945D02*
Y1587901D01*
Y1603841D02*
Y1604119D01*
Y1625099D02*
Y1625411D01*
Y1626896D02*
Y1627762D01*
Y1633028D02*
Y1633664D01*
X1927300Y1578697D02*
Y1579911D01*
Y1586674D02*
Y1587620D01*
Y1594469D02*
Y1594602D01*
Y1603841D02*
Y1604119D01*
Y1625059D02*
Y1625371D01*
Y1626796D02*
Y1627862D01*
Y1633028D02*
Y1633821D01*
Y1635708D02*
Y1635909D01*
X1927400Y1578352D02*
Y1579531D01*
Y1586402D02*
Y1587339D01*
Y1593872D02*
Y1595134D01*
Y1603841D02*
Y1604119D01*
Y1625025D02*
Y1625334D01*
Y1626696D02*
Y1627204D01*
Y1627577D02*
Y1627946D01*
Y1633028D02*
Y1633946D01*
Y1635768D02*
Y1635976D01*
X1927500Y1578006D02*
Y1579151D01*
Y1586131D02*
Y1587058D01*
Y1593697D02*
Y1595384D01*
Y1603841D02*
Y1604119D01*
Y1625015D02*
Y1625301D01*
Y1626636D02*
Y1627000D01*
Y1627679D02*
Y1628009D01*
Y1633028D02*
Y1633264D01*
Y1633665D02*
Y1634027D01*
Y1635828D02*
Y1636043D01*
X1927600Y1577661D02*
Y1578771D01*
Y1585860D02*
Y1586777D01*
Y1593538D02*
Y1595566D01*
Y1603841D02*
Y1604119D01*
Y1625005D02*
Y1625267D01*
Y1626576D02*
Y1626938D01*
Y1627753D02*
Y1628071D01*
Y1633028D02*
Y1633264D01*
Y1633784D02*
Y1634107D01*
Y1635855D02*
Y1636088D01*
X1927700Y1577315D02*
Y1578391D01*
Y1585588D02*
Y1586496D01*
Y1593389D02*
Y1594049D01*
Y1595097D02*
Y1595716D01*
Y1603841D02*
Y1604119D01*
Y1624995D02*
Y1625264D01*
Y1626536D02*
Y1626878D01*
Y1627793D02*
Y1628122D01*
Y1633028D02*
Y1633264D01*
Y1633879D02*
Y1634183D01*
Y1635875D02*
Y1636108D01*
X1927800Y1577028D02*
Y1578011D01*
Y1585317D02*
Y1586215D01*
Y1593309D02*
Y1593849D01*
Y1595297D02*
Y1595816D01*
Y1603839D02*
Y1604119D01*
Y1617132D02*
Y1617441D01*
Y1619014D02*
Y1619690D01*
Y1624987D02*
Y1625264D01*
Y1626496D02*
Y1626830D01*
Y1627833D02*
Y1628131D01*
Y1633028D02*
Y1633264D01*
Y1633959D02*
Y1634258D01*
Y1635895D02*
Y1636127D01*
Y1641028D02*
Y1641091D01*
X1927900Y1577028D02*
Y1577481D01*
Y1585045D02*
Y1585934D01*
Y1593229D02*
Y1593649D01*
Y1595497D02*
Y1595916D01*
Y1601028D02*
Y1604119D01*
Y1609028D02*
Y1612119D01*
Y1617087D02*
Y1617400D01*
Y1618867D02*
Y1619790D01*
Y1624995D02*
Y1625267D01*
Y1626441D02*
Y1626786D01*
Y1627853D02*
Y1628140D01*
Y1633028D02*
Y1633264D01*
Y1634036D02*
Y1634333D01*
Y1635915D02*
Y1636144D01*
Y1641028D02*
Y1641237D01*
Y1644018D02*
Y1644119D01*
X1928000Y1577028D02*
Y1577390D01*
Y1585028D02*
Y1585648D01*
Y1593179D02*
Y1593534D01*
Y1595593D02*
Y1595959D01*
Y1601028D02*
Y1604119D01*
Y1609028D02*
Y1612119D01*
Y1617047D02*
Y1617360D01*
Y1618767D02*
Y1619890D01*
Y1625004D02*
Y1625281D01*
Y1626383D02*
Y1626741D01*
Y1627870D02*
Y1628149D01*
Y1633028D02*
Y1633264D01*
Y1634098D02*
Y1634413D01*
Y1635918D02*
Y1636160D01*
Y1641028D02*
Y1641384D01*
Y1643860D02*
Y1644119D01*
X1928100Y1577028D02*
Y1577613D01*
Y1585028D02*
Y1585353D01*
Y1593129D02*
Y1593437D01*
Y1595667D02*
Y1596002D01*
Y1601028D02*
Y1604119D01*
Y1609028D02*
Y1612119D01*
Y1617022D02*
Y1617325D01*
Y1618679D02*
Y1619138D01*
Y1619626D02*
Y1619964D01*
Y1625012D02*
Y1625296D01*
Y1626326D02*
Y1626697D01*
Y1627881D02*
Y1628158D01*
Y1633028D02*
Y1633264D01*
Y1634161D02*
Y1634499D01*
Y1635901D02*
Y1636149D01*
Y1641028D02*
Y1641530D01*
Y1643701D02*
Y1644119D01*
X1928200Y1577131D02*
Y1578012D01*
Y1585028D02*
Y1585579D01*
Y1593092D02*
Y1593387D01*
Y1595727D02*
Y1596042D01*
Y1603840D02*
Y1604119D01*
Y1611798D02*
Y1612119D01*
Y1617012D02*
Y1617291D01*
Y1618619D02*
Y1618981D01*
Y1619701D02*
Y1620026D01*
Y1625020D02*
Y1625316D01*
Y1626276D02*
Y1626630D01*
Y1627871D02*
Y1628153D01*
Y1633028D02*
Y1633264D01*
Y1634223D02*
Y1634585D01*
Y1635885D02*
Y1636138D01*
Y1641124D02*
Y1641676D01*
Y1643543D02*
Y1644119D01*
X1928300Y1577475D02*
Y1578369D01*
Y1585033D02*
Y1585920D01*
Y1593063D02*
Y1593340D01*
Y1595787D02*
Y1596071D01*
Y1603841D02*
Y1604119D01*
Y1611545D02*
Y1612119D01*
Y1617002D02*
Y1617264D01*
Y1618565D02*
Y1618921D01*
Y1619764D02*
Y1620089D01*
Y1625036D02*
Y1625356D01*
Y1626215D02*
Y1626563D01*
Y1627861D02*
Y1628143D01*
Y1633028D02*
Y1633264D01*
Y1634306D02*
Y1634679D01*
Y1635826D02*
Y1636127D01*
Y1641279D02*
Y1641822D01*
Y1643385D02*
Y1643981D01*
X1928400Y1577818D02*
Y1578725D01*
Y1585314D02*
Y1586201D01*
Y1593035D02*
Y1593300D01*
Y1595813D02*
Y1596100D01*
Y1603841D02*
Y1604119D01*
Y1611287D02*
Y1611982D01*
Y1616992D02*
Y1617264D01*
Y1618525D02*
Y1618862D01*
Y1619804D02*
Y1620124D01*
Y1625081D02*
Y1625396D01*
Y1626115D02*
Y1626497D01*
Y1627851D02*
Y1628133D01*
Y1633028D02*
Y1633264D01*
Y1634393D02*
Y1634779D01*
Y1635751D02*
Y1636094D01*
Y1641435D02*
Y1641968D01*
Y1643226D02*
Y1643808D01*
X1928500Y1578162D02*
Y1579081D01*
Y1585596D02*
Y1586482D01*
Y1593018D02*
Y1593264D01*
Y1595833D02*
Y1596123D01*
Y1603841D02*
Y1604119D01*
Y1611055D02*
Y1611746D01*
Y1616989D02*
Y1617264D01*
Y1618482D02*
Y1618818D01*
Y1619841D02*
Y1620134D01*
Y1625125D02*
Y1625493D01*
Y1626015D02*
Y1626425D01*
Y1627841D02*
Y1628123D01*
Y1633028D02*
Y1633264D01*
Y1634481D02*
Y1634939D01*
Y1635624D02*
Y1636032D01*
Y1641591D02*
Y1642114D01*
Y1643068D02*
Y1643634D01*
X1928600Y1578506D02*
Y1579437D01*
Y1585877D02*
Y1586763D01*
Y1593005D02*
Y1593264D01*
Y1595853D02*
Y1596136D01*
Y1603841D02*
Y1604119D01*
Y1610823D02*
Y1611509D01*
Y1616998D02*
Y1617271D01*
Y1618424D02*
Y1618773D01*
Y1619858D02*
Y1620143D01*
Y1625170D02*
Y1626342D01*
Y1627797D02*
Y1628079D01*
Y1633028D02*
Y1633264D01*
Y1634585D02*
Y1635969D01*
Y1641746D02*
Y1642261D01*
Y1642910D02*
Y1643461D01*
X1928700Y1578850D02*
Y1579794D01*
Y1586159D02*
Y1587044D01*
Y1592993D02*
Y1593264D01*
Y1595873D02*
Y1596148D01*
Y1603841D02*
Y1604119D01*
Y1610591D02*
Y1611273D01*
Y1617006D02*
Y1617285D01*
Y1618367D02*
Y1618729D01*
Y1619875D02*
Y1620152D01*
Y1625275D02*
Y1626259D01*
Y1627747D02*
Y1628022D01*
Y1633028D02*
Y1633264D01*
Y1634705D02*
Y1635885D01*
Y1641902D02*
Y1642407D01*
Y1642751D02*
Y1643288D01*
X1928800Y1579193D02*
Y1580119D01*
Y1586440D02*
Y1587325D01*
Y1592992D02*
Y1593264D01*
Y1595875D02*
Y1596159D01*
Y1603841D02*
Y1604119D01*
Y1610359D02*
Y1611037D01*
Y1617014D02*
Y1617300D01*
Y1618312D02*
Y1618678D01*
Y1619878D02*
Y1620160D01*
Y1625415D02*
Y1626141D01*
Y1633028D02*
Y1633264D01*
Y1634879D02*
Y1635735D01*
Y1642057D02*
Y1642555D01*
Y1642591D02*
Y1643114D01*
X1928900Y1579668D02*
Y1580119D01*
Y1586722D02*
Y1587606D01*
Y1593004D02*
Y1593264D01*
Y1595857D02*
Y1596145D01*
Y1603841D02*
Y1604119D01*
Y1610127D02*
Y1610800D01*
Y1617023D02*
Y1617327D01*
Y1618262D02*
Y1618611D01*
Y1619868D02*
Y1620150D01*
Y1625729D02*
Y1625864D01*
Y1633028D02*
Y1633264D01*
Y1635268D02*
Y1635418D01*
Y1642248D02*
Y1642924D01*
X1929000Y1579657D02*
Y1580119D01*
Y1587003D02*
Y1587887D01*
Y1593017D02*
Y1593264D01*
Y1595839D02*
Y1596131D01*
Y1603841D02*
Y1604119D01*
Y1609895D02*
Y1610564D01*
Y1617049D02*
Y1617367D01*
Y1618187D02*
Y1618545D01*
Y1619858D02*
Y1620140D01*
Y1642371D02*
Y1642775D01*
X1929100Y1579129D02*
Y1580119D01*
Y1587285D02*
Y1588119D01*
Y1593033D02*
Y1593298D01*
Y1595820D02*
Y1596113D01*
Y1609663D02*
Y1610328D01*
Y1617093D02*
Y1617422D01*
Y1618087D02*
Y1618478D01*
Y1619848D02*
Y1620130D01*
Y1642243D02*
Y1642903D01*
X1929200Y1578763D02*
Y1579865D01*
Y1587566D02*
Y1588119D01*
Y1593061D02*
Y1593338D01*
Y1595802D02*
Y1596085D01*
Y1609431D02*
Y1610091D01*
Y1617138D02*
Y1617522D01*
Y1617948D02*
Y1618402D01*
Y1619833D02*
Y1620120D01*
Y1642067D02*
Y1643091D01*
X1929300Y1578396D02*
Y1579478D01*
Y1587848D02*
Y1588119D01*
Y1593090D02*
Y1593399D01*
Y1595748D02*
Y1596056D01*
Y1609199D02*
Y1609849D01*
Y1617182D02*
Y1618318D01*
Y1619783D02*
Y1620063D01*
Y1641902D02*
Y1642417D01*
Y1642729D02*
Y1643244D01*
X1929400Y1578029D02*
Y1579092D01*
Y1593126D02*
Y1593474D01*
Y1595673D02*
Y1596020D01*
Y1603841D02*
Y1604119D01*
Y1609028D02*
Y1609564D01*
Y1617314D02*
Y1618231D01*
Y1619733D02*
Y1620005D01*
Y1641738D02*
Y1642265D01*
Y1642881D02*
Y1643397D01*
X1929500Y1577663D02*
Y1578705D01*
Y1593176D02*
Y1593549D01*
Y1595598D02*
Y1595970D01*
Y1603841D02*
Y1604119D01*
Y1609028D02*
Y1609570D01*
Y1617454D02*
Y1618106D01*
Y1641573D02*
Y1642113D01*
Y1643033D02*
Y1643550D01*
X1929600Y1577296D02*
Y1578318D01*
Y1593226D02*
Y1593635D01*
Y1595512D02*
Y1595920D01*
Y1603841D02*
Y1604119D01*
Y1609218D02*
Y1609848D01*
Y1641408D02*
Y1641961D01*
Y1643185D02*
Y1643703D01*
X1929700Y1577028D02*
Y1577932D01*
Y1593323D02*
Y1593815D01*
Y1595332D02*
Y1595823D01*
Y1603841D02*
Y1604119D01*
Y1609450D02*
Y1610104D01*
Y1625028D02*
Y1628119D01*
Y1633095D02*
Y1633362D01*
Y1641244D02*
Y1641809D01*
Y1643337D02*
Y1643856D01*
X1929800Y1577028D02*
Y1577418D01*
Y1586254D02*
Y1586776D01*
Y1593423D02*
Y1593995D01*
Y1595152D02*
Y1595723D01*
Y1603841D02*
Y1604119D01*
Y1609682D02*
Y1610330D01*
Y1625028D02*
Y1628119D01*
Y1633067D02*
Y1633324D01*
Y1634591D02*
Y1635479D01*
Y1641079D02*
Y1641657D01*
Y1643489D02*
Y1644009D01*
X1929900Y1577028D02*
Y1577391D01*
Y1585861D02*
Y1587205D01*
Y1593547D02*
Y1595623D01*
Y1603841D02*
Y1604119D01*
Y1609914D02*
Y1610556D01*
Y1625028D02*
Y1628119D01*
Y1633038D02*
Y1633287D01*
Y1634598D02*
Y1636119D01*
Y1641028D02*
Y1641505D01*
Y1643641D02*
Y1644119D01*
X1930000Y1577028D02*
Y1577809D01*
Y1585661D02*
Y1587438D01*
Y1593686D02*
Y1595523D01*
Y1603841D02*
Y1604119D01*
Y1610146D02*
Y1610782D01*
Y1619841D02*
Y1620119D01*
Y1626412D02*
Y1626693D01*
Y1627839D02*
Y1628119D01*
Y1633020D02*
Y1633260D01*
Y1634606D02*
Y1636119D01*
Y1641028D02*
Y1641353D01*
Y1643793D02*
Y1644119D01*
X1930100Y1577169D02*
Y1578195D01*
Y1585504D02*
Y1586460D01*
Y1586613D02*
Y1587574D01*
Y1593861D02*
Y1595306D01*
Y1603841D02*
Y1604119D01*
Y1610378D02*
Y1611008D01*
Y1619841D02*
Y1620119D01*
Y1626413D02*
Y1626691D01*
Y1627841D02*
Y1628119D01*
Y1633009D02*
Y1633247D01*
Y1634614D02*
Y1634859D01*
Y1635496D02*
Y1636119D01*
Y1641028D02*
Y1641201D01*
Y1643945D02*
Y1644119D01*
X1930200Y1577514D02*
Y1578582D01*
Y1585371D02*
Y1585971D01*
Y1587136D02*
Y1587694D01*
Y1594485D02*
Y1594730D01*
Y1603837D02*
Y1604119D01*
Y1610610D02*
Y1611234D01*
Y1619841D02*
Y1620119D01*
Y1626413D02*
Y1626691D01*
Y1627841D02*
Y1628119D01*
Y1632998D02*
Y1633235D01*
Y1634622D02*
Y1634859D01*
Y1635883D02*
Y1636119D01*
Y1641028D02*
Y1641049D01*
Y1644097D02*
Y1644119D01*
X1930300Y1577859D02*
Y1578969D01*
Y1585291D02*
Y1585821D01*
Y1587303D02*
Y1587783D01*
Y1601028D02*
Y1604119D01*
Y1610842D02*
Y1611460D01*
Y1619841D02*
Y1620119D01*
Y1626413D02*
Y1626691D01*
Y1627841D02*
Y1628119D01*
Y1632987D02*
Y1633222D01*
Y1634614D02*
Y1634859D01*
Y1635883D02*
Y1636119D01*
X1930400Y1578205D02*
Y1579355D01*
Y1585218D02*
Y1585671D01*
Y1587470D02*
Y1587866D01*
Y1601028D02*
Y1604119D01*
Y1611074D02*
Y1611686D01*
Y1619841D02*
Y1620119D01*
Y1626413D02*
Y1626691D01*
Y1627841D02*
Y1628119D01*
Y1633004D02*
Y1633234D01*
Y1634601D02*
Y1634856D01*
Y1635883D02*
Y1636119D01*
X1930500Y1578550D02*
Y1579742D01*
Y1585168D02*
Y1585568D01*
Y1587578D02*
Y1587933D01*
Y1601028D02*
Y1604119D01*
Y1611306D02*
Y1611912D01*
Y1619841D02*
Y1620119D01*
Y1626413D02*
Y1626691D01*
Y1627841D02*
Y1628119D01*
Y1633022D02*
Y1633249D01*
Y1634589D02*
Y1634836D01*
Y1635883D02*
Y1636119D01*
X1930600Y1578896D02*
Y1580119D01*
Y1585118D02*
Y1585493D01*
Y1587653D02*
Y1587976D01*
Y1603841D02*
Y1604119D01*
Y1611581D02*
Y1612119D01*
Y1619841D02*
Y1620119D01*
Y1626413D02*
Y1626691D01*
Y1627841D02*
Y1628119D01*
Y1633040D02*
Y1633263D01*
Y1634566D02*
Y1634816D01*
Y1635883D02*
Y1636119D01*
X1930700Y1579241D02*
Y1580119D01*
Y1585085D02*
Y1585418D01*
Y1587716D02*
Y1588019D01*
Y1603841D02*
Y1604119D01*
Y1611799D02*
Y1612119D01*
Y1619841D02*
Y1620119D01*
Y1626413D02*
Y1626691D01*
Y1627841D02*
Y1628119D01*
Y1633058D02*
Y1633315D01*
Y1634516D02*
Y1634796D01*
Y1635883D02*
Y1636119D01*
X1930800Y1579587D02*
Y1580119D01*
Y1585057D02*
Y1585348D01*
Y1587776D02*
Y1588054D01*
Y1593144D02*
Y1593458D01*
Y1595052D02*
Y1595618D01*
Y1603841D02*
Y1604119D01*
Y1609028D02*
Y1612119D01*
Y1619841D02*
Y1620119D01*
Y1626413D02*
Y1626691D01*
Y1627841D02*
Y1628119D01*
Y1633094D02*
Y1633375D01*
Y1634466D02*
Y1634774D01*
Y1635883D02*
Y1636119D01*
X1930900Y1579932D02*
Y1580119D01*
Y1585028D02*
Y1585308D01*
Y1587807D02*
Y1588082D01*
Y1593097D02*
Y1593409D01*
Y1594890D02*
Y1595767D01*
Y1603841D02*
Y1604119D01*
Y1609028D02*
Y1612119D01*
Y1619806D02*
Y1620119D01*
Y1626413D02*
Y1626691D01*
Y1627841D02*
Y1628119D01*
Y1633150D02*
Y1633471D01*
Y1634373D02*
Y1634724D01*
Y1635883D02*
Y1636119D01*
Y1641028D02*
Y1644119D01*
X1931000Y1585015D02*
Y1585268D01*
Y1587824D02*
Y1588111D01*
Y1593057D02*
Y1593369D01*
Y1594790D02*
Y1595867D01*
Y1603841D02*
Y1604119D01*
Y1609028D02*
Y1612119D01*
Y1617028D02*
Y1620119D01*
Y1626413D02*
Y1626691D01*
Y1627841D02*
Y1628119D01*
Y1633206D02*
Y1633596D01*
Y1634248D02*
Y1634674D01*
Y1635883D02*
Y1636119D01*
Y1641028D02*
Y1644119D01*
X1931100Y1585002D02*
Y1585264D01*
Y1587841D02*
Y1588128D01*
Y1593024D02*
Y1593332D01*
Y1594693D02*
Y1595184D01*
Y1595599D02*
Y1595949D01*
Y1603841D02*
Y1604119D01*
Y1617028D02*
Y1620119D01*
Y1627841D02*
Y1628119D01*
Y1633261D02*
Y1634624D01*
Y1635883D02*
Y1636119D01*
Y1641028D02*
Y1644119D01*
X1931200Y1584990D02*
Y1585264D01*
Y1587857D02*
Y1588141D01*
Y1593014D02*
Y1593299D01*
Y1594633D02*
Y1594995D01*
Y1595683D02*
Y1596012D01*
Y1603841D02*
Y1604119D01*
Y1617028D02*
Y1620119D01*
Y1633391D02*
Y1634496D01*
Y1635883D02*
Y1636119D01*
Y1641028D02*
Y1641306D01*
Y1643841D02*
Y1644119D01*
X1931300Y1584992D02*
Y1585266D01*
Y1587874D02*
Y1588153D01*
Y1593004D02*
Y1593266D01*
Y1594574D02*
Y1594935D01*
Y1595755D02*
Y1596074D01*
Y1603841D02*
Y1604119D01*
Y1619841D02*
Y1620119D01*
Y1633531D02*
Y1634356D01*
Y1641028D02*
Y1641306D01*
Y1643841D02*
Y1644119D01*
X1931400Y1585000D02*
Y1585275D01*
Y1587878D02*
Y1588156D01*
Y1592994D02*
Y1593264D01*
Y1594534D02*
Y1594875D01*
Y1595795D02*
Y1596122D01*
Y1603841D02*
Y1604119D01*
Y1619841D02*
Y1620119D01*
Y1641028D02*
Y1641306D01*
Y1643841D02*
Y1644119D01*
X1931500Y1585008D02*
Y1585284D01*
Y1587867D02*
Y1588146D01*
Y1592987D02*
Y1593264D01*
Y1594494D02*
Y1594828D01*
Y1595835D02*
Y1596131D01*
Y1619841D02*
Y1620119D01*
Y1641028D02*
Y1641306D01*
Y1643841D02*
Y1644119D01*
X1931600Y1577028D02*
Y1580119D01*
Y1585017D02*
Y1585293D01*
Y1587856D02*
Y1588136D01*
Y1592996D02*
Y1593268D01*
Y1594438D02*
Y1594783D01*
Y1595854D02*
Y1596141D01*
Y1619841D02*
Y1620119D01*
Y1641028D02*
Y1641306D01*
Y1643841D02*
Y1644119D01*
X1931700Y1577028D02*
Y1580119D01*
Y1585025D02*
Y1585302D01*
Y1587845D02*
Y1588126D01*
Y1593004D02*
Y1593282D01*
Y1594380D02*
Y1594739D01*
Y1595871D02*
Y1596150D01*
Y1619841D02*
Y1620119D01*
Y1641034D02*
Y1641313D01*
Y1643833D02*
Y1644113D01*
X1931800Y1577028D02*
Y1580119D01*
Y1585062D02*
Y1585330D01*
Y1587822D02*
Y1588106D01*
Y1593012D02*
Y1593297D01*
Y1594323D02*
Y1594693D01*
Y1595881D02*
Y1596159D01*
Y1619841D02*
Y1620119D01*
Y1641047D02*
Y1641328D01*
Y1643816D02*
Y1644102D01*
X1931900Y1578371D02*
Y1578649D01*
Y1579841D02*
Y1580119D01*
Y1585106D02*
Y1585375D01*
Y1587788D02*
Y1588069D01*
Y1593021D02*
Y1593318D01*
Y1594273D02*
Y1594626D01*
Y1595871D02*
Y1596152D01*
Y1619841D02*
Y1620119D01*
Y1641059D02*
Y1641343D01*
Y1643800D02*
Y1644091D01*
X1932000Y1578371D02*
Y1578649D01*
Y1579841D02*
Y1580119D01*
Y1585151D02*
Y1585419D01*
Y1587755D02*
Y1588031D01*
Y1593039D02*
Y1593358D01*
Y1594210D02*
Y1594560D01*
Y1595861D02*
Y1596142D01*
Y1609028D02*
Y1612119D01*
Y1619841D02*
Y1620119D01*
Y1641075D02*
Y1641359D01*
Y1643783D02*
Y1644079D01*
X1932100Y1578371D02*
Y1578649D01*
Y1579841D02*
Y1580119D01*
Y1593083D02*
Y1593400D01*
Y1594110D02*
Y1594493D01*
Y1595851D02*
Y1596132D01*
Y1609028D02*
Y1612119D01*
Y1619841D02*
Y1620119D01*
Y1641100D02*
Y1641374D01*
Y1643766D02*
Y1644054D01*
X1932200Y1578371D02*
Y1578649D01*
Y1579841D02*
Y1580119D01*
Y1593128D02*
Y1593499D01*
Y1594005D02*
Y1594421D01*
Y1595841D02*
Y1596122D01*
Y1609028D02*
Y1612119D01*
Y1641125D02*
Y1641390D01*
Y1643740D02*
Y1644025D01*
X1932300Y1578347D02*
Y1578649D01*
Y1579841D02*
Y1580119D01*
Y1593172D02*
Y1594337D01*
Y1595795D02*
Y1596076D01*
Y1609028D02*
Y1612119D01*
Y1641150D02*
Y1641427D01*
Y1643690D02*
Y1643997D01*
X1932400Y1578320D02*
Y1578654D01*
Y1579836D02*
Y1580119D01*
Y1593282D02*
Y1594254D01*
Y1595745D02*
Y1596018D01*
Y1610371D02*
Y1610649D01*
Y1611841D02*
Y1612119D01*
Y1617028D02*
Y1617152D01*
Y1641192D02*
Y1641467D01*
Y1643640D02*
Y1643955D01*
X1932500Y1578287D02*
Y1578671D01*
Y1579822D02*
Y1580112D01*
Y1593422D02*
Y1594134D01*
Y1610371D02*
Y1610649D01*
Y1611841D02*
Y1612119D01*
Y1617028D02*
Y1617414D01*
Y1641234D02*
Y1641547D01*
Y1643590D02*
Y1643912D01*
X1932600Y1578174D02*
Y1578688D01*
Y1579808D02*
Y1580101D01*
Y1593750D02*
Y1593827D01*
Y1610371D02*
Y1610649D01*
Y1611841D02*
Y1612119D01*
Y1617028D02*
Y1617676D01*
Y1641281D02*
Y1641647D01*
Y1643539D02*
Y1643867D01*
X1932700Y1578044D02*
Y1578387D01*
Y1578501D02*
Y1578733D01*
Y1579784D02*
Y1580090D01*
Y1610362D02*
Y1610649D01*
Y1611841D02*
Y1612119D01*
Y1617028D02*
Y1617938D01*
Y1641365D02*
Y1641747D01*
Y1643412D02*
Y1643801D01*
X1932800Y1577919D02*
Y1578320D01*
Y1578538D02*
Y1578793D01*
Y1579734D02*
Y1580079D01*
Y1610337D02*
Y1610649D01*
Y1611841D02*
Y1612119D01*
Y1617295D02*
Y1618200D01*
Y1641448D02*
Y1641870D01*
Y1643259D02*
Y1643734D01*
X1932900Y1577757D02*
Y1578254D01*
Y1578576D02*
Y1578883D01*
Y1579649D02*
Y1580034D01*
Y1610307D02*
Y1610661D01*
Y1611831D02*
Y1612119D01*
Y1617581D02*
Y1618462D01*
Y1641542D02*
Y1642134D01*
Y1643055D02*
Y1643632D01*
X1933000Y1577582D02*
Y1578118D01*
Y1578613D02*
Y1579022D01*
Y1579510D02*
Y1579984D01*
Y1610256D02*
Y1610677D01*
Y1611816D02*
Y1612108D01*
Y1617852D02*
Y1618724D01*
Y1641642D02*
Y1643512D01*
X1933100Y1577407D02*
Y1577993D01*
Y1578708D02*
Y1579934D01*
Y1610123D02*
Y1610696D01*
Y1611802D02*
Y1612097D01*
Y1617867D02*
Y1618986D01*
Y1641828D02*
Y1643340D01*
X1933200Y1577232D02*
Y1577853D01*
Y1578808D02*
Y1579791D01*
Y1609997D02*
Y1610362D01*
Y1610515D02*
Y1610756D01*
Y1611764D02*
Y1612086D01*
Y1617867D02*
Y1618145D01*
Y1618461D02*
Y1619248D01*
Y1642113D02*
Y1643076D01*
X1933300Y1577057D02*
Y1577689D01*
Y1578971D02*
Y1579577D01*
Y1609865D02*
Y1610295D01*
Y1610552D02*
Y1610816D01*
Y1611714D02*
Y1612065D01*
Y1617867D02*
Y1618145D01*
Y1618751D02*
Y1619511D01*
X1933400Y1577028D02*
Y1577525D01*
Y1609690D02*
Y1610210D01*
Y1610590D02*
Y1610934D01*
Y1611598D02*
Y1612015D01*
Y1617867D02*
Y1618145D01*
Y1619042D02*
Y1619773D01*
X1933500Y1577028D02*
Y1577360D01*
Y1609515D02*
Y1610070D01*
Y1610646D02*
Y1611249D01*
Y1611320D02*
Y1611965D01*
Y1617867D02*
Y1618145D01*
Y1619333D02*
Y1620035D01*
X1933600Y1577028D02*
Y1577196D01*
Y1609340D02*
Y1609945D01*
Y1610746D02*
Y1611899D01*
Y1617867D02*
Y1618145D01*
Y1619615D02*
Y1620119D01*
X1933700Y1577028D02*
Y1577032D01*
Y1609165D02*
Y1609791D01*
Y1610868D02*
Y1611724D01*
Y1617867D02*
Y1618145D01*
Y1619798D02*
Y1620119D01*
X1933800Y1609028D02*
Y1609626D01*
Y1611128D02*
Y1611424D01*
Y1617867D02*
Y1618145D01*
Y1619547D02*
Y1620119D01*
X1933900Y1609028D02*
Y1609462D01*
Y1617867D02*
Y1618145D01*
Y1619280D02*
Y1620074D01*
X1934000Y1609028D02*
Y1609298D01*
Y1617867D02*
Y1618145D01*
Y1619013D02*
Y1619812D01*
X1934100Y1609028D02*
Y1609133D01*
Y1617867D02*
Y1618145D01*
Y1618747D02*
Y1619550D01*
Y1641028D02*
Y1644119D01*
X1934200Y1617867D02*
Y1618145D01*
Y1618480D02*
Y1619288D01*
Y1641028D02*
Y1644119D01*
X1934300Y1617867D02*
Y1618177D01*
Y1618213D02*
Y1619026D01*
Y1641028D02*
Y1644119D01*
X1934400Y1617795D02*
Y1618764D01*
Y1643710D02*
Y1644119D01*
X1934500Y1617545D02*
Y1618502D01*
Y1643561D02*
Y1644082D01*
X1934600Y1617295D02*
Y1618240D01*
Y1643398D02*
Y1643921D01*
X1934700Y1617045D02*
Y1617977D01*
Y1643238D02*
Y1643760D01*
X1934800Y1617028D02*
Y1617715D01*
Y1643079D02*
Y1643599D01*
X1934900Y1617028D02*
Y1617453D01*
Y1642919D02*
Y1643438D01*
X1935000Y1617028D02*
Y1617191D01*
Y1642760D02*
Y1643277D01*
X1935100Y1642601D02*
Y1643116D01*
X1935200Y1642441D02*
Y1642954D01*
X1935300Y1642282D02*
Y1642793D01*
X1935400Y1642122D02*
Y1642632D01*
X1935500Y1641963D02*
Y1642471D01*
X1935600Y1641803D02*
Y1642310D01*
X1935700Y1617028D02*
Y1620119D01*
Y1641644D02*
Y1642149D01*
X1935800Y1617028D02*
Y1620119D01*
Y1641484D02*
Y1641988D01*
X1935900Y1617028D02*
Y1620119D01*
Y1641325D02*
Y1641827D01*
X1936000Y1618368D02*
Y1618652D01*
Y1619838D02*
Y1620119D01*
Y1641165D02*
Y1641668D01*
X1936100Y1618371D02*
Y1618649D01*
Y1619841D02*
Y1620119D01*
Y1641028D02*
Y1641497D01*
X1936200Y1618371D02*
Y1618649D01*
Y1619841D02*
Y1620119D01*
Y1641028D02*
Y1641476D01*
Y1641668D02*
Y1644119D01*
X1936300Y1618371D02*
Y1618649D01*
Y1619841D02*
Y1620119D01*
Y1641028D02*
Y1644119D01*
X1936400Y1618350D02*
Y1618649D01*
Y1619841D02*
Y1620119D01*
Y1641028D02*
Y1644119D01*
X1936500Y1618325D02*
Y1618652D01*
Y1619838D02*
Y1620119D01*
Y1641028D02*
Y1644119D01*
X1936600Y1618291D02*
Y1618669D01*
Y1619824D02*
Y1620114D01*
X1936700Y1618193D02*
Y1618685D01*
Y1619810D02*
Y1620103D01*
X1936800Y1618062D02*
Y1618397D01*
Y1618495D02*
Y1618725D01*
Y1619791D02*
Y1620092D01*
X1936900Y1617937D02*
Y1618330D01*
Y1618533D02*
Y1618785D01*
Y1619741D02*
Y1620081D01*
X1937000Y1617782D02*
Y1618263D01*
Y1618570D02*
Y1618863D01*
Y1619669D02*
Y1620041D01*
X1937100Y1617607D02*
Y1618139D01*
Y1618608D02*
Y1618997D01*
Y1619535D02*
Y1619991D01*
X1937200Y1617432D02*
Y1618011D01*
Y1618694D02*
Y1619941D01*
X1937300Y1617257D02*
Y1617877D01*
Y1618794D02*
Y1619816D01*
X1937400Y1617082D02*
Y1617713D01*
Y1618947D02*
Y1619635D01*
X1937500Y1617028D02*
Y1617549D01*
X1937600Y1617028D02*
Y1617384D01*
X1937700Y1617028D02*
Y1617220D01*
X1937800Y1617028D02*
Y1617056D01*
X1944300Y1549214D02*
Y1549873D01*
X1944400Y1545453D02*
Y1545773D01*
Y1547426D02*
Y1547746D01*
Y1548968D02*
Y1550123D01*
Y1551079D02*
Y1552400D01*
X1944500Y1545453D02*
Y1545773D01*
Y1547426D02*
Y1547746D01*
Y1548808D02*
Y1550223D01*
Y1551079D02*
Y1552575D01*
X1944600Y1545453D02*
Y1545773D01*
Y1547426D02*
Y1547746D01*
Y1548703D02*
Y1549226D01*
Y1549972D02*
Y1550223D01*
Y1551079D02*
Y1551416D01*
Y1551943D02*
Y1552683D01*
X1944700Y1545453D02*
Y1545773D01*
Y1547426D02*
Y1547746D01*
Y1548603D02*
Y1549002D01*
Y1550172D02*
Y1550223D01*
Y1551079D02*
Y1551399D01*
Y1552272D02*
Y1552783D01*
X1944800Y1545453D02*
Y1545773D01*
Y1547426D02*
Y1547746D01*
Y1548544D02*
Y1548868D01*
Y1551079D02*
Y1551399D01*
Y1552395D02*
Y1552801D01*
X1944900Y1545453D02*
Y1545773D01*
Y1547426D02*
Y1547746D01*
Y1548521D02*
Y1548826D01*
Y1551079D02*
Y1551399D01*
Y1552468D02*
Y1552815D01*
X1945000Y1545453D02*
Y1545773D01*
Y1547426D02*
Y1547746D01*
Y1548499D02*
Y1548806D01*
Y1551079D02*
Y1551399D01*
Y1552493D02*
Y1552821D01*
X1945100Y1545453D02*
Y1545773D01*
Y1547426D02*
Y1547746D01*
Y1548477D02*
Y1548804D01*
Y1551079D02*
Y1551399D01*
Y1552500D02*
Y1552804D01*
X1945200Y1545453D02*
Y1545773D01*
Y1547426D02*
Y1547746D01*
Y1548493D02*
Y1548829D01*
Y1551079D02*
Y1551399D01*
Y1552483D02*
Y1552788D01*
X1945300Y1545453D02*
Y1545773D01*
Y1547426D02*
Y1547746D01*
Y1548510D02*
Y1548869D01*
Y1551079D02*
Y1551399D01*
Y1552467D02*
Y1552751D01*
X1945400Y1545453D02*
Y1545773D01*
Y1547426D02*
Y1547746D01*
Y1548555D02*
Y1548919D01*
Y1551079D02*
Y1551399D01*
Y1552409D02*
Y1552711D01*
X1945500Y1545453D02*
Y1545773D01*
Y1547426D02*
Y1547746D01*
Y1548615D02*
Y1549051D01*
Y1551079D02*
Y1551399D01*
Y1552334D02*
Y1552615D01*
X1945600Y1545453D02*
Y1545773D01*
Y1547426D02*
Y1547746D01*
Y1548702D02*
Y1549238D01*
Y1551079D02*
Y1551399D01*
Y1552118D02*
Y1552515D01*
X1945700Y1545453D02*
Y1545773D01*
Y1547426D02*
Y1547746D01*
Y1548802D02*
Y1549463D01*
Y1551079D02*
Y1552290D01*
X1945800Y1545453D02*
Y1545773D01*
Y1547426D02*
Y1547746D01*
Y1548948D02*
Y1549637D01*
Y1551079D02*
Y1552394D01*
X1945900Y1545453D02*
Y1545773D01*
Y1547426D02*
Y1547746D01*
Y1549154D02*
Y1549787D01*
Y1551079D02*
Y1552652D01*
X1946000Y1545453D02*
Y1545773D01*
Y1547426D02*
Y1547746D01*
Y1549356D02*
Y1549931D01*
Y1551079D02*
Y1551399D01*
Y1552291D02*
Y1552777D01*
X1946100Y1545453D02*
Y1545773D01*
Y1547426D02*
Y1547746D01*
Y1549531D02*
Y1550051D01*
Y1551079D02*
Y1551399D01*
Y1552513D02*
Y1552853D01*
X1946200Y1545455D02*
Y1545777D01*
Y1547426D02*
Y1547746D01*
Y1549722D02*
Y1550165D01*
Y1551079D02*
Y1551399D01*
Y1552588D02*
Y1552919D01*
X1946300Y1545469D02*
Y1545787D01*
Y1547416D02*
Y1547746D01*
Y1549822D02*
Y1550245D01*
Y1551079D02*
Y1551399D01*
Y1552637D02*
Y1552961D01*
X1946400Y1545483D02*
Y1545797D01*
Y1547406D02*
Y1547746D01*
Y1549922D02*
Y1550312D01*
Y1551079D02*
Y1551399D01*
Y1552654D02*
Y1552975D01*
X1946500Y1545497D02*
Y1545807D01*
Y1547396D02*
Y1547728D01*
Y1549972D02*
Y1550327D01*
Y1551079D02*
Y1551399D01*
Y1552670D02*
Y1552990D01*
X1946600Y1545512D02*
Y1545824D01*
Y1547386D02*
Y1547699D01*
Y1550012D02*
Y1550341D01*
Y1551079D02*
Y1551399D01*
Y1552661D02*
Y1552977D01*
X1946700Y1545526D02*
Y1545882D01*
Y1547341D02*
Y1547671D01*
Y1550021D02*
Y1550336D01*
Y1551079D02*
Y1551399D01*
Y1552641D02*
Y1552954D01*
X1946800Y1545555D02*
Y1545939D01*
Y1547284D02*
Y1547638D01*
Y1550001D02*
Y1550311D01*
Y1551079D02*
Y1551399D01*
Y1552603D02*
Y1552932D01*
X1946900Y1545611D02*
Y1545998D01*
Y1547227D02*
Y1547605D01*
Y1549971D02*
Y1550286D01*
Y1551079D02*
Y1551399D01*
Y1552543D02*
Y1552903D01*
X1947000Y1545666D02*
Y1546118D01*
Y1547128D02*
Y1547558D01*
Y1548476D02*
Y1548590D01*
Y1549871D02*
Y1550246D01*
Y1551079D02*
Y1551399D01*
Y1552459D02*
Y1552831D01*
X1947100Y1545722D02*
Y1546238D01*
Y1547003D02*
Y1547483D01*
Y1548476D02*
Y1548851D01*
Y1549669D02*
Y1550175D01*
Y1551079D02*
Y1551406D01*
Y1552120D02*
Y1552760D01*
X1947200Y1545851D02*
Y1547389D01*
Y1548476D02*
Y1550103D01*
Y1551079D02*
Y1552655D01*
X1947300Y1546001D02*
Y1547263D01*
Y1548571D02*
Y1549944D01*
Y1551079D02*
Y1552495D01*
X1947400Y1546323D02*
Y1546994D01*
Y1548810D02*
Y1549719D01*
Y1551079D02*
Y1552004D01*
X1952700Y1654528D02*
Y1657329D01*
X1952800Y1654528D02*
Y1657329D01*
X1952900Y1654528D02*
Y1657329D01*
X1953000Y1655596D02*
Y1655840D01*
Y1657085D02*
Y1657329D01*
X1953100Y1655596D02*
Y1655840D01*
Y1657085D02*
Y1657329D01*
X1953200Y1655596D02*
Y1655840D01*
Y1657085D02*
Y1657329D01*
X1953300Y1655596D02*
Y1655840D01*
Y1657085D02*
Y1657329D01*
X1953400Y1655600D02*
Y1655849D01*
Y1657080D02*
Y1657328D01*
X1953500Y1655610D02*
Y1655861D01*
Y1657066D02*
Y1657310D01*
X1953600Y1655620D02*
Y1655874D01*
Y1657052D02*
Y1657292D01*
X1953700Y1655630D02*
Y1655911D01*
Y1657018D02*
Y1657274D01*
X1953800Y1655672D02*
Y1655971D01*
Y1656968D02*
Y1657255D01*
X1953900Y1655728D02*
Y1656060D01*
Y1656913D02*
Y1657207D01*
X1954000Y1655783D02*
Y1656185D01*
Y1656779D02*
Y1657157D01*
X1954100Y1655857D02*
Y1657102D01*
X1954200Y1655958D02*
Y1656962D01*
X1954300Y1656283D02*
Y1656718D01*
X1954900Y1657205D02*
Y1657323D01*
X1955000Y1654528D02*
Y1656489D01*
Y1657113D02*
Y1657415D01*
X1955100Y1654528D02*
Y1656489D01*
Y1657119D02*
Y1657409D01*
X1955200Y1657231D02*
Y1657297D01*
X1956000Y1655558D02*
Y1655725D01*
X1956100Y1655558D02*
Y1655725D01*
X1956200Y1655558D02*
Y1655725D01*
X1956300Y1655558D02*
Y1655725D01*
X1956400Y1655558D02*
Y1655725D01*
X1956500Y1655558D02*
Y1655725D01*
X1956600Y1655558D02*
Y1655725D01*
X1956700Y1655558D02*
Y1655725D01*
X1956800Y1655558D02*
Y1655725D01*
X1956900Y1655558D02*
Y1655725D01*
X1957700Y1654567D02*
Y1654793D01*
Y1655948D02*
Y1656530D01*
X1957800Y1654538D02*
Y1654755D01*
Y1655955D02*
Y1657329D01*
X1957900Y1654520D02*
Y1654729D01*
Y1655963D02*
Y1657329D01*
X1958000Y1654509D02*
Y1654716D01*
Y1655971D02*
Y1656183D01*
Y1656980D02*
Y1657329D01*
X1958100Y1654498D02*
Y1654704D01*
Y1655978D02*
Y1656183D01*
Y1657123D02*
Y1657329D01*
X1958200Y1654495D02*
Y1654698D01*
Y1655966D02*
Y1656183D01*
Y1657123D02*
Y1657329D01*
X1958300Y1654513D02*
Y1654713D01*
Y1655953D02*
Y1656172D01*
Y1657123D02*
Y1657329D01*
X1958400Y1654532D02*
Y1654727D01*
Y1655941D02*
Y1656152D01*
Y1657123D02*
Y1657329D01*
X1958500Y1654550D02*
Y1654761D01*
Y1655897D02*
Y1656132D01*
Y1657123D02*
Y1657329D01*
X1958600Y1654577D02*
Y1654821D01*
Y1655847D02*
Y1656112D01*
Y1657123D02*
Y1657329D01*
X1958700Y1654633D02*
Y1654904D01*
Y1655769D02*
Y1656067D01*
Y1657123D02*
Y1657329D01*
X1958800Y1654688D02*
Y1655029D01*
Y1655644D02*
Y1656017D01*
Y1657123D02*
Y1657329D01*
X1958900Y1654744D02*
Y1655967D01*
Y1657123D02*
Y1657329D01*
X1959000Y1654882D02*
Y1655830D01*
Y1657123D02*
Y1657329D01*
X1959100Y1655092D02*
Y1655619D01*
X1959600Y1657276D02*
Y1657329D01*
X1959700Y1657005D02*
Y1657329D01*
X1959800Y1656733D02*
Y1657329D01*
X1959900Y1656462D02*
Y1657311D01*
X1960000Y1656191D02*
Y1657030D01*
X1960100Y1655919D02*
Y1656749D01*
X1960200Y1655648D02*
Y1656468D01*
X1960300Y1655376D02*
Y1656187D01*
X1960400Y1655105D02*
Y1655906D01*
X1960500Y1654833D02*
Y1655625D01*
X1960600Y1654562D02*
Y1655344D01*
X1960700Y1654528D02*
Y1655051D01*
X1960800Y1654528D02*
Y1654810D01*
X1960900Y1654528D02*
Y1655132D01*
X1961000Y1654634D02*
Y1655413D01*
X1961100Y1654915D02*
Y1655694D01*
X1961200Y1655197D02*
Y1655975D01*
X1961300Y1655478D02*
Y1656256D01*
X1961400Y1655760D02*
Y1656537D01*
X1961500Y1656041D02*
Y1656818D01*
X1961600Y1656323D02*
Y1657099D01*
X1961700Y1656604D02*
Y1657329D01*
X1961800Y1656886D02*
Y1657329D01*
X1961900Y1657167D02*
Y1657329D01*
X1994600Y1649671D02*
Y1650092D01*
X1994700Y1649180D02*
Y1650528D01*
X1994800Y1649005D02*
Y1650761D01*
X1994900Y1648850D02*
Y1649875D01*
Y1649946D02*
Y1650929D01*
X1995000Y1648713D02*
Y1649352D01*
Y1650469D02*
Y1651071D01*
X1995100Y1648633D02*
Y1649152D01*
Y1650669D02*
Y1651171D01*
X1995200Y1648558D02*
Y1648955D01*
Y1650866D02*
Y1651261D01*
X1995300Y1648508D02*
Y1648855D01*
Y1650943D02*
Y1651304D01*
X1995400Y1648458D02*
Y1648766D01*
Y1651014D02*
Y1651347D01*
X1995500Y1648424D02*
Y1648716D01*
Y1651074D02*
Y1651385D01*
X1995600Y1648396D02*
Y1648671D01*
Y1651133D02*
Y1651413D01*
X1995700Y1648367D02*
Y1648631D01*
Y1651154D02*
Y1651442D01*
X1995800Y1648353D02*
Y1648601D01*
Y1651174D02*
Y1651463D01*
X1995900Y1648340D02*
Y1648601D01*
Y1651194D02*
Y1651475D01*
X1996000Y1648328D02*
Y1648601D01*
Y1651214D02*
Y1651488D01*
X1996100Y1648331D02*
Y1648601D01*
Y1651209D02*
Y1651494D01*
X1996200Y1648344D02*
Y1648601D01*
Y1651191D02*
Y1651480D01*
X1996300Y1648356D02*
Y1648602D01*
Y1651173D02*
Y1651466D01*
X1996400Y1648375D02*
Y1648642D01*
Y1651155D02*
Y1651446D01*
X1996500Y1648403D02*
Y1648682D01*
Y1651136D02*
Y1651417D01*
X1996600Y1648432D02*
Y1648749D01*
Y1651072D02*
Y1651389D01*
X1996700Y1648472D02*
Y1648824D01*
Y1650997D02*
Y1651349D01*
X1996800Y1648522D02*
Y1648899D01*
Y1650922D02*
Y1651299D01*
X1996900Y1648578D02*
Y1649002D01*
Y1650818D02*
Y1651243D01*
X1997000Y1648678D02*
Y1649182D01*
Y1650638D02*
Y1651143D01*
X1997100Y1648780D02*
Y1649400D01*
Y1650421D02*
Y1651043D01*
X1997200Y1648905D02*
Y1650943D01*
X1997300Y1649053D02*
Y1650837D01*
X1997400Y1649228D02*
Y1650604D01*
X1998200Y1648365D02*
Y1651456D01*
X1998300Y1648365D02*
Y1651456D01*
X1998400Y1648365D02*
Y1651456D01*
X1998500Y1648365D02*
Y1651456D01*
X1998600Y1648365D02*
Y1648643D01*
X1998700Y1648365D02*
Y1648643D01*
X1998800Y1648365D02*
Y1648643D01*
X1998900Y1648365D02*
Y1648643D01*
X1999000Y1648365D02*
Y1648643D01*
X1999100Y1648365D02*
Y1648643D01*
X1999200Y1648365D02*
Y1648643D01*
X1999300Y1648365D02*
Y1648643D01*
X1999400Y1648365D02*
Y1648643D01*
X1999500Y1648365D02*
Y1648643D01*
X1999600Y1648365D02*
Y1648643D01*
X1999700Y1648365D02*
Y1648643D01*
X2000400Y1648365D02*
Y1651456D01*
X2000500Y1648365D02*
Y1651456D01*
X2000600Y1648365D02*
Y1651456D01*
X2000700Y1648365D02*
Y1648643D01*
Y1649792D02*
Y1650070D01*
Y1651178D02*
Y1651456D01*
X2000800Y1648365D02*
Y1648643D01*
Y1649792D02*
Y1650070D01*
Y1651178D02*
Y1651456D01*
X2000900Y1648365D02*
Y1648643D01*
Y1649792D02*
Y1650070D01*
Y1651178D02*
Y1651456D01*
X2001000Y1648365D02*
Y1648643D01*
Y1649792D02*
Y1650070D01*
Y1651178D02*
Y1651456D01*
X2001100Y1648365D02*
Y1648643D01*
Y1649792D02*
Y1650070D01*
Y1651178D02*
Y1651456D01*
X2001200Y1648365D02*
Y1648643D01*
Y1649792D02*
Y1650070D01*
Y1651178D02*
Y1651456D01*
X2001300Y1648365D02*
Y1648643D01*
Y1649792D02*
Y1650070D01*
Y1651178D02*
Y1651456D01*
X2001400Y1648365D02*
Y1648643D01*
Y1649792D02*
Y1650070D01*
Y1651178D02*
Y1651456D01*
X2001500Y1648365D02*
Y1648643D01*
Y1649792D02*
Y1650070D01*
Y1651178D02*
Y1651456D01*
X2001600Y1648365D02*
Y1648643D01*
Y1649792D02*
Y1650070D01*
Y1651178D02*
Y1651456D01*
X2001700Y1648365D02*
Y1648643D01*
Y1649792D02*
Y1650070D01*
Y1651178D02*
Y1651456D01*
X2001800Y1648365D02*
Y1648643D01*
Y1651178D02*
Y1651456D01*
X2001900Y1648365D02*
Y1648643D01*
X2002700Y1648365D02*
Y1651456D01*
X2002800Y1648365D02*
Y1651456D01*
X2002900Y1648365D02*
Y1651456D01*
X2003000Y1648365D02*
Y1648643D01*
Y1651178D02*
Y1651456D01*
X2003100Y1648365D02*
Y1648643D01*
Y1651178D02*
Y1651456D01*
X2003200Y1648365D02*
Y1648643D01*
Y1651178D02*
Y1651456D01*
X2003300Y1648365D02*
Y1648643D01*
Y1651178D02*
Y1651456D01*
X2003400Y1648365D02*
Y1648643D01*
Y1651178D02*
Y1651456D01*
X2003500Y1648369D02*
Y1648647D01*
Y1651173D02*
Y1651452D01*
X2003600Y1648382D02*
Y1648663D01*
Y1651157D02*
Y1651441D01*
X2003700Y1648394D02*
Y1648678D01*
Y1651140D02*
Y1651430D01*
X2003800Y1648408D02*
Y1648693D01*
Y1651123D02*
Y1651419D01*
X2003900Y1648433D02*
Y1648709D01*
Y1651107D02*
Y1651396D01*
X2004000Y1648458D02*
Y1648724D01*
Y1651086D02*
Y1651368D01*
X2004100Y1648483D02*
Y1648758D01*
Y1651036D02*
Y1651339D01*
X2004200Y1648521D02*
Y1648798D01*
Y1650986D02*
Y1651299D01*
X2004300Y1648564D02*
Y1648867D01*
Y1650936D02*
Y1651257D01*
X2004400Y1648607D02*
Y1648967D01*
Y1650886D02*
Y1651214D01*
X2004500Y1648688D02*
Y1649067D01*
Y1650772D02*
Y1651149D01*
X2004600Y1648771D02*
Y1649168D01*
Y1650625D02*
Y1651083D01*
X2004700Y1648862D02*
Y1649419D01*
Y1650444D02*
Y1650990D01*
X2004800Y1648962D02*
Y1650870D01*
X2004900Y1649125D02*
Y1650712D01*
X2005000Y1649389D02*
Y1650474D01*
X2024100Y1601875D02*
Y1604676D01*
X2024200Y1601875D02*
Y1604676D01*
X2024300Y1601875D02*
Y1604676D01*
X2024400Y1601875D02*
Y1602121D01*
Y1603209D02*
Y1603457D01*
Y1604430D02*
Y1604676D01*
X2024500Y1601875D02*
Y1602118D01*
Y1603211D02*
Y1603454D01*
Y1604432D02*
Y1604676D01*
X2024600Y1601875D02*
Y1602118D01*
Y1603211D02*
Y1603454D01*
Y1604432D02*
Y1604676D01*
X2024700Y1601875D02*
Y1602118D01*
Y1603211D02*
Y1603454D01*
Y1604432D02*
Y1604676D01*
X2024800Y1601875D02*
Y1602118D01*
Y1603211D02*
Y1603461D01*
Y1604432D02*
Y1604676D01*
X2024900Y1601875D02*
Y1602122D01*
Y1603198D02*
Y1603477D01*
Y1604416D02*
Y1604672D01*
X2025000Y1601884D02*
Y1602136D01*
Y1603186D02*
Y1603494D01*
Y1604399D02*
Y1604661D01*
X2025100Y1601894D02*
Y1602150D01*
Y1603173D02*
Y1603534D01*
Y1604363D02*
Y1604650D01*
X2025200Y1601904D02*
Y1602177D01*
Y1603143D02*
Y1603343D01*
Y1603437D02*
Y1603574D01*
Y1604313D02*
Y1604639D01*
X2025300Y1601927D02*
Y1602217D01*
Y1603109D02*
Y1603314D01*
Y1603477D02*
Y1603698D01*
Y1604216D02*
Y1604582D01*
X2025400Y1601989D02*
Y1602301D01*
Y1603037D02*
Y1603285D01*
Y1603530D02*
Y1604525D01*
X2025500Y1602052D02*
Y1602493D01*
Y1602869D02*
Y1603236D01*
Y1603630D02*
Y1604447D01*
X2025600Y1602143D02*
Y1603156D01*
Y1603797D02*
Y1604347D01*
X2025700Y1602283D02*
Y1603032D01*
X2025800Y1602603D02*
Y1602766D01*
X2026300Y1603214D02*
Y1603264D01*
X2026400Y1602631D02*
Y1603802D01*
X2026500Y1602456D02*
Y1604045D01*
X2026600Y1602301D02*
Y1603141D01*
Y1603409D02*
Y1604211D01*
X2026700Y1602175D02*
Y1602715D01*
Y1603836D02*
Y1604345D01*
X2026800Y1602095D02*
Y1602515D01*
Y1604036D02*
Y1604445D01*
X2026900Y1602031D02*
Y1602360D01*
Y1604181D02*
Y1604515D01*
X2027000Y1601981D02*
Y1602260D01*
Y1604256D02*
Y1604558D01*
X2027100Y1601938D02*
Y1602201D01*
Y1604319D02*
Y1604601D01*
X2027200Y1601910D02*
Y1602153D01*
Y1604379D02*
Y1604630D01*
X2027300Y1601881D02*
Y1602113D01*
Y1604407D02*
Y1604658D01*
X2027400Y1601865D02*
Y1602080D01*
Y1604427D02*
Y1604681D01*
X2027500Y1601852D02*
Y1602080D01*
Y1604447D02*
Y1604694D01*
X2027600Y1601840D02*
Y1602080D01*
Y1604467D02*
Y1604706D01*
X2027700Y1601847D02*
Y1602080D01*
Y1604457D02*
Y1604707D01*
X2027800Y1601860D02*
Y1602080D01*
Y1604439D02*
Y1604693D01*
X2027900Y1601872D02*
Y1602097D01*
Y1604420D02*
Y1604679D01*
X2028000Y1601898D02*
Y1602137D01*
Y1604402D02*
Y1604653D01*
X2028100Y1601927D02*
Y1602189D01*
Y1604362D02*
Y1604624D01*
X2028200Y1601961D02*
Y1602264D01*
Y1604287D02*
Y1604590D01*
X2028300Y1602011D02*
Y1602339D01*
Y1604212D02*
Y1604540D01*
X2028400Y1602064D02*
Y1602430D01*
Y1604121D02*
Y1604486D01*
X2028500Y1602164D02*
Y1602610D01*
Y1603941D02*
Y1604386D01*
X2028600Y1602270D02*
Y1602861D01*
Y1603689D02*
Y1604286D01*
X2028700Y1602395D02*
Y1604186D01*
X2028800Y1602558D02*
Y1604035D01*
X2028900Y1602920D02*
Y1603661D01*
X2029400Y1603146D02*
Y1603340D01*
X2029500Y1602616D02*
Y1603831D01*
X2029600Y1602441D02*
Y1604064D01*
X2029700Y1602289D02*
Y1603091D01*
Y1603460D02*
Y1604224D01*
X2029800Y1602168D02*
Y1602698D01*
Y1603853D02*
Y1604353D01*
X2029900Y1602088D02*
Y1602498D01*
Y1604053D02*
Y1604453D01*
X2030000Y1602027D02*
Y1602352D01*
Y1604187D02*
Y1604519D01*
X2030100Y1601977D02*
Y1602252D01*
Y1604262D02*
Y1604562D01*
X2030200Y1601936D02*
Y1602197D01*
Y1604324D02*
Y1604604D01*
X2030300Y1601908D02*
Y1602150D01*
Y1604384D02*
Y1604632D01*
X2030400Y1601879D02*
Y1602110D01*
Y1604409D02*
Y1604661D01*
X2030500Y1601864D02*
Y1602080D01*
Y1604429D02*
Y1604682D01*
X2030600Y1601851D02*
Y1602080D01*
Y1604449D02*
Y1604695D01*
X2030700Y1601839D02*
Y1602080D01*
Y1604469D02*
Y1604707D01*
X2030800Y1601848D02*
Y1602080D01*
Y1604455D02*
Y1604706D01*
X2030900Y1601861D02*
Y1602080D01*
Y1604437D02*
Y1604692D01*
X2031000Y1601873D02*
Y1602100D01*
Y1604419D02*
Y1604678D01*
X2031100Y1601900D02*
Y1602140D01*
Y1604401D02*
Y1604650D01*
X2031200Y1601929D02*
Y1602195D01*
Y1604356D02*
Y1604622D01*
X2031300Y1601965D02*
Y1602270D01*
Y1604281D02*
Y1604586D01*
X2031400Y1602015D02*
Y1602345D01*
Y1604206D02*
Y1604536D01*
X2031500Y1602073D02*
Y1602445D01*
Y1604105D02*
Y1604478D01*
X2031600Y1602173D02*
Y1602625D01*
Y1603925D02*
Y1604378D01*
X2031700Y1602281D02*
Y1602916D01*
Y1603635D02*
Y1604278D01*
X2031800Y1602406D02*
Y1604178D01*
X2031900Y1602573D02*
Y1604016D01*
X2032000Y1602989D02*
Y1603601D01*
X2032400Y1604432D02*
Y1604676D01*
X2032500Y1604432D02*
Y1604676D01*
X2032600Y1604432D02*
Y1604676D01*
X2032700Y1604432D02*
Y1604676D01*
X2032800Y1604432D02*
Y1604676D01*
X2032900Y1604432D02*
Y1604676D01*
X2033000Y1604432D02*
Y1604676D01*
X2033100Y1604432D02*
Y1604676D01*
X2033200Y1604404D02*
Y1604676D01*
X2033300Y1601875D02*
Y1604676D01*
X2033400Y1601875D02*
Y1604676D01*
X2033500Y1604416D02*
Y1604676D01*
X2033600Y1604432D02*
Y1604676D01*
X2033700Y1604432D02*
Y1604676D01*
X2033800Y1604432D02*
Y1604676D01*
X2033900Y1604432D02*
Y1604676D01*
X2034000Y1604432D02*
Y1604676D01*
X2034100Y1604432D02*
Y1604676D01*
Y1631448D02*
Y1632557D01*
Y1634610D02*
Y1635537D01*
Y1636276D02*
Y1638443D01*
X2034200Y1604432D02*
Y1604676D01*
Y1631448D02*
Y1632889D01*
Y1634450D02*
Y1635712D01*
Y1636276D02*
Y1638443D01*
X2034300Y1604432D02*
Y1604676D01*
Y1631448D02*
Y1633055D01*
Y1634303D02*
Y1635756D01*
Y1636276D02*
Y1638443D01*
X2034400Y1631448D02*
Y1631768D01*
Y1632587D02*
Y1633112D01*
Y1634203D02*
Y1634679D01*
Y1635570D02*
Y1635756D01*
Y1637199D02*
Y1637520D01*
X2034500Y1631448D02*
Y1631767D01*
Y1632780D02*
Y1633169D01*
Y1634103D02*
Y1634492D01*
Y1637200D02*
Y1637519D01*
X2034600Y1631448D02*
Y1631767D01*
Y1632855D02*
Y1633210D01*
Y1634069D02*
Y1634373D01*
Y1637200D02*
Y1637519D01*
X2034700Y1602577D02*
Y1603901D01*
Y1631448D02*
Y1631767D01*
Y1632918D02*
Y1633235D01*
Y1634047D02*
Y1634353D01*
Y1637200D02*
Y1637519D01*
X2034800Y1602294D02*
Y1604201D01*
Y1631448D02*
Y1631767D01*
Y1632938D02*
Y1633260D01*
Y1634025D02*
Y1634333D01*
Y1637200D02*
Y1637519D01*
X2034900Y1602119D02*
Y1603222D01*
Y1603254D02*
Y1604377D01*
Y1631448D02*
Y1631767D01*
Y1632958D02*
Y1633274D01*
Y1634015D02*
Y1634346D01*
Y1637200D02*
Y1637519D01*
X2035000Y1602002D02*
Y1602524D01*
Y1603988D02*
Y1604477D01*
Y1631448D02*
Y1631767D01*
Y1632945D02*
Y1633262D01*
Y1634031D02*
Y1634371D01*
Y1637200D02*
Y1637519D01*
X2035100Y1601927D02*
Y1602290D01*
Y1604229D02*
Y1604557D01*
Y1631448D02*
Y1631767D01*
Y1632928D02*
Y1633249D01*
Y1634048D02*
Y1634418D01*
Y1637200D02*
Y1637519D01*
X2035200Y1601894D02*
Y1602190D01*
Y1604349D02*
Y1604620D01*
Y1631448D02*
Y1631767D01*
Y1632901D02*
Y1633231D01*
Y1634107D02*
Y1634472D01*
Y1637200D02*
Y1637519D01*
X2035300Y1601874D02*
Y1602114D01*
Y1604436D02*
Y1604660D01*
Y1631448D02*
Y1631767D01*
Y1632826D02*
Y1633171D01*
Y1634168D02*
Y1634638D01*
Y1637200D02*
Y1637519D01*
X2035400Y1601858D02*
Y1602086D01*
Y1604465D02*
Y1604687D01*
Y1631448D02*
Y1631767D01*
Y1632721D02*
Y1633104D01*
Y1634268D02*
Y1634844D01*
Y1637200D02*
Y1637519D01*
X2035500Y1601841D02*
Y1602057D01*
Y1604493D02*
Y1604703D01*
Y1631448D02*
Y1631768D01*
Y1632554D02*
Y1633004D01*
Y1634368D02*
Y1635069D01*
Y1637200D02*
Y1637519D01*
X2035600Y1601851D02*
Y1602053D01*
Y1604499D02*
Y1604706D01*
Y1631448D02*
Y1632871D01*
Y1634534D02*
Y1635219D01*
Y1637200D02*
Y1637519D01*
X2035700Y1601867D02*
Y1602086D01*
Y1604470D02*
Y1604690D01*
Y1631448D02*
Y1632605D01*
Y1634767D02*
Y1635369D01*
Y1637200D02*
Y1637519D01*
X2035800Y1601886D02*
Y1602120D01*
Y1604442D02*
Y1604672D01*
Y1631448D02*
Y1632601D01*
Y1634946D02*
Y1635503D01*
Y1637200D02*
Y1637519D01*
X2035900Y1601906D02*
Y1602224D01*
Y1604363D02*
Y1604652D01*
Y1631448D02*
Y1631767D01*
Y1632385D02*
Y1632751D01*
Y1635127D02*
Y1635623D01*
Y1637200D02*
Y1637519D01*
X2036000Y1601992D02*
Y1602344D01*
Y1604213D02*
Y1604596D01*
Y1631448D02*
Y1631767D01*
Y1632498D02*
Y1632862D01*
Y1635288D02*
Y1635724D01*
Y1637200D02*
Y1637519D01*
X2036100Y1602092D02*
Y1602601D01*
Y1603926D02*
Y1604496D01*
Y1631448D02*
Y1631767D01*
Y1632573D02*
Y1632932D01*
Y1635388D02*
Y1635804D01*
Y1637200D02*
Y1637519D01*
X2036200Y1602192D02*
Y1604396D01*
Y1631448D02*
Y1631767D01*
Y1632653D02*
Y1633012D01*
Y1635477D02*
Y1635850D01*
Y1637200D02*
Y1637519D01*
X2036300Y1602387D02*
Y1604260D01*
Y1631448D02*
Y1631767D01*
Y1632733D02*
Y1633089D01*
Y1635517D02*
Y1635864D01*
Y1637200D02*
Y1637519D01*
X2036400Y1602683D02*
Y1603868D01*
Y1631448D02*
Y1631767D01*
Y1632793D02*
Y1633150D01*
Y1635557D02*
Y1635878D01*
Y1637200D02*
Y1637519D01*
X2036500Y1631448D02*
Y1631767D01*
Y1632850D02*
Y1633211D01*
Y1635547D02*
Y1635861D01*
Y1637200D02*
Y1637519D01*
X2036600Y1631448D02*
Y1631767D01*
Y1632907D02*
Y1633271D01*
Y1635527D02*
Y1635836D01*
Y1637200D02*
Y1637519D01*
X2036700Y1631448D02*
Y1631767D01*
Y1632964D02*
Y1633332D01*
Y1634009D02*
Y1634023D01*
Y1635472D02*
Y1635811D01*
Y1637200D02*
Y1637519D01*
X2036800Y1631448D02*
Y1631767D01*
Y1633021D02*
Y1633393D01*
Y1634009D02*
Y1634204D01*
Y1635370D02*
Y1635756D01*
Y1637200D02*
Y1637519D01*
X2036900Y1631448D02*
Y1631767D01*
Y1633078D02*
Y1633454D01*
Y1634009D02*
Y1634481D01*
Y1635075D02*
Y1635684D01*
Y1637200D02*
Y1637519D01*
X2037000Y1631448D02*
Y1631767D01*
Y1633135D02*
Y1633515D01*
Y1634009D02*
Y1635613D01*
Y1637200D02*
Y1637519D01*
X2037100Y1631448D02*
Y1631767D01*
Y1633193D02*
Y1633576D01*
Y1634174D02*
Y1635405D01*
Y1637200D02*
Y1637519D01*
X2037200Y1634650D02*
Y1634886D01*
X2040200Y1648375D02*
Y1651466D01*
X2040300Y1648375D02*
Y1651466D01*
X2040400Y1648375D02*
Y1651466D01*
X2040500Y1649802D02*
Y1650080D01*
X2040600Y1649802D02*
Y1650080D01*
X2040700Y1649802D02*
Y1650080D01*
X2040800Y1649802D02*
Y1650080D01*
X2040900Y1649802D02*
Y1650080D01*
X2041000Y1649802D02*
Y1650080D01*
X2041100Y1649802D02*
Y1650080D01*
X2041200Y1649802D02*
Y1650080D01*
X2041300Y1649802D02*
Y1650080D01*
X2041400Y1649802D02*
Y1650080D01*
X2041500Y1649802D02*
Y1650080D01*
X2041600Y1649802D02*
Y1650080D01*
X2041700Y1649802D02*
Y1650080D01*
X2041800Y1649802D02*
Y1650080D01*
X2041900Y1649802D02*
Y1650080D01*
X2042000Y1649802D02*
Y1650080D01*
X2042100Y1649801D02*
Y1650082D01*
X2042200Y1648375D02*
Y1651466D01*
X2042300Y1648375D02*
Y1651466D01*
X2042400Y1648375D02*
Y1651466D01*
X2043400Y1648375D02*
Y1651466D01*
X2043500Y1648375D02*
Y1651466D01*
X2043600Y1648375D02*
Y1651466D01*
X2043700Y1651142D02*
Y1651466D01*
X2043800Y1650815D02*
Y1651466D01*
X2043900Y1650575D02*
Y1651269D01*
X2044000Y1650343D02*
Y1651032D01*
X2044100Y1650111D02*
Y1650796D01*
X2044200Y1649879D02*
Y1650560D01*
X2044300Y1649647D02*
Y1650323D01*
X2044400Y1649415D02*
Y1650087D01*
X2044500Y1649183D02*
Y1649850D01*
X2044600Y1648951D02*
Y1649614D01*
X2044700Y1648719D02*
Y1649378D01*
X2044800Y1648487D02*
Y1649131D01*
X2044900Y1648375D02*
Y1648905D01*
X2045000Y1648393D02*
Y1648973D01*
X2045100Y1648625D02*
Y1649273D01*
X2045200Y1648857D02*
Y1649509D01*
X2045300Y1649089D02*
Y1649735D01*
X2045400Y1649321D02*
Y1649961D01*
X2045500Y1649553D02*
Y1650187D01*
X2045600Y1649785D02*
Y1650413D01*
X2045700Y1650017D02*
Y1650639D01*
X2045800Y1650249D02*
Y1650866D01*
X2045900Y1650481D02*
Y1651092D01*
X2046000Y1650713D02*
Y1651318D01*
X2046100Y1651056D02*
Y1651466D01*
X2046200Y1651146D02*
Y1651466D01*
X2046300Y1616879D02*
Y1617293D01*
Y1618600D02*
Y1618920D01*
Y1619818D02*
Y1620263D01*
Y1622001D02*
Y1622321D01*
Y1623219D02*
Y1623538D01*
Y1624142D02*
Y1625680D01*
Y1627165D02*
Y1627485D01*
Y1629365D02*
Y1630416D01*
Y1648375D02*
Y1651466D01*
X2046400Y1616964D02*
Y1617375D01*
Y1618600D02*
Y1618920D01*
Y1619818D02*
Y1620326D01*
Y1622001D02*
Y1622321D01*
Y1623219D02*
Y1623538D01*
Y1624142D02*
Y1625680D01*
Y1627165D02*
Y1627485D01*
Y1629140D02*
Y1630640D01*
Y1648375D02*
Y1651466D01*
X2046500Y1617048D02*
Y1617457D01*
Y1618600D02*
Y1618920D01*
Y1619818D02*
Y1620389D01*
Y1622001D02*
Y1622321D01*
Y1623219D02*
Y1623538D01*
Y1624142D02*
Y1625680D01*
Y1627165D02*
Y1627485D01*
Y1629027D02*
Y1630676D01*
X2046600Y1617133D02*
Y1617540D01*
Y1618600D02*
Y1618920D01*
Y1619818D02*
Y1620452D01*
Y1622001D02*
Y1622321D01*
Y1623219D02*
Y1623538D01*
Y1625360D02*
Y1625680D01*
Y1627165D02*
Y1627485D01*
Y1628956D02*
Y1629408D01*
Y1630386D02*
Y1630676D01*
X2046700Y1617217D02*
Y1617622D01*
Y1618600D02*
Y1618920D01*
Y1619818D02*
Y1620514D01*
Y1622001D02*
Y1622321D01*
Y1623219D02*
Y1623538D01*
Y1625360D02*
Y1625680D01*
Y1627165D02*
Y1627485D01*
Y1628884D02*
Y1629250D01*
Y1630611D02*
Y1630676D01*
X2046800Y1617302D02*
Y1617704D01*
Y1618600D02*
Y1618920D01*
Y1619818D02*
Y1620103D01*
Y1620261D02*
Y1620577D01*
Y1622001D02*
Y1622321D01*
Y1623219D02*
Y1623538D01*
Y1625360D02*
Y1625680D01*
Y1627165D02*
Y1627485D01*
Y1628858D02*
Y1629165D01*
X2046900Y1617387D02*
Y1617787D01*
Y1618600D02*
Y1618920D01*
Y1619818D02*
Y1620128D01*
Y1620324D02*
Y1620640D01*
Y1622001D02*
Y1622321D01*
Y1623219D02*
Y1623538D01*
Y1625360D02*
Y1625680D01*
Y1627165D02*
Y1627485D01*
Y1628833D02*
Y1629145D01*
X2047000Y1617471D02*
Y1617869D01*
Y1618600D02*
Y1618920D01*
Y1619818D02*
Y1620138D01*
Y1620388D02*
Y1620702D01*
Y1622001D02*
Y1622321D01*
Y1623219D02*
Y1623538D01*
Y1625360D02*
Y1625680D01*
Y1627165D02*
Y1627485D01*
Y1628808D02*
Y1629125D01*
X2047100Y1617556D02*
Y1617952D01*
Y1618600D02*
Y1618920D01*
Y1619818D02*
Y1620138D01*
Y1620450D02*
Y1620765D01*
Y1622001D02*
Y1622321D01*
Y1623219D02*
Y1623538D01*
Y1625360D02*
Y1625680D01*
Y1627165D02*
Y1627485D01*
Y1628815D02*
Y1629152D01*
X2047200Y1617641D02*
Y1618034D01*
Y1618600D02*
Y1618920D01*
Y1619818D02*
Y1620138D01*
Y1620512D02*
Y1620828D01*
Y1622001D02*
Y1622321D01*
Y1623219D02*
Y1623538D01*
Y1625360D02*
Y1625680D01*
Y1627165D02*
Y1627485D01*
Y1628829D02*
Y1629192D01*
X2047300Y1617725D02*
Y1618116D01*
Y1618600D02*
Y1618920D01*
Y1619818D02*
Y1620138D01*
Y1620574D02*
Y1620891D01*
Y1622001D02*
Y1622321D01*
Y1623219D02*
Y1623538D01*
Y1625360D02*
Y1625680D01*
Y1627165D02*
Y1627485D01*
Y1628850D02*
Y1629259D01*
X2047400Y1617810D02*
Y1618199D01*
Y1618600D02*
Y1618920D01*
Y1619818D02*
Y1620138D01*
Y1620636D02*
Y1620953D01*
Y1622001D02*
Y1622321D01*
Y1623219D02*
Y1623538D01*
Y1625360D02*
Y1625680D01*
Y1627165D02*
Y1627485D01*
Y1628930D02*
Y1629359D01*
X2047500Y1617894D02*
Y1618281D01*
Y1618600D02*
Y1618920D01*
Y1619818D02*
Y1620138D01*
Y1620699D02*
Y1621016D01*
Y1622001D02*
Y1622321D01*
Y1623219D02*
Y1623538D01*
Y1625360D02*
Y1625680D01*
Y1627165D02*
Y1627485D01*
Y1629016D02*
Y1629481D01*
Y1648375D02*
Y1651466D01*
X2047600Y1617979D02*
Y1618363D01*
Y1618600D02*
Y1618920D01*
Y1619818D02*
Y1620138D01*
Y1620761D02*
Y1621079D01*
Y1622001D02*
Y1622321D01*
Y1623219D02*
Y1623538D01*
Y1625360D02*
Y1625680D01*
Y1627165D02*
Y1627485D01*
Y1629136D02*
Y1629673D01*
Y1648375D02*
Y1651466D01*
X2047700Y1618064D02*
Y1618442D01*
Y1618600D02*
Y1618920D01*
Y1619818D02*
Y1620138D01*
Y1620823D02*
Y1621141D01*
Y1622001D02*
Y1622321D01*
Y1623219D02*
Y1623538D01*
Y1625360D02*
Y1625680D01*
Y1627165D02*
Y1627485D01*
Y1629259D02*
Y1629848D01*
Y1648375D02*
Y1651466D01*
X2047800Y1618148D02*
Y1618509D01*
Y1618592D02*
Y1618920D01*
Y1619818D02*
Y1620138D01*
Y1620885D02*
Y1621204D01*
Y1622001D02*
Y1622321D01*
Y1623219D02*
Y1623538D01*
Y1625360D02*
Y1625680D01*
Y1627165D02*
Y1627485D01*
Y1629409D02*
Y1630072D01*
X2047900Y1618159D02*
Y1618489D01*
Y1618600D02*
Y1618920D01*
Y1619818D02*
Y1620138D01*
Y1620947D02*
Y1621267D01*
Y1622001D02*
Y1622321D01*
Y1623219D02*
Y1623538D01*
Y1625360D02*
Y1625680D01*
Y1627165D02*
Y1627485D01*
Y1629559D02*
Y1630254D01*
X2048000Y1618075D02*
Y1618422D01*
Y1618600D02*
Y1618920D01*
Y1619818D02*
Y1620138D01*
Y1621009D02*
Y1621330D01*
Y1622001D02*
Y1622321D01*
Y1623219D02*
Y1623538D01*
Y1625360D02*
Y1625680D01*
Y1627165D02*
Y1627485D01*
Y1629755D02*
Y1630379D01*
X2048100Y1617992D02*
Y1618340D01*
Y1618600D02*
Y1618920D01*
Y1619818D02*
Y1620138D01*
Y1621071D02*
Y1621392D01*
Y1622001D02*
Y1622321D01*
Y1623219D02*
Y1623538D01*
Y1625360D02*
Y1625680D01*
Y1627165D02*
Y1627485D01*
Y1629980D02*
Y1630479D01*
X2048200Y1617908D02*
Y1618258D01*
Y1618600D02*
Y1618920D01*
Y1619818D02*
Y1620138D01*
Y1621133D02*
Y1621455D01*
Y1622001D02*
Y1622321D01*
Y1623219D02*
Y1623538D01*
Y1625360D02*
Y1625680D01*
Y1627165D02*
Y1627485D01*
Y1630150D02*
Y1630555D01*
X2048300Y1617824D02*
Y1618176D01*
Y1618600D02*
Y1618920D01*
Y1619818D02*
Y1620138D01*
Y1621195D02*
Y1621518D01*
Y1622001D02*
Y1622321D01*
Y1623219D02*
Y1623538D01*
Y1625360D02*
Y1625680D01*
Y1627165D02*
Y1627485D01*
Y1630248D02*
Y1630615D01*
X2048400Y1617740D02*
Y1618094D01*
Y1618600D02*
Y1618920D01*
Y1619818D02*
Y1620138D01*
Y1621257D02*
Y1621580D01*
Y1622001D02*
Y1622321D01*
Y1623219D02*
Y1623538D01*
Y1625360D02*
Y1625680D01*
Y1627165D02*
Y1627485D01*
Y1630298D02*
Y1630647D01*
X2048500Y1617656D02*
Y1618012D01*
Y1618600D02*
Y1618920D01*
Y1619818D02*
Y1620138D01*
Y1621319D02*
Y1621643D01*
Y1622001D02*
Y1622321D01*
Y1623219D02*
Y1623538D01*
Y1625360D02*
Y1625680D01*
Y1627165D02*
Y1627485D01*
Y1630330D02*
Y1630663D01*
X2048600Y1617573D02*
Y1617931D01*
Y1618600D02*
Y1618920D01*
Y1619818D02*
Y1620138D01*
Y1621381D02*
Y1621706D01*
Y1622001D02*
Y1622321D01*
Y1623219D02*
Y1623538D01*
Y1625360D02*
Y1625680D01*
Y1627165D02*
Y1627485D01*
Y1630355D02*
Y1630668D01*
X2048700Y1617489D02*
Y1617849D01*
Y1618600D02*
Y1618920D01*
Y1619818D02*
Y1620138D01*
Y1621443D02*
Y1621769D01*
Y1622001D02*
Y1622321D01*
Y1623219D02*
Y1623538D01*
Y1625360D02*
Y1625680D01*
Y1627165D02*
Y1627485D01*
Y1630339D02*
Y1630646D01*
X2048800Y1617405D02*
Y1617767D01*
Y1618600D02*
Y1618920D01*
Y1619818D02*
Y1620138D01*
Y1621505D02*
Y1621829D01*
Y1622001D02*
Y1622321D01*
Y1623219D02*
Y1623538D01*
Y1625360D02*
Y1625680D01*
Y1627165D02*
Y1627485D01*
Y1630319D02*
Y1630624D01*
X2048900Y1617321D02*
Y1617685D01*
Y1618600D02*
Y1618920D01*
Y1619818D02*
Y1620138D01*
Y1621568D02*
Y1621889D01*
Y1622001D02*
Y1622321D01*
Y1623219D02*
Y1623538D01*
Y1625360D02*
Y1625680D01*
Y1627165D02*
Y1627485D01*
Y1630243D02*
Y1630601D01*
X2049000Y1617237D02*
Y1617603D01*
Y1618600D02*
Y1618920D01*
Y1619818D02*
Y1620138D01*
Y1621630D02*
Y1622321D01*
Y1623219D02*
Y1623538D01*
Y1625360D02*
Y1625680D01*
Y1627165D02*
Y1627485D01*
Y1628929D02*
Y1629039D01*
Y1630101D02*
Y1630519D01*
X2049100Y1617154D02*
Y1617522D01*
Y1618600D02*
Y1618920D01*
Y1619818D02*
Y1620138D01*
Y1621692D02*
Y1622321D01*
Y1623219D02*
Y1623538D01*
Y1625360D02*
Y1625680D01*
Y1626241D02*
Y1628409D01*
Y1628929D02*
Y1629393D01*
Y1629782D02*
Y1630419D01*
X2049200Y1617070D02*
Y1617440D01*
Y1618600D02*
Y1618920D01*
Y1619818D02*
Y1620138D01*
Y1621754D02*
Y1622321D01*
Y1623219D02*
Y1623538D01*
Y1625360D02*
Y1625680D01*
Y1626241D02*
Y1628409D01*
Y1628929D02*
Y1630295D01*
X2049300Y1616986D02*
Y1617358D01*
Y1618600D02*
Y1618920D01*
Y1619818D02*
Y1620138D01*
Y1621816D02*
Y1622321D01*
Y1623219D02*
Y1623538D01*
Y1625360D02*
Y1625680D01*
Y1626241D02*
Y1628409D01*
Y1629081D02*
Y1630135D01*
X2049400Y1629577D02*
Y1629610D01*
X2050000Y1648375D02*
Y1651466D01*
X2050100Y1648375D02*
Y1651466D01*
X2050200Y1648375D02*
Y1651466D01*
X2050300Y1648375D02*
Y1648655D01*
X2050400Y1648375D02*
Y1648653D01*
X2050500Y1648375D02*
Y1648653D01*
X2050600Y1648375D02*
Y1648653D01*
X2050700Y1648375D02*
Y1648653D01*
X2050800Y1648375D02*
Y1648653D01*
X2050900Y1648375D02*
Y1648653D01*
X2051000Y1648375D02*
Y1648653D01*
X2051100Y1648375D02*
Y1648653D01*
X2051200Y1648375D02*
Y1648653D01*
X2051300Y1648375D02*
Y1648653D01*
X2051400Y1648375D02*
Y1648653D01*
X2051900Y1649673D02*
Y1650061D01*
X2052000Y1649224D02*
Y1650533D01*
X2052100Y1649024D02*
Y1650767D01*
X2052200Y1648863D02*
Y1649854D01*
Y1649905D02*
Y1650911D01*
X2052300Y1648724D02*
Y1649330D01*
Y1650470D02*
Y1651031D01*
X2052400Y1648644D02*
Y1649180D01*
Y1650637D02*
Y1651124D01*
X2052500Y1648569D02*
Y1649030D01*
Y1650804D02*
Y1651207D01*
X2052600Y1648519D02*
Y1648921D01*
Y1650920D02*
Y1651277D01*
X2052700Y1648469D02*
Y1648846D01*
Y1650995D02*
Y1651320D01*
X2052800Y1648435D02*
Y1648771D01*
Y1651058D02*
Y1651363D01*
X2052900Y1648406D02*
Y1648698D01*
Y1651118D02*
Y1651399D01*
X2053000Y1648378D02*
Y1648658D01*
Y1651153D02*
Y1651427D01*
X2053100Y1648363D02*
Y1648618D01*
Y1651170D02*
Y1651456D01*
X2053200Y1648351D02*
Y1648611D01*
Y1651187D02*
Y1651474D01*
X2053300Y1648338D02*
Y1648611D01*
Y1651203D02*
Y1651487D01*
X2053400Y1648338D02*
Y1648612D01*
Y1651220D02*
Y1651499D01*
X2053500Y1648347D02*
Y1648622D01*
Y1651226D02*
Y1651504D01*
X2053600Y1648355D02*
Y1648631D01*
Y1651215D02*
Y1651494D01*
X2053700Y1648363D02*
Y1648640D01*
Y1651204D02*
Y1651484D01*
X2053800Y1648372D02*
Y1648649D01*
Y1651193D02*
Y1651474D01*
X2053900Y1648405D02*
Y1648674D01*
Y1651171D02*
Y1651456D01*
X2054000Y1648450D02*
Y1648718D01*
Y1651138D02*
Y1651419D01*
X2054100Y1648494D02*
Y1648763D01*
Y1651105D02*
Y1651381D01*
X2054900Y1648375D02*
Y1651466D01*
X2055000Y1648375D02*
Y1651466D01*
X2055100Y1648375D02*
Y1651466D01*
X2055200Y1648375D02*
Y1651466D01*
X2055300Y1648375D02*
Y1648653D01*
Y1651188D02*
Y1651466D01*
X2055400Y1648375D02*
Y1648653D01*
Y1651188D02*
Y1651466D01*
X2055500Y1648375D02*
Y1648653D01*
Y1651188D02*
Y1651466D01*
X2055600Y1648375D02*
Y1648653D01*
Y1651188D02*
Y1651466D01*
X2055700Y1648375D02*
Y1648653D01*
Y1651188D02*
Y1651466D01*
X2055800Y1648384D02*
Y1648663D01*
Y1651177D02*
Y1651458D01*
X2055900Y1648396D02*
Y1648678D01*
Y1651161D02*
Y1651447D01*
X2056000Y1648409D02*
Y1648694D01*
Y1651144D02*
Y1651436D01*
X2056100Y1648427D02*
Y1648709D01*
Y1651127D02*
Y1651424D01*
X2056200Y1648452D02*
Y1648724D01*
Y1651111D02*
Y1651396D01*
X2056300Y1648477D02*
Y1648742D01*
Y1651077D02*
Y1651367D01*
X2056400Y1648504D02*
Y1648782D01*
Y1651027D02*
Y1651337D01*
X2056500Y1648547D02*
Y1648822D01*
Y1650977D02*
Y1651294D01*
X2056600Y1648590D02*
Y1648913D01*
Y1650927D02*
Y1651251D01*
X2056700Y1648644D02*
Y1649013D01*
Y1650867D02*
Y1651202D01*
X2056800Y1648728D02*
Y1649113D01*
Y1650734D02*
Y1651135D01*
X2056900Y1648811D02*
Y1649264D01*
Y1650575D02*
Y1651068D01*
X2057000Y1541175D02*
Y1541265D01*
Y1648909D02*
Y1649538D01*
Y1650345D02*
Y1650957D01*
X2057100Y1541175D02*
Y1541527D01*
Y1649009D02*
Y1650837D01*
X2057200Y1541175D02*
Y1541789D01*
Y1649220D02*
Y1650650D01*
X2057300Y1541175D02*
Y1542051D01*
Y1649526D02*
Y1650357D01*
X2057400Y1541405D02*
Y1542313D01*
X2057500Y1541690D02*
Y1542575D01*
X2057600Y1541976D02*
Y1542837D01*
X2057700Y1542015D02*
Y1543099D01*
X2057800Y1542015D02*
Y1542293D01*
Y1542569D02*
Y1543361D01*
X2057900Y1542015D02*
Y1542293D01*
Y1542860D02*
Y1543623D01*
X2058000Y1542015D02*
Y1542293D01*
Y1543151D02*
Y1543885D01*
X2058100Y1542015D02*
Y1542293D01*
Y1543442D02*
Y1544147D01*
X2058200Y1542015D02*
Y1542293D01*
Y1543729D02*
Y1544266D01*
X2058300Y1542015D02*
Y1542293D01*
Y1543941D02*
Y1544266D01*
X2058400Y1542015D02*
Y1542293D01*
Y1543816D02*
Y1544266D01*
X2058500Y1542015D02*
Y1542293D01*
Y1543462D02*
Y1544256D01*
X2058600Y1542015D02*
Y1542293D01*
Y1543196D02*
Y1543994D01*
X2058700Y1542015D02*
Y1542293D01*
Y1542929D02*
Y1543732D01*
X2058800Y1542015D02*
Y1542293D01*
Y1542662D02*
Y1543470D01*
X2058900Y1542015D02*
Y1542305D01*
Y1542396D02*
Y1543208D01*
X2059000Y1541975D02*
Y1542945D01*
X2059100Y1541725D02*
Y1542683D01*
X2059200Y1541475D02*
Y1542421D01*
X2059300Y1541225D02*
Y1542159D01*
X2059400Y1541175D02*
Y1541897D01*
X2059500Y1541175D02*
Y1541635D01*
X2059600Y1541175D02*
Y1541373D01*
X2060300Y1541175D02*
Y1544266D01*
X2060400Y1541175D02*
Y1544266D01*
X2060500Y1541175D02*
Y1544266D01*
X2060600Y1543852D02*
Y1544266D01*
X2060700Y1543792D02*
Y1544266D01*
X2060800Y1543626D02*
Y1544150D01*
X2060900Y1543466D02*
Y1543989D01*
X2061000Y1543307D02*
Y1543828D01*
X2061100Y1543147D02*
Y1543666D01*
X2061200Y1542988D02*
Y1543505D01*
X2061300Y1542828D02*
Y1543344D01*
X2061400Y1542669D02*
Y1543183D01*
X2061500Y1542510D02*
Y1543022D01*
X2061600Y1542350D02*
Y1542861D01*
X2061700Y1542191D02*
Y1542700D01*
X2061800Y1542031D02*
Y1542539D01*
X2061900Y1541872D02*
Y1542378D01*
X2062000Y1541712D02*
Y1542216D01*
X2062100Y1541553D02*
Y1542055D01*
X2062200Y1541393D02*
Y1541894D01*
X2062300Y1541234D02*
Y1541741D01*
X2062400Y1541175D02*
Y1541621D01*
X2062500Y1541175D02*
Y1544266D01*
X2062600Y1541175D02*
Y1544266D01*
X2062700Y1541175D02*
Y1544266D01*
X2063400Y1543988D02*
Y1544266D01*
X2063500Y1543988D02*
Y1544266D01*
X2063600Y1543988D02*
Y1544266D01*
X2063700Y1543988D02*
Y1544266D01*
X2063800Y1543988D02*
Y1544266D01*
X2063900Y1543988D02*
Y1544266D01*
X2064000Y1543988D02*
Y1544266D01*
X2064100Y1543988D02*
Y1544266D01*
X2064200Y1543988D02*
Y1544266D01*
X2064300Y1541175D02*
Y1544266D01*
X2064400Y1541175D02*
Y1544266D01*
X2064500Y1541175D02*
Y1544266D01*
X2064600Y1543984D02*
Y1544266D01*
X2064700Y1543988D02*
Y1544266D01*
X2064800Y1543988D02*
Y1544266D01*
X2064900Y1543988D02*
Y1544266D01*
X2065000Y1543988D02*
Y1544266D01*
X2065100Y1543988D02*
Y1544266D01*
X2065200Y1543988D02*
Y1544266D01*
X2065300Y1543988D02*
Y1544266D01*
X2065400Y1543988D02*
Y1544266D01*
X2069700Y1631864D02*
Y1632512D01*
X2069800Y1616241D02*
Y1616561D01*
Y1618047D02*
Y1618535D01*
Y1620230D02*
Y1620550D01*
Y1621172D02*
Y1621529D01*
Y1623456D02*
Y1623806D01*
Y1626654D02*
Y1626973D01*
Y1627871D02*
Y1628191D01*
Y1629886D02*
Y1630206D01*
Y1631593D02*
Y1632845D01*
X2069900Y1616241D02*
Y1616561D01*
Y1618047D02*
Y1618597D01*
Y1620230D02*
Y1620550D01*
Y1621210D02*
Y1621569D01*
Y1623421D02*
Y1623768D01*
Y1626654D02*
Y1626973D01*
Y1627871D02*
Y1628191D01*
Y1629886D02*
Y1630206D01*
Y1631464D02*
Y1632995D01*
X2070000Y1616241D02*
Y1616561D01*
Y1618047D02*
Y1618660D01*
Y1620230D02*
Y1620550D01*
Y1621248D02*
Y1621609D01*
Y1623386D02*
Y1623730D01*
Y1626654D02*
Y1626973D01*
Y1627871D02*
Y1628191D01*
Y1629886D02*
Y1630206D01*
Y1631369D02*
Y1631850D01*
Y1632609D02*
Y1633126D01*
X2070100Y1616241D02*
Y1616561D01*
Y1618047D02*
Y1618723D01*
Y1620230D02*
Y1620550D01*
Y1621286D02*
Y1621649D01*
Y1623351D02*
Y1623692D01*
Y1626654D02*
Y1626973D01*
Y1627871D02*
Y1628191D01*
Y1629886D02*
Y1630206D01*
Y1631294D02*
Y1631725D01*
Y1632729D02*
Y1633182D01*
X2070200Y1616241D02*
Y1616561D01*
Y1618047D02*
Y1618325D01*
Y1618474D02*
Y1618786D01*
Y1620230D02*
Y1620550D01*
Y1621324D02*
Y1621689D01*
Y1623316D02*
Y1623654D01*
Y1626654D02*
Y1626973D01*
Y1627871D02*
Y1628191D01*
Y1629886D02*
Y1630206D01*
Y1631246D02*
Y1631624D01*
Y1632849D02*
Y1633238D01*
X2070300Y1616241D02*
Y1616561D01*
Y1618047D02*
Y1618349D01*
Y1618531D02*
Y1618848D01*
Y1620230D02*
Y1620550D01*
Y1621363D02*
Y1621729D01*
Y1623281D02*
Y1623615D01*
Y1626654D02*
Y1626973D01*
Y1627871D02*
Y1628191D01*
Y1629886D02*
Y1630206D01*
Y1631212D02*
Y1631567D01*
Y1632910D02*
Y1633293D01*
X2070400Y1616241D02*
Y1616561D01*
Y1618047D02*
Y1618367D01*
Y1618597D02*
Y1618911D01*
Y1620230D02*
Y1620550D01*
Y1621401D02*
Y1621769D01*
Y1623246D02*
Y1623577D01*
Y1626654D02*
Y1626973D01*
Y1627871D02*
Y1628191D01*
Y1629886D02*
Y1630206D01*
Y1631180D02*
Y1631510D01*
Y1632967D02*
Y1633324D01*
X2070500Y1616241D02*
Y1616561D01*
Y1618047D02*
Y1618367D01*
Y1618659D02*
Y1618974D01*
Y1620230D02*
Y1620550D01*
Y1621439D02*
Y1621809D01*
Y1623211D02*
Y1623539D01*
Y1626654D02*
Y1626973D01*
Y1627871D02*
Y1628191D01*
Y1629886D02*
Y1630206D01*
Y1631151D02*
Y1631465D01*
Y1633024D02*
Y1633338D01*
X2070600Y1616241D02*
Y1616561D01*
Y1618047D02*
Y1618367D01*
Y1618721D02*
Y1619036D01*
Y1620230D02*
Y1620550D01*
Y1621477D02*
Y1623501D01*
Y1626654D02*
Y1626973D01*
Y1627871D02*
Y1628191D01*
Y1629886D02*
Y1630206D01*
Y1631123D02*
Y1631455D01*
Y1633042D02*
Y1633352D01*
X2070700Y1616241D02*
Y1616561D01*
Y1618047D02*
Y1618367D01*
Y1618783D02*
Y1619099D01*
Y1620230D02*
Y1620550D01*
Y1621515D02*
Y1623463D01*
Y1626654D02*
Y1626973D01*
Y1627871D02*
Y1628191D01*
Y1629886D02*
Y1630206D01*
Y1631104D02*
Y1631445D01*
Y1633052D02*
Y1633366D01*
X2070800Y1616241D02*
Y1616561D01*
Y1618047D02*
Y1618367D01*
Y1618845D02*
Y1619162D01*
Y1620230D02*
Y1620550D01*
Y1621553D02*
Y1623425D01*
Y1626654D02*
Y1626973D01*
Y1627871D02*
Y1628191D01*
Y1629886D02*
Y1630206D01*
Y1631104D02*
Y1631435D01*
Y1633062D02*
Y1633381D01*
X2070900Y1616241D02*
Y1616561D01*
Y1618047D02*
Y1618367D01*
Y1618907D02*
Y1619225D01*
Y1620230D02*
Y1620550D01*
Y1621592D02*
Y1621902D01*
Y1623077D02*
Y1623387D01*
Y1626654D02*
Y1626973D01*
Y1627871D02*
Y1628191D01*
Y1629886D02*
Y1630206D01*
Y1631104D02*
Y1631425D01*
Y1633072D02*
Y1633395D01*
X2071000Y1616241D02*
Y1616561D01*
Y1618047D02*
Y1618367D01*
Y1618969D02*
Y1619287D01*
Y1620230D02*
Y1620550D01*
Y1621630D02*
Y1621939D01*
Y1623043D02*
Y1623348D01*
Y1626654D02*
Y1626973D01*
Y1627871D02*
Y1628191D01*
Y1629886D02*
Y1630206D01*
Y1631104D02*
Y1631424D01*
Y1633077D02*
Y1633397D01*
X2071100Y1616241D02*
Y1616561D01*
Y1618047D02*
Y1618367D01*
Y1619032D02*
Y1619350D01*
Y1620230D02*
Y1620550D01*
Y1621668D02*
Y1621977D01*
Y1623008D02*
Y1623310D01*
Y1625520D02*
Y1626973D01*
Y1627871D02*
Y1628196D01*
Y1629882D02*
Y1630206D01*
Y1631104D02*
Y1631424D01*
Y1633077D02*
Y1633397D01*
X2071200Y1616241D02*
Y1616561D01*
Y1618047D02*
Y1618367D01*
Y1619094D02*
Y1619413D01*
Y1620230D02*
Y1620550D01*
Y1621706D02*
Y1622014D01*
Y1622974D02*
Y1623272D01*
Y1625520D02*
Y1626973D01*
Y1627871D02*
Y1630206D01*
Y1631104D02*
Y1631424D01*
Y1633077D02*
Y1633397D01*
X2071300Y1616241D02*
Y1616561D01*
Y1618047D02*
Y1618367D01*
Y1619156D02*
Y1619475D01*
Y1620230D02*
Y1620550D01*
Y1621744D02*
Y1622052D01*
Y1622940D02*
Y1623234D01*
Y1625520D02*
Y1626973D01*
Y1627871D02*
Y1630206D01*
Y1631104D02*
Y1631424D01*
Y1633077D02*
Y1633397D01*
X2071400Y1616241D02*
Y1616561D01*
Y1618047D02*
Y1618367D01*
Y1619218D02*
Y1619538D01*
Y1620230D02*
Y1620550D01*
Y1621782D02*
Y1622089D01*
Y1622905D02*
Y1623196D01*
Y1626651D02*
Y1626973D01*
Y1627871D02*
Y1630206D01*
Y1631104D02*
Y1631424D01*
Y1633077D02*
Y1633397D01*
X2071500Y1616241D02*
Y1616561D01*
Y1618047D02*
Y1618367D01*
Y1619280D02*
Y1619601D01*
Y1620230D02*
Y1620550D01*
Y1621821D02*
Y1622127D01*
Y1622871D02*
Y1623158D01*
Y1626654D02*
Y1626973D01*
Y1627871D02*
Y1628191D01*
Y1629886D02*
Y1630206D01*
Y1631104D02*
Y1631424D01*
Y1633077D02*
Y1633397D01*
X2071600Y1616241D02*
Y1616561D01*
Y1618047D02*
Y1618367D01*
Y1619342D02*
Y1619664D01*
Y1620230D02*
Y1620550D01*
Y1621859D02*
Y1622164D01*
Y1622836D02*
Y1623119D01*
Y1626654D02*
Y1626973D01*
Y1627871D02*
Y1628191D01*
Y1629886D02*
Y1630206D01*
Y1631104D02*
Y1631424D01*
Y1633077D02*
Y1633397D01*
X2071700Y1616241D02*
Y1616561D01*
Y1618047D02*
Y1618367D01*
Y1619404D02*
Y1619726D01*
Y1620230D02*
Y1620550D01*
Y1621897D02*
Y1622202D01*
Y1622802D02*
Y1623081D01*
Y1626654D02*
Y1626973D01*
Y1627871D02*
Y1628191D01*
Y1629886D02*
Y1630206D01*
Y1631104D02*
Y1631424D01*
Y1633077D02*
Y1633397D01*
X2071800Y1616241D02*
Y1616561D01*
Y1618047D02*
Y1618367D01*
Y1619466D02*
Y1619789D01*
Y1620230D02*
Y1620550D01*
Y1621935D02*
Y1622239D01*
Y1622768D02*
Y1623043D01*
Y1626654D02*
Y1626973D01*
Y1627871D02*
Y1628191D01*
Y1629886D02*
Y1630206D01*
Y1631104D02*
Y1631424D01*
Y1633077D02*
Y1633397D01*
X2071900Y1616241D02*
Y1616561D01*
Y1618047D02*
Y1618367D01*
Y1619528D02*
Y1619852D01*
Y1620230D02*
Y1620550D01*
Y1621973D02*
Y1622277D01*
Y1622733D02*
Y1623005D01*
Y1626654D02*
Y1626973D01*
Y1627871D02*
Y1628191D01*
Y1629886D02*
Y1630206D01*
Y1631104D02*
Y1631424D01*
Y1633077D02*
Y1633397D01*
X2072000Y1616241D02*
Y1616561D01*
Y1618047D02*
Y1618367D01*
Y1619590D02*
Y1619914D01*
Y1620230D02*
Y1620550D01*
Y1622011D02*
Y1622314D01*
Y1622699D02*
Y1622967D01*
Y1626654D02*
Y1626973D01*
Y1627871D02*
Y1628191D01*
Y1629886D02*
Y1630206D01*
Y1631104D02*
Y1631424D01*
Y1633077D02*
Y1633397D01*
X2072100Y1616241D02*
Y1616561D01*
Y1618047D02*
Y1618367D01*
Y1619652D02*
Y1619977D01*
Y1620230D02*
Y1620550D01*
Y1622049D02*
Y1622352D01*
Y1622665D02*
Y1622929D01*
Y1626654D02*
Y1626973D01*
Y1627871D02*
Y1628191D01*
Y1629886D02*
Y1630206D01*
Y1631104D02*
Y1631424D01*
Y1633077D02*
Y1633397D01*
X2072200Y1616241D02*
Y1616561D01*
Y1618047D02*
Y1618367D01*
Y1619714D02*
Y1620039D01*
Y1620230D02*
Y1620550D01*
Y1622088D02*
Y1622389D01*
Y1622630D02*
Y1622890D01*
Y1626654D02*
Y1626973D01*
Y1627871D02*
Y1628191D01*
Y1629886D02*
Y1630206D01*
Y1631104D02*
Y1631424D01*
Y1633077D02*
Y1633397D01*
X2072300Y1616241D02*
Y1616561D01*
Y1618047D02*
Y1618367D01*
Y1619776D02*
Y1620099D01*
Y1620230D02*
Y1620550D01*
Y1622126D02*
Y1622397D01*
Y1622592D02*
Y1622852D01*
Y1626654D02*
Y1626973D01*
Y1627871D02*
Y1628191D01*
Y1629886D02*
Y1630206D01*
Y1631104D02*
Y1631424D01*
Y1633077D02*
Y1633397D01*
X2072400Y1616241D02*
Y1616561D01*
Y1618047D02*
Y1618367D01*
Y1619838D02*
Y1620550D01*
Y1622164D02*
Y1622429D01*
Y1622552D02*
Y1622814D01*
Y1626654D02*
Y1626973D01*
Y1627871D02*
Y1628191D01*
Y1629886D02*
Y1630206D01*
Y1631104D02*
Y1631424D01*
Y1633077D02*
Y1633397D01*
X2072500Y1616226D02*
Y1616576D01*
Y1618047D02*
Y1618367D01*
Y1619900D02*
Y1620550D01*
Y1622202D02*
Y1622776D01*
Y1626639D02*
Y1626973D01*
Y1627871D02*
Y1628191D01*
Y1629886D02*
Y1630206D01*
Y1631104D02*
Y1631424D01*
Y1633077D02*
Y1633397D01*
X2072600Y1615318D02*
Y1617485D01*
Y1618047D02*
Y1618367D01*
Y1619963D02*
Y1620550D01*
Y1622240D02*
Y1622738D01*
Y1625436D02*
Y1626973D01*
Y1627871D02*
Y1628191D01*
Y1629886D02*
Y1630206D01*
Y1631104D02*
Y1631424D01*
Y1633077D02*
Y1633397D01*
X2072700Y1615318D02*
Y1617485D01*
Y1618047D02*
Y1618367D01*
Y1620025D02*
Y1620550D01*
Y1622278D02*
Y1622700D01*
Y1625436D02*
Y1626973D01*
Y1627871D02*
Y1628191D01*
Y1629886D02*
Y1630206D01*
Y1631104D02*
Y1631424D01*
Y1633077D02*
Y1633397D01*
*
G04 PC Custom Flashes*
G04 Layer Name PI-ZREO-HAT.pcb - flashes*
%LPD*%
*
*
G04 PC Circuitry*
G04 Layer Name PI-ZREO-HAT.pcb - circuitry*
%LPD*%
*
G54D11*
X1921260Y1530315D02*
G75*
G03X1930315Y1521260I9055J-0D01*
G01X2069685*
G03X2078740Y1530315I0J9055*
G01Y1669685*
G03X2069685Y1678740I-9055J0*
G01X1930315*
G03X1921260Y1669685I-0J-9055*
G01Y1530315*
X1936220D02*
G03X1936220I-5905J0D01*
G01X2075591D02*
G03X2075591I-5906J0D01*
G01X1936220Y1669685D02*
G03X1936220I-5905J0D01*
G01X2075646Y1669640D02*
G03X2075646I-5906J0D01*
G54D43*
G74*
G01X0Y0D02*
M02*
